{
.appVersion = "1134";
DisplayStrings = (
"IHzHEZ/Placeholder NV/Placeholder M\012OOO/Placeholder OOO/Placeholder O\012IIIIIII/Placeholder IIIIIH/Placeholder H\012OOOO/Placeholder/Placeholder/Placeholder/Placeholder IIIIIII",
"oe/oe æ/Placeholder"
);
copyright = "Copyright (c) 2010, Sebastian Kosch (sebastian@aldusleaf.org),\012with Reserved Font Name \"Crimson Text\".\012This Font Software is licensed under the SIL Open Font License, Version 1.1.\012This license is available with a FAQ at: http://scripts.sil.org/OFL";
customParameters = (
{
name = licenseURL;
value = "http://scripts.sil.org/OFL";
},
{
name = vendorID;
value = PfEd;
},
{
name = glyphOrder;
value = (
A,
AE,
B,
C,
D,
E,
F,
G,
H,
I,
J,
K,
L,
M,
N,
O,
OE,
P,
Thorn,
Q,
R,
S,
Germandbls,
T,
U,
V,
W,
X,
Y,
Z,
a,
ae,
b,
c,
d,
eth,
e,
f,
g,
h,
i,
j,
k,
l,
m,
n,
o,
oe,
p,
thorn,
q,
r,
s,
germandbls,
t,
u,
v,
w,
x,
y,
z
);
},
{
name = note;
value = "1F6F9";
}
);
date = "2018-04-20 21:09:06 +0000";
disablesNiceNames = 1;
familyName = "Crimson Text New";
featurePrefixes = (
{
automatic = 1;
code = "languagesystem DFLT dflt;\012languagesystem latn dflt;\012languagesystem latn CAT;\012";
name = Languagesystems;
}
);
features = (
{
automatic = 1;
code = "feature locl;\012feature subs;\012feature sinf;\012feature frac;\012feature ordn;\012feature c2sc;\012feature smcp;\012feature salt;\012feature ss01;\012feature ss02;\012feature ss03;\012";
name = aalt;
},
{
automatic = 1;
code = "script latn;\012language CAT;\012sub  l' periodcentered' l by ldot;\012sub  L' periodcentered' L by Ldot;\012";
name = locl;
},
{
automatic = 1;

glyphs = (
{
color = 3;
glyphname = A;
lastChange = "2018-04-23 14:49:54 +0000";
layers = (
{
background = {
paths = (
{
closed = 1;
nodes = (
"278 631 LINE",
"129 249 LINE",
"48 45 LINE",
"34 40 OFFCURVE",
"14 34 OFFCURVE",
"-7 33 CURVE",
"-5 -3 LINE",
"26 0 OFFCURVE",
"63 1 OFFCURVE",
"84 1 CURVE SMOOTH",
"110 1 OFFCURVE",
"142 0 OFFCURVE",
"177 -3 CURVE",
"179 33 LINE",
"153 34 OFFCURVE",
"122 42 OFFCURVE",
"110 45 CURVE",
"176 220 LINE",
"188 254 LINE",
"314 595 LINE",
"284 573 LINE",
"408 258 LINE",
"421 225 LINE",
"491 47 LINE",
"484 44 OFFCURVE",
"449 34 OFFCURVE",
"423 33 CURVE",
"425 -3 LINE",
"460 0 OFFCURVE",
"493 1 OFFCURVE",
"523 1 CURVE SMOOTH",
"561 1 OFFCURVE",
"611 0 OFFCURVE",
"641 -3 CURVE",
"643 33 LINE",
"620 35 OFFCURVE",
"602 41 OFFCURVE",
"588 47 CURVE",
"342 674 LINE"
);
},
{
closed = 1;
nodes = (
"191 216 OFFCURVE",
"241 217 OFFCURVE",
"314 217 CURVE SMOOTH",
"387 217 OFFCURVE",
"435 216 OFFCURVE",
"467 213 CURVE",
"467 267 LINE",
"439 265 OFFCURVE",
"387 264 OFFCURVE",
"314 264 CURVE SMOOTH",
"241 264 OFFCURVE",
"187 265 OFFCURVE",
"159 267 CURVE",
"159 213 LINE"
);
}
);
};
color = -1;
layerId = "D75C065C-4EF6-4055-9CF2-70010DBCD897";
paths = (
{
closed = 1;
nodes = (
"278 631 LINE",
"129 249 LINE",
"50 51 LINE",
"36 46 OFFCURVE",
"16 40 OFFCURVE",
"-5 39 CURVE",
"-3 -3 LINE",
"28 0 OFFCURVE",
"65 1 OFFCURVE",
"86 1 CURVE SMOOTH",
"112 1 OFFCURVE",
"144 0 OFFCURVE",
"179 -3 CURVE",
"181 39 LINE",
"155 40 OFFCURVE",
"124 48 OFFCURVE",
"112 51 CURVE",
"176 220 LINE",
"188 254 LINE",
"314 595 LINE",
"284 573 LINE",
"408 258 LINE",
"421 225 LINE",
"489 53 LINE",
"482 50 OFFCURVE",
"447 40 OFFCURVE",
"421 39 CURVE",
"423 -3 LINE",
"458 0 OFFCURVE",
"491 1 OFFCURVE",
"521 1 CURVE SMOOTH",
"559 1 OFFCURVE",
"609 0 OFFCURVE",
"639 -3 CURVE",
"641 39 LINE",
"618 41 OFFCURVE",
"600 47 OFFCURVE",
"586 53 CURVE",
"342 674 LINE"
);
},
{
closed = 1;
nodes = (
"191 216 OFFCURVE",
"241 217 OFFCURVE",
"314 217 CURVE SMOOTH",
"387 217 OFFCURVE",
"435 216 OFFCURVE",
"467 213 CURVE",
"467 267 LINE",
"439 265 OFFCURVE",
"387 264 OFFCURVE",
"314 264 CURVE SMOOTH",
"241 264 OFFCURVE",
"187 265 OFFCURVE",
"159 267 CURVE",
"159 213 LINE"
);
}
);
width = 639;
},
{
background = {
paths = (
{
closed = 1;
nodes = (
"281 623 LINE",
"140 278 LINE",
"48 56 LINE",
"36 51 OFFCURVE",
"20 47 OFFCURVE",
"-9 44 CURVE",
"-6 -5 LINE",
"28 -1 OFFCURVE",
"70 0 OFFCURVE",
"99 0 CURVE SMOOTH",
"128 0 OFFCURVE",
"170 -1 OFFCURVE",
"203 -5 CURVE",
"206 44 LINE",
"178 47 OFFCURVE",
"147 53 OFFCURVE",
"133 56 CURVE",
"196 224 LINE",
"207 258 LINE",
"314 534 LINE",
"273 534 LINE",
"388 256 LINE",
"401 219 LINE",
"467 56 LINE",
"448 52 OFFCURVE",
"423 47 OFFCURVE",
"395 44 CURVE",
"398 -5 LINE",
"432 -1 OFFCURVE",
"504 2 OFFCURVE",
"540 2 CURVE SMOOTH",
"576 2 OFFCURVE",
"649 -1 OFFCURVE",
"682 -5 CURVE",
"685 44 LINE",
"662 48 OFFCURVE",
"641 51 OFFCURVE",
"628 56 CURVE",
"367 674 LINE"
);
},
{
closed = 1;
nodes = (
"199 204 OFFCURVE",
"238 206 OFFCURVE",
"300 206 CURVE SMOOTH",
"361 206 OFFCURVE",
"400 204 OFFCURVE",
"428 202 CURVE",
"428 268 LINE",
"400 266 OFFCURVE",
"361 264 OFFCURVE",
"300 264 CURVE SMOOTH",
"238 264 OFFCURVE",
"199 266 OFFCURVE",
"171 268 CURVE",
"171 202 LINE"
);
}
);
};
color = -1;
layerId = "6D340022-02C4-426D-A0D8-A7BFACBEB22E";
paths = (
{
closed = 1;
nodes = (
"277 615 LINE",
"140 278 LINE",
"51 64 LINE",
"39 59 OFFCURVE",
"23 55 OFFCURVE",
"-6 52 CURVE",
"-3 -3 LINE",
"31 0 OFFCURVE",
"72 0 OFFCURVE",
"102 0 CURVE SMOOTH",
"132 0 OFFCURVE",
"173 0 OFFCURVE",
"206 -3 CURVE",
"209 52 LINE",
"181 55 OFFCURVE",
"150 61 OFFCURVE",
"136 64 CURVE",
"196 224 LINE",
"207 258 LINE",
"314 534 LINE",
"273 534 LINE",
"388 256 LINE",
"401 219 LINE",
"464 64 LINE",
"445 60 OFFCURVE",
"420 55 OFFCURVE",
"392 52 CURVE",
"395 -3 LINE",
"429 0 OFFCURVE",
"497 2 OFFCURVE",
"537 2 CURVE SMOOTH",
"577 2 OFFCURVE",
"646 0 OFFCURVE",
"679 -3 CURVE",
"682 52 LINE",
"659 56 OFFCURVE",
"638 59 OFFCURVE",
"625 64 CURVE",
"367 674 LINE"
);
},
{
closed = 1;
nodes = (
"199 204 OFFCURVE",
"238 206 OFFCURVE",
"300 206 CURVE SMOOTH",
"361 206 OFFCURVE",
"400 204 OFFCURVE",
"428 202 CURVE",
"428 268 LINE",
"400 266 OFFCURVE",
"361 264 OFFCURVE",
"300 264 CURVE SMOOTH",
"238 264 OFFCURVE",
"199 266 OFFCURVE",
"171 268 CURVE",
"171 202 LINE"
);
}
);
width = 675;
}
);
leftKerningGroup = A;
note = A;
rightKerningGroup = A;
unicode = 0041;
},
{
glyphname = AE;
lastChange = "2018-04-23 14:49:54 +0000";
layers = (
{
color = -1;
layerId = "D75C065C-4EF6-4055-9CF2-70010DBCD897";
paths = (
{
closed = 1;
nodes = (
"887.406 29.048 OFFCURVE",
"926.323 134.24 OFFCURVE",
"937 162 CURVE",
"933 166 OFFCURVE",
"924.667 168 OFFCURVE",
"912 168 CURVE SMOOTH",
"904 168 OFFCURVE",
"899.333 166 OFFCURVE",
"898 162 CURVE",
"883.333 111.333 OFFCURVE",
"855 71.667 OFFCURVE",
"835 61 CURVE SMOOTH",
"813 49.667 OFFCURVE",
"771 44 OFFCURVE",
"709 44 CURVE SMOOTH",
"661 44 LINE SMOOTH",
"617.667 44 OFFCURVE",
"595 47.333 OFFCURVE",
"593 54 CURVE",
"587 71.333 OFFCURVE",
"584 101.667 OFFCURVE",
"584 145 CURVE SMOOTH",
"584 300 LINE SMOOTH",
"584 306 OFFCURVE",
"608 309 OFFCURVE",
"656 309 CURVE SMOOTH",
"718 309 OFFCURVE",
"753.333 306.333 OFFCURVE",
"762 301 CURVE",
"776.858 291.094 OFFCURVE",
"780.189 275.843 OFFCURVE",
"790 238 CURVE",
"792 232.667 OFFCURVE",
"797.333 230 OFFCURVE",
"806 230 CURVE SMOOTH",
"814 230 OFFCURVE",
"819.333 231.333 OFFCURVE",
"822 234 CURVE",
"822 423 LINE",
"818.667 426.333 OFFCURVE",
"813 428 OFFCURVE",
"805 428 CURVE SMOOTH",
"795.667 428 OFFCURVE",
"790.667 425.667 OFFCURVE",
"790 421 CURVE",
"784.162 398.623 OFFCURVE",
"776.729 364.932 OFFCURVE",
"765 362 CURVE SMOOTH",
"724.258 351.814 OFFCURVE",
"728.368 353 OFFCURVE",
"680 353 CURVE SMOOTH",
"627 353 LINE SMOOTH",
"598.333 353 OFFCURVE",
"584 355 OFFCURVE",
"584 359 CURVE SMOOTH",
"584 519 LINE SMOOTH",
"584 559 OFFCURVE",
"585.667 587 OFFCURVE",
"589 603 CURVE",
"590.333 611.667 OFFCURVE",
"619.667 616 OFFCURVE",
"677 616 CURVE SMOOTH",
"744 616 LINE SMOOTH",
"806.667 616 OFFCURVE",
"840 603.333 OFFCURVE",
"860 530 CURVE",
"860.667 525.333 OFFCURVE",
"865.333 523 OFFCURVE",
"874 523 CURVE SMOOTH",
"882.667 523 OFFCURVE",
"888.667 524.667 OFFCURVE",
"892 528 CURVE",
"890.667 536 OFFCURVE",
"886.167 555.833 OFFCURVE",
"878.5 587.5 CURVE SMOOTH",
"870.833 619.167 OFFCURVE",
"865.667 644.667 OFFCURVE",
"863 664 CURVE",
"825 664 OFFCURVE",
"769 662.667 OFFCURVE",
"695 660 CURVE SMOOTH",
"621 657.333 OFFCURVE",
"569.333 656 OFFCURVE",
"540 656 CURVE SMOOTH",
"495.333 656 OFFCURVE",
"456.667 656.667 OFFCURVE",
"424 658 CURVE",
"421.333 655.333 OFFCURVE",
"420 650.333 OFFCURVE",
"420 643 CURVE SMOOTH",
"420 633.667 OFFCURVE",
"421.333 629 OFFCURVE",
"424 629 CURVE SMOOTH",
"441.333 629 OFFCURVE",
"469 620 OFFCURVE",
"469 604 CURVE SMOOTH",
"469 598.667 OFFCURVE",
"466.667 592 OFFCURVE",
"462 584 CURVE SMOOTH",
"185 137 LINE SMOOTH",
"157 91 OFFCURVE",
"134 59.667 OFFCURVE",
"116 43 CURVE",
"104.667 31.667 OFFCURVE",
"84.333 26 OFFCURVE",
"55 26 CURVE SMOOTH",
"52.333 26 OFFCURVE",
"50 20.667 OFFCURVE",
"48 10 CURVE SMOOTH",
"46.667 2.667 OFFCURVE",
"46.667 -1.667 OFFCURVE",
"48 -3 CURVE",
"94 -1 OFFCURVE",
"129 0 OFFCURVE",
"153 0 CURVE SMOOTH",
"181 0 OFFCURVE",
"215 -1 OFFCURVE",
"255 -3 CURVE",
"257.667 3.667 OFFCURVE",
"262.667 26 OFFCURVE",
"260 26 CURVE SMOOTH",
"233.333 26 OFFCURVE",
"215.333 30.667 OFFCURVE",
"206 40 CURVE SMOOTH",
"201.333 44.667 OFFCURVE",
"200 51.333 OFFCURVE",
"202 60 CURVE SMOOTH",
"204.667 72.667 OFFCURVE",
"215.667 95.667 OFFCURVE",
"235 129 CURVE SMOOTH",
"304 239 LINE",
"307.333 241 OFFCURVE",
"309 242 OFFCURVE",
"309 242 CURVE",
"360.333 245.333 OFFCURVE",
"393.333 247 OFFCURVE",
"408 247 CURVE SMOOTH",
"444.667 247 OFFCURVE",
"470 246 OFFCURVE",
"484 244 CURVE",
"492.667 242 OFFCURVE",
"497 238.333 OFFCURVE",
"497 233 CURVE SMOOTH",
"497 135 LINE SMOOTH",
"497 95.667 OFFCURVE",
"494.667 67 OFFCURVE",
"490 49 CURVE",
"486 38.333 OFFCURVE",
"440 26 OFFCURVE",
"424 26 CURVE SMOOTH",
"421.333 26 OFFCURVE",
"420 21.333 OFFCURVE",
"420 12 CURVE SMOOTH",
"420 4.667 OFFCURVE",
"421.333 -0.333 OFFCURVE",
"424 -3 CURVE",
"542 2 LINE",
"570.667 2 OFFCURVE",
"625.167 1 OFFCURVE",
"705.5 -1 CURVE SMOOTH",
"785.833 -3 OFFCURVE",
"845 -4 OFFCURVE",
"883 -4 CURVE"
);
},
{
closed = 1;
nodes = (
"401 295 OFFCURVE",
"377.667 295.667 OFFCURVE",
"343 297 CURVE",
"341.667 297 OFFCURVE",
"341.333 298.333 OFFCURVE",
"342 301 CURVE",
"433.333 449.667 OFFCURVE",
"479 524 OFFCURVE",
"479 524 CURVE",
"482.333 528.667 OFFCURVE",
"485.333 531 OFFCURVE",
"488 531 CURVE SMOOTH",
"494 531 OFFCURVE",
"497 528.333 OFFCURVE",
"497 523 CURVE SMOOTH",
"497 308 LINE SMOOTH",
"497 300.667 OFFCURVE",
"493 297 OFFCURVE",
"485 297 CURVE",
"450.333 295.667 OFFCURVE",
"426.333 295 OFFCURVE",
"413 295 CURVE SMOOTH"
);
}
);
width = 982;
},
{
background = {
paths = (
{
closed = 1;
nodes = (
"106 69 LINE",
"97 57 OFFCURVE",
"28 33 OFFCURVE",
"16 33 QCURVE SMOOTH",
"15 33 OFFCURVE",
"10 13 OFFCURVE",
"10 8 QCURVE SMOOTH",
"10 -2 OFFCURVE",
"12 -4 QCURVE",
"29 -3 OFFCURVE",
"113 4 OFFCURVE",
"139 4 QCURVE SMOOTH",
"164 4 OFFCURVE",
"240 -3 OFFCURVE",
"254 -4 QCURVE",
"257 2 OFFCURVE",
"263 33 OFFCURVE",
"260 33 QCURVE SMOOTH",
"224 33 OFFCURVE",
"200 44 QCURVE",
"187 51 OFFCURVE",
"190 67 QCURVE SMOOTH",
"193 84 OFFCURVE",
"223 129 QCURVE SMOOTH",
"270 205 LINE",
"272 210 OFFCURVE",
"278 210 QCURVE SMOOTH",
"313 211 OFFCURVE",
"370 211 QCURVE SMOOTH",
"413 211 OFFCURVE",
"439 210 QCURVE",
"448 210 OFFCURVE",
"448 200 QCURVE SMOOTH",
"448 135 LINE SMOOTH",
"448 79 OFFCURVE",
"442 56 QCURVE",
"439 49 OFFCURVE",
"393 33 OFFCURVE",
"382 33 QCURVE SMOOTH",
"378 33 OFFCURVE",
"378 13 QCURVE SMOOTH",
"378 0 OFFCURVE",
"382 -4 QCURVE",
"522 2 LINE",
"565 2 OFFCURVE",
"807 -2 OFFCURVE",
"864 -2 QCURVE",
"869 32 OFFCURVE",
"918 170 QCURVE",
"912 176 OFFCURVE",
"888 176 QCURVE SMOOTH",
"876 176 OFFCURVE",
"874 170 QCURVE",
"862 139 OFFCURVE",
"819 89 OFFCURVE",
"802 80 QCURVE SMOOTH",
"752 54 OFFCURVE",
"690 54 QCURVE SMOOTH",
"664 54 LINE SMOOTH",
"601 54 OFFCURVE",
"596 70 QCURVE SMOOTH",
"588 93 OFFCURVE",
"588 141 QCURVE SMOOTH",
"588 295 LINE SMOOTH",
"588 304 OFFCURVE",
"660 304 QCURVE SMOOTH",
"725 304 OFFCURVE",
"738 296 QCURVE",
"739 295 OFFCURVE",
"745 292 OFFCURVE",
"747 290 OFFCURVE",
"752 282 OFFCURVE",
"756 272 OFFCURVE",
"762 252 OFFCURVE",
"766 238 QCURVE",
"769 230 OFFCURVE",
"782 230 QCURVE SMOOTH",
"799 230 OFFCURVE",
"803 234 QCURVE",
"803 423 LINE",
"798 428 OFFCURVE",
"781 428 QCURVE SMOOTH",
"767 428 OFFCURVE",
"766 421 QCURVE",
"762 407 OFFCURVE",
"760 392 QCURVE SMOOTH",
"757 367 OFFCURVE",
"752 363 QCURVE",
"746 359 OFFCURVE",
"684 359 QCURVE SMOOTH",
"631 359 LINE SMOOTH",
"588 359 OFFCURVE",
"588 365 QCURVE SMOOTH",
"588 519 LINE SMOOTH",
"588 573 OFFCURVE",
"593 597 QCURVE",
"595 610 OFFCURVE",
"658 610 QCURVE SMOOTH",
"696 610 LINE SMOOTH",
"735 610 OFFCURVE",
"817 556 OFFCURVE",
"836 518 QCURVE",
"839 511 OFFCURVE",
"850 511 QCURVE SMOOTH",
"868 511 OFFCURVE",
"873 516 QCURVE",
"845 654 OFFCURVE",
"844 664 QCURVE",
"788 664 OFFCURVE",
"566 656 OFFCURVE",
"521 656 QCURVE SMOOTH",
"454 656 OFFCURVE",
"383 664 QCURVE",
"380 661 OFFCURVE",
"380 627 OFFCURVE",
"384 627 QCURVE SMOOTH",
"395 627 OFFCURVE",
"433 609 OFFCURVE",
"433 598 QCURVE SMOOTH",
"433 590 OFFCURVE",
"429 584 QCURVE SMOOTH",
"147 132 LINE"
);
},
{
closed = 1;
nodes = (
"428 273 OFFCURVE",
"411 272 OFFCURVE",
"397 271 OFFCURVE",
"383 271 QCURVE SMOOTH",
"348 271 OFFCURVE",
"318 274 QCURVE",
"316 274 OFFCURVE",
"316 278 QCURVE",
"438 475 LINE SMOOTH",
"441 480 OFFCURVE",
"445 480 QCURVE SMOOTH",
"448 480 OFFCURVE",
"448 475 QCURVE SMOOTH",
"448 282 LINE SMOOTH",
"448 273 OFFCURVE",
"439 273 QCURVE SMOOTH"
);
}
);
};
color = -1;
layerId = "6D340022-02C4-426D-A0D8-A7BFACBEB22E";
paths = (
{
closed = 1;
nodes = (
"23.333 -3.333 OFFCURVE",
"43 -1.833 OFFCURVE",
"71 0.5 CURVE SMOOTH",
"99 2.833 OFFCURVE",
"121.667 4 OFFCURVE",
"139 4 CURVE SMOOTH",
"155.667 4 OFFCURVE",
"176.667 2.833 OFFCURVE",
"202 0.5 CURVE SMOOTH",
"227.333 -1.833 OFFCURVE",
"244.667 -3.333 OFFCURVE",
"254 -4 CURVE",
"258 4 OFFCURVE",
"264 33 OFFCURVE",
"260 33 CURVE SMOOTH",
"236 33 OFFCURVE",
"216 36.667 OFFCURVE",
"200 44 CURVE",
"191.333 48.667 OFFCURVE",
"188 56.333 OFFCURVE",
"190 67 CURVE SMOOTH",
"192 78.333 OFFCURVE",
"203 99 OFFCURVE",
"223 129 CURVE SMOOTH",
"270 205 LINE",
"271.333 208.333 OFFCURVE",
"274 210 OFFCURVE",
"278 210 CURVE SMOOTH",
"301.333 210.667 OFFCURVE",
"332 211 OFFCURVE",
"370 211 CURVE SMOOTH",
"398.667 211 OFFCURVE",
"421.667 210.667 OFFCURVE",
"439 210 CURVE",
"445 210 OFFCURVE",
"448 206.667 OFFCURVE",
"448 200 CURVE SMOOTH",
"448 135 LINE SMOOTH",
"448 97.667 OFFCURVE",
"446 71.333 OFFCURVE",
"442 56 CURVE",
"438 46.667 OFFCURVE",
"396.667 33 OFFCURVE",
"382 33 CURVE SMOOTH",
"379.333 33 OFFCURVE",
"378 26.333 OFFCURVE",
"378 13 CURVE SMOOTH",
"378 4.333 OFFCURVE",
"379.333 -1.333 OFFCURVE",
"382 -4 CURVE",
"522 2 LINE",
"550.667 2 OFFCURVE",
"605.333 1.333 OFFCURVE",
"686 0 CURVE SMOOTH",
"766.667 -1.333 OFFCURVE",
"826 -2 OFFCURVE",
"864 -2 CURVE",
"867.333 20.667 OFFCURVE",
"885.333 78 OFFCURVE",
"918 170 CURVE",
"914 174 OFFCURVE",
"904 176 OFFCURVE",
"888 176 CURVE SMOOTH",
"880 176 OFFCURVE",
"875.333 174 OFFCURVE",
"874 170 CURVE",
"858 128.667 OFFCURVE",
"824.667 92 OFFCURVE",
"802 80 CURVE SMOOTH",
"768.667 62.667 OFFCURVE",
"731.333 54 OFFCURVE",
"690 54 CURVE SMOOTH",
"664 54 LINE SMOOTH",
"622 54 OFFCURVE",
"599.333 59.333 OFFCURVE",
"596 70 CURVE SMOOTH",
"590.667 85.333 OFFCURVE",
"588 109 OFFCURVE",
"588 141 CURVE SMOOTH",
"588 295 LINE SMOOTH",
"588 301 OFFCURVE",
"612 304 OFFCURVE",
"660 304 CURVE SMOOTH",
"703.333 304 OFFCURVE",
"729.333 301.333 OFFCURVE",
"738 296 CURVE",
"741.579 292.421 OFFCURVE",
"745.033 293.147 OFFCURVE",
"749.5 286 CURVE SMOOTH",
"753.239 280.018 OFFCURVE",
"759.975 259.088 OFFCURVE",
"766 238 CURVE",
"768 232.667 OFFCURVE",
"773.333 230 OFFCURVE",
"782 230 CURVE SMOOTH",
"793.333 230 OFFCURVE",
"800.333 231.333 OFFCURVE",
"803 234 CURVE",
"803 423 LINE",
"799.667 426.333 OFFCURVE",
"792.333 428 OFFCURVE",
"781 428 CURVE SMOOTH",
"771.667 428 OFFCURVE",
"766.667 425.667 OFFCURVE",
"766 421 CURVE",
"763.333 411.667 OFFCURVE",
"761.333 402 OFFCURVE",
"760 392 CURVE SMOOTH",
"758 375.333 OFFCURVE",
"755.333 365.667 OFFCURVE",
"752 363 CURVE",
"748 360.333 OFFCURVE",
"725.333 359 OFFCURVE",
"684 359 CURVE SMOOTH",
"631 359 LINE SMOOTH",
"602.333 359 OFFCURVE",
"588 361 OFFCURVE",
"588 365 CURVE SMOOTH",
"588 519 LINE SMOOTH",
"588 555 OFFCURVE",
"589.667 581 OFFCURVE",
"593 597 CURVE",
"594.333 605.667 OFFCURVE",
"616 610 OFFCURVE",
"658 610 CURVE SMOOTH",
"696 610 LINE SMOOTH",
"748 610 OFFCURVE",
"810.667 568.667 OFFCURVE",
"836 518 CURVE",
"838 513.333 OFFCURVE",
"842.667 511 OFFCURVE",
"850 511 CURVE SMOOTH",
"862 511 OFFCURVE",
"869.667 512.667 OFFCURVE",
"873 516 CURVE",
"854.333 608 OFFCURVE",
"844.667 657.333 OFFCURVE",
"844 664 CURVE",
"806.667 664 OFFCURVE",
"751 662.667 OFFCURVE",
"677 660 CURVE SMOOTH",
"603 657.333 OFFCURVE",
"551 656 OFFCURVE",
"521 656 CURVE SMOOTH",
"476.333 656 OFFCURVE",
"430.333 658.667 OFFCURVE",
"383 664 CURVE",
"381 662 OFFCURVE",
"380 655.333 OFFCURVE",
"380 644 CURVE SMOOTH",
"380 632.667 OFFCURVE",
"381.333 627 OFFCURVE",
"384 627 CURVE SMOOTH",
"398.667 627 OFFCURVE",
"433 612.667 OFFCURVE",
"433 598 CURVE SMOOTH",
"433 592.667 OFFCURVE",
"431.667 588 OFFCURVE",
"429 584 CURVE SMOOTH",
"147 132 LINE",
"106 69 LINE",
"94 53 OFFCURVE",
"32 33 OFFCURVE",
"16 33 CURVE SMOOTH",
"14.667 33 OFFCURVE",
"10 14.667 OFFCURVE",
"10 8 CURVE SMOOTH",
"10 1.333 OFFCURVE",
"10.667 -2.667 OFFCURVE",
"12 -4 CURVE"
);
},
{
closed = 1;
nodes = (
"359.667 271 OFFCURVE",
"338 272 OFFCURVE",
"318 274 CURVE",
"316.667 274 OFFCURVE",
"316 275.333 OFFCURVE",
"316 278 CURVE",
"438 475 LINE SMOOTH",
"440 478.333 OFFCURVE",
"442.333 480 OFFCURVE",
"445 480 CURVE SMOOTH",
"447 480 OFFCURVE",
"448 478.333 OFFCURVE",
"448 475 CURVE SMOOTH",
"448 282 LINE SMOOTH",
"448 276 OFFCURVE",
"445 273 OFFCURVE",
"439 273 CURVE SMOOTH",
"427.125 273 OFFCURVE",
"397.03 271 OFFCURVE",
"383 271 CURVE SMOOTH"
);
}
);
width = 931;
}
);
note = AE;
unicode = 00C6;
},
{
color = 3;
glyphname = B;
lastChange = "2018-04-23 14:49:54 +0000";
layers = (
{
background = {
paths = (
{
closed = 1;
nodes = (
"101 50 OFFCURVE",
"66 40 OFFCURVE",
"40 39 CURVE",
"42 -3 LINE",
"62 -1 OFFCURVE",
"119 2 OFFCURVE",
"173 2 CURVE SMOOTH",
"208 2 OFFCURVE",
"241 -1 OFFCURVE",
"278 -1 CURVE SMOOTH",
"457 -1 OFFCURVE",
"544 82 OFFCURVE",
"544 189 CURVE SMOOTH",
"544 289 OFFCURVE",
"467 352 OFFCURVE",
"333 355 CURVE",
"348 348 LINE",
"455 357 OFFCURVE",
"511 428 OFFCURVE",
"511 503 CURVE SMOOTH",
"511 604 OFFCURVE",
"435 662 OFFCURVE",
"291 662 CURVE SMOOTH",
"231 662 OFFCURVE",
"180 659 OFFCURVE",
"144 659 CURVE SMOOTH",
"109 659 OFFCURVE",
"77 659 OFFCURVE",
"42 660 CURVE",
"40 618 LINE",
"66 619 OFFCURVE",
"101 612 OFFCURVE",
"108 608 CURVE",
"112 601 OFFCURVE",
"116 572 OFFCURVE",
"116 442 CURVE SMOOTH",
"116 217 LINE SMOOTH",
"116 87 OFFCURVE",
"111 60 OFFCURVE",
"108 54 CURVE"
);
},
{
closed = 1;
nodes = (
"204 465 LINE SMOOTH",
"204 558 OFFCURVE",
"204 603 OFFCURVE",
"206 611 CURVE",
"220 615 OFFCURVE",
"246 618 OFFCURVE",
"275 618 CURVE SMOOTH",
"363 618 OFFCURVE",
"417 577 OFFCURVE",
"417 492 CURVE SMOOTH",
"417 415 OFFCURVE",
"367 362 OFFCURVE",
"264 362 CURVE SMOOTH",
"241 362 OFFCURVE",
"213 362 OFFCURVE",
"187 365 CURVE",
"187 314 LINE",
"213 316 OFFCURVE",
"240 317 OFFCURVE",
"286 317 CURVE SMOOTH",
"388 317 OFFCURVE",
"450 271 OFFCURVE",
"450 179 CURVE SMOOTH",
"450 93 OFFCURVE",
"398 46 OFFCURVE",
"292 46 CURVE SMOOTH",
"255 46 OFFCURVE",
"219 51 OFFCURVE",
"206 54 CURVE",
"205 64 OFFCURVE",
"204 123 OFFCURVE",
"204 199 CURVE SMOOTH"
);
}
);
};
color = -1;
layerId = "D75C065C-4EF6-4055-9CF2-70010DBCD897";
paths = (
{
closed = 1;
nodes = (
"101 50 OFFCURVE",
"66 40 OFFCURVE",
"40 39 CURVE",
"42 -3 LINE",
"62 -1 OFFCURVE",
"119 2 OFFCURVE",
"173 2 CURVE SMOOTH",
"208 2 OFFCURVE",
"241 -1 OFFCURVE",
"278 -1 CURVE SMOOTH",
"457 -1 OFFCURVE",
"544 82 OFFCURVE",
"544 189 CURVE SMOOTH",
"544 289 OFFCURVE",
"467 352 OFFCURVE",
"333 355 CURVE",
"348 348 LINE",
"455 357 OFFCURVE",
"511 428 OFFCURVE",
"511 503 CURVE SMOOTH",
"511 604 OFFCURVE",
"435 662 OFFCURVE",
"291 662 CURVE SMOOTH",
"231 662 OFFCURVE",
"180 659 OFFCURVE",
"144 659 CURVE SMOOTH",
"109 659 OFFCURVE",
"77 659 OFFCURVE",
"42 660 CURVE",
"40 618 LINE",
"66 619 OFFCURVE",
"101 612 OFFCURVE",
"108 608 CURVE",
"112 601 OFFCURVE",
"116 572 OFFCURVE",
"116 442 CURVE SMOOTH",
"116 217 LINE SMOOTH",
"116 87 OFFCURVE",
"111 60 OFFCURVE",
"108 54 CURVE"
);
},
{
closed = 1;
nodes = (
"204 465 LINE SMOOTH",
"204 558 OFFCURVE",
"204 602 OFFCURVE",
"206 610 CURVE",
"220 614 OFFCURVE",
"246 617 OFFCURVE",
"275 617 CURVE SMOOTH",
"363 617 OFFCURVE",
"417 577 OFFCURVE",
"417 492 CURVE SMOOTH",
"417 415 OFFCURVE",
"367 363 OFFCURVE",
"264 363 CURVE SMOOTH",
"241 363 OFFCURVE",
"213 363 OFFCURVE",
"187 366 CURVE",
"187 313 LINE",
"213 315 OFFCURVE",
"240 316 OFFCURVE",
"286 316 CURVE SMOOTH",
"388 316 OFFCURVE",
"450 271 OFFCURVE",
"450 179 CURVE SMOOTH",
"450 93 OFFCURVE",
"398 46 OFFCURVE",
"292 46 CURVE SMOOTH",
"255 46 OFFCURVE",
"219 51 OFFCURVE",
"206 54 CURVE",
"205 64 OFFCURVE",
"204 123 OFFCURVE",
"204 199 CURVE SMOOTH"
);
}
);
width = 585;
},
{
background = {
paths = (
{
closed = 1;
nodes = (
"89 61 OFFCURVE",
"57 54 OFFCURVE",
"29 51 CURVE",
"32 -5 LINE",
"66 -1 OFFCURVE",
"153 2 OFFCURVE",
"207 2 CURVE SMOOTH",
"241 2 OFFCURVE",
"279 -2 OFFCURVE",
"315 -2 CURVE SMOOTH",
"501 -2 OFFCURVE",
"602 79 OFFCURVE",
"602 194 CURVE SMOOTH",
"602 286 OFFCURVE",
"542 351 OFFCURVE",
"385 358 CURVE",
"382 350 LINE",
"505 358 OFFCURVE",
"568 428 OFFCURVE",
"568 503 CURVE SMOOTH",
"568 604 OFFCURVE",
"496 662 OFFCURVE",
"337 662 CURVE SMOOTH",
"272 662 OFFCURVE",
"213 659 OFFCURVE",
"177 659 CURVE SMOOTH",
"132 659 OFFCURVE",
"85 659 OFFCURVE",
"32 661 CURVE",
"29 605 LINE",
"57 605 OFFCURVE",
"89 599 OFFCURVE",
"100 591 CURVE",
"104 583 OFFCURVE",
"108 527 OFFCURVE",
"108 421 CURVE SMOOTH",
"108 239 LINE SMOOTH",
"108 133 OFFCURVE",
"104 77 OFFCURVE",
"100 69 CURVE"
);
},
{
closed = 1;
nodes = (
"247 461 LINE SMOOTH",
"247 547 OFFCURVE",
"248 592 OFFCURVE",
"250 600 CURVE",
"260 603 OFFCURVE",
"282 606 OFFCURVE",
"304 606 CURVE SMOOTH",
"371 606 OFFCURVE",
"421 568 OFFCURVE",
"421 489 CURVE SMOOTH",
"421 415 OFFCURVE",
"379 367 OFFCURVE",
"300 367 CURVE SMOOTH",
"278 367 OFFCURVE",
"258 367 OFFCURVE",
"235 369 CURVE",
"235 306 LINE",
"258 308 OFFCURVE",
"278 309 OFFCURVE",
"304 309 CURVE SMOOTH",
"406 309 OFFCURVE",
"454 264 OFFCURVE",
"454 184 CURVE SMOOTH",
"454 102 OFFCURVE",
"407 60 OFFCURVE",
"324 60 CURVE SMOOTH",
"291 60 OFFCURVE",
"261 66 OFFCURVE",
"250 69 CURVE",
"249 79 OFFCURVE",
"247 123 OFFCURVE",
"247 199 CURVE SMOOTH"
);
}
);
};
color = -1;
layerId = "6D340022-02C4-426D-A0D8-A7BFACBEB22E";
paths = (
{
closed = 1;
nodes = (
"89 61 OFFCURVE",
"57 54 OFFCURVE",
"29 51 CURVE",
"32 -5 LINE",
"66 -1 OFFCURVE",
"153 2 OFFCURVE",
"207 2 CURVE SMOOTH",
"241 2 OFFCURVE",
"279 -2 OFFCURVE",
"315 -2 CURVE SMOOTH",
"501 -2 OFFCURVE",
"602 79 OFFCURVE",
"602 194 CURVE SMOOTH",
"602 286 OFFCURVE",
"542 351 OFFCURVE",
"385 358 CURVE",
"382 350 LINE",
"505 358 OFFCURVE",
"568 428 OFFCURVE",
"568 503 CURVE SMOOTH",
"568 605 OFFCURVE",
"496 663 OFFCURVE",
"337 663 CURVE SMOOTH",
"272 663 OFFCURVE",
"213 660 OFFCURVE",
"177 660 CURVE SMOOTH",
"132 660 OFFCURVE",
"85 659 OFFCURVE",
"32 661 CURVE",
"29 605 LINE",
"57 605 OFFCURVE",
"89 599 OFFCURVE",
"100 591 CURVE",
"104 583 OFFCURVE",
"108 527 OFFCURVE",
"108 421 CURVE SMOOTH",
"108 239 LINE SMOOTH",
"108 133 OFFCURVE",
"104 77 OFFCURVE",
"100 69 CURVE"
);
},
{
closed = 1;
nodes = (
"247 461 LINE SMOOTH",
"247 548 OFFCURVE",
"248 592 OFFCURVE",
"250 600 CURVE",
"260 603 OFFCURVE",
"282 606 OFFCURVE",
"304 606 CURVE SMOOTH",
"371 606 OFFCURVE",
"421 568 OFFCURVE",
"421 489 CURVE SMOOTH",
"421 415 OFFCURVE",
"379 369 OFFCURVE",
"300 369 CURVE SMOOTH",
"278 369 OFFCURVE",
"258 369 OFFCURVE",
"235 371 CURVE",
"235 303 LINE",
"258 305 OFFCURVE",
"278 306 OFFCURVE",
"304 306 CURVE SMOOTH",
"406 306 OFFCURVE",
"454 263 OFFCURVE",
"454 184 CURVE SMOOTH",
"454 102 OFFCURVE",
"407 60 OFFCURVE",
"324 60 CURVE SMOOTH",
"291 60 OFFCURVE",
"261 66 OFFCURVE",
"250 69 CURVE",
"249 79 OFFCURVE",
"247 123 OFFCURVE",
"247 199 CURVE SMOOTH"
);
}
);
width = 630;
}
);
leftKerningGroup = B;
note = B;
rightKerningGroup = B;
unicode = 0042;
},
{
color = 4;
glyphname = C;
lastChange = "2018-04-23 14:49:54 +0000";
layers = (
{
background = {
paths = (
{
closed = 1;
nodes = (
"485 -10 OFFCURVE",
"557 10 OFFCURVE",
"608 37 CURVE",
"622 81 OFFCURVE",
"634 126 OFFCURVE",
"639 175 CURVE",
"590 180 LINE",
"559 75 OFFCURVE",
"506 40 OFFCURVE",
"417 40 CURVE SMOOTH",
"282 40 OFFCURVE",
"171 147 OFFCURVE",
"171 341 CURVE SMOOTH",
"171 506 OFFCURVE",
"258 623 OFFCURVE",
"409 623 CURVE SMOOTH",
"491 623 OFFCURVE",
"560 586 OFFCURVE",
"585 496 CURVE",
"628 496 LINE",
"616 637 LINE",
"568 655 OFFCURVE",
"495 670 OFFCURVE",
"420 670 CURVE SMOOTH",
"210 670 OFFCURVE",
"62 520 OFFCURVE",
"62 326 CURVE SMOOTH",
"62 101 OFFCURVE",
"225 -10 OFFCURVE",
"411 -10 CURVE SMOOTH"
);
}
);
};
color = -1;
layerId = "D75C065C-4EF6-4055-9CF2-70010DBCD897";
paths = (
{
closed = 1;
nodes = (
"485 -10 OFFCURVE",
"558 10 OFFCURVE",
"609 37 CURVE",
"621 81 OFFCURVE",
"632 130 OFFCURVE",
"640 176 CURVE",
"592 181 LINE",
"573 135 OFFCURVE",
"559 106 OFFCURVE",
"541 74 CURVE",
"505 54 OFFCURVE",
"468 44 OFFCURVE",
"418 44 CURVE SMOOTH",
"279 44 OFFCURVE",
"167 147 OFFCURVE",
"167 341 CURVE SMOOTH",
"167 488 OFFCURVE",
"238 618 OFFCURVE",
"413 618 CURVE SMOOTH",
"456 618 OFFCURVE",
"512 607 OFFCURVE",
"540 586 CURVE",
"554 553 OFFCURVE",
"564 518 OFFCURVE",
"573 483 CURVE",
"620 487 LINE",
"612 636 LINE",
"559 658 OFFCURVE",
"482 670 OFFCURVE",
"423 670 CURVE SMOOTH",
"188 670 OFFCURVE",
"58 505 OFFCURVE",
"58 326 CURVE SMOOTH",
"58 101 OFFCURVE",
"219 -10 OFFCURVE",
"410 -10 CURVE SMOOTH"
);
}
);
width = 675;
},
{
background = {
paths = (
{
closed = 1;
nodes = (
"495 -10 OFFCURVE",
"579 15 OFFCURVE",
"620 44 CURVE",
"636 91 OFFCURVE",
"645 141 OFFCURVE",
"652 191 CURVE",
"587 198 LINE",
"558 92 OFFCURVE",
"506 57 OFFCURVE",
"434 57 CURVE SMOOTH",
"319 57 OFFCURVE",
"215 164 OFFCURVE",
"215 356 CURVE SMOOTH",
"215 510 OFFCURVE",
"294 608 OFFCURVE",
"410 608 CURVE SMOOTH",
"485 608 OFFCURVE",
"546 569 OFFCURVE",
"572 473 CURVE",
"632 473 LINE",
"621 632 LINE",
"569 656 OFFCURVE",
"486 670 OFFCURVE",
"420 670 CURVE SMOOTH",
"208 670 OFFCURVE",
"51 527 OFFCURVE",
"51 320 CURVE SMOOTH",
"51 107 OFFCURVE",
"206 -10 OFFCURVE",
"414 -10 CURVE SMOOTH"
);
}
);
};
color = -1;
layerId = "6D340022-02C4-426D-A0D8-A7BFACBEB22E";
paths = (
{
closed = 1;
nodes = (
"498 -10 OFFCURVE",
"581 15 OFFCURVE",
"626 44 CURVE",
"639 93 OFFCURVE",
"649 142 OFFCURVE",
"657 191 CURVE",
"592 200 LINE",
"580 165 OFFCURVE",
"568 131 OFFCURVE",
"551 96 CURVE",
"523 73 OFFCURVE",
"478 61 OFFCURVE",
"438 61 CURVE SMOOTH",
"314 61 OFFCURVE",
"215 165 OFFCURVE",
"215 354 CURVE SMOOTH",
"215 494 OFFCURVE",
"287 602 OFFCURVE",
"427 602 CURVE SMOOTH",
"457 602 OFFCURVE",
"499 595 OFFCURVE",
"531 577 CURVE",
"546 540 OFFCURVE",
"558 501 OFFCURVE",
"570 463 CURVE",
"629 466 LINE",
"621 633 LINE",
"576 655 OFFCURVE",
"503 670 OFFCURVE",
"439 670 CURVE SMOOTH",
"209 670 OFFCURVE",
"51 527 OFFCURVE",
"51 320 CURVE SMOOTH",
"51 107 OFFCURVE",
"203 -10 OFFCURVE",
"415 -10 CURVE SMOOTH"
);
}
);
width = 693;
}
);
leftKerningGroup = C;
note = C;
rightKerningGroup = C;
unicode = 0043;
},
{
color = 3;
glyphname = D;
lastChange = "2018-04-23 14:49:54 +0000";
layers = (
{
background = {
paths = (
{
closed = 1;
nodes = (
"41 621 LINE",
"67 622 OFFCURVE",
"102 615 OFFCURVE",
"109 611 CURVE",
"113 604 OFFCURVE",
"117 572 OFFCURVE",
"117 442 CURVE SMOOTH",
"117 217 LINE SMOOTH",
"117 87 OFFCURVE",
"112 54 OFFCURVE",
"109 48 CURVE",
"102 44 OFFCURVE",
"67 34 OFFCURVE",
"41 33 CURVE",
"43 -3 LINE",
"63 -1 OFFCURVE",
"146 2 OFFCURVE",
"184 2 CURVE SMOOTH",
"225 2 OFFCURVE",
"281 -1 OFFCURVE",
"324 -1 CURVE SMOOTH",
"523 -1 OFFCURVE",
"687 124 OFFCURVE",
"687 333 CURVE SMOOTH",
"687 532 OFFCURVE",
"553 661 OFFCURVE",
"309 661 CURVE SMOOTH",
"246 661 OFFCURVE",
"189 658 OFFCURVE",
"151 658 CURVE SMOOTH",
"118 658 OFFCURVE",
"78 659 OFFCURVE",
"43 660 CURVE"
);
},
{
closed = 1;
nodes = (
"233 612 OFFCURVE",
"262 615 OFFCURVE",
"295 615 CURVE SMOOTH",
"489 615 OFFCURVE",
"583 493 OFFCURVE",
"583 308 CURVE SMOOTH",
"583 142 OFFCURVE",
"491 48 OFFCURVE",
"334 48 CURVE SMOOTH",
"281 48 OFFCURVE",
"247 51 OFFCURVE",
"213 58 CURVE",
"208 77 OFFCURVE",
"205 111 OFFCURVE",
"205 217 CURVE SMOOTH",
"205 442 LINE SMOOTH",
"205 553 OFFCURVE",
"206 582 OFFCURVE",
"209 607 CURVE"
);
}
);
};
color = -1;
layerId = "D75C065C-4EF6-4055-9CF2-70010DBCD897";
paths = (
{
closed = 1;
nodes = (
"41 618 LINE",
"67 619 OFFCURVE",
"102 612 OFFCURVE",
"109 608 CURVE",
"113 601 OFFCURVE",
"117 572 OFFCURVE",
"117 442 CURVE SMOOTH",
"117 217 LINE SMOOTH",
"117 87 OFFCURVE",
"112 60 OFFCURVE",
"109 54 CURVE",
"102 50 OFFCURVE",
"67 40 OFFCURVE",
"41 39 CURVE",
"43 -3 LINE",
"63 -1 OFFCURVE",
"146 2 OFFCURVE",
"184 2 CURVE SMOOTH",
"225 2 OFFCURVE",
"281 -1 OFFCURVE",
"324 -1 CURVE SMOOTH",
"523 -1 OFFCURVE",
"687 124 OFFCURVE",
"687 333 CURVE SMOOTH",
"687 532 OFFCURVE",
"553 661 OFFCURVE",
"309 661 CURVE SMOOTH",
"250 661 OFFCURVE",
"193 658 OFFCURVE",
"151 658 CURVE SMOOTH",
"118 658 OFFCURVE",
"78 659 OFFCURVE",
"43 660 CURVE"
);
},
{
closed = 1;
nodes = (
"233 611 OFFCURVE",
"265 614 OFFCURVE",
"297 614 CURVE SMOOTH",
"489 614 OFFCURVE",
"583 493 OFFCURVE",
"583 308 CURVE SMOOTH",
"583 142 OFFCURVE",
"491 50 OFFCURVE",
"331 50 CURVE SMOOTH",
"281 50 OFFCURVE",
"247 53 OFFCURVE",
"213 60 CURVE",
"208 79 OFFCURVE",
"205 111 OFFCURVE",
"205 217 CURVE SMOOTH",
"205 442 LINE SMOOTH",
"205 553 OFFCURVE",
"206 581 OFFCURVE",
"209 604 CURVE"
);
}
);
width = 747;
},
{
background = {
paths = (
{
closed = 1;
nodes = (
"32 612 LINE",
"60 611 OFFCURVE",
"92 606 OFFCURVE",
"103 598 CURVE",
"107 590 OFFCURVE",
"111 527 OFFCURVE",
"111 421 CURVE SMOOTH",
"111 239 LINE SMOOTH",
"111 133 OFFCURVE",
"107 70 OFFCURVE",
"103 62 CURVE",
"92 54 OFFCURVE",
"60 47 OFFCURVE",
"32 44 CURVE",
"35 -5 LINE",
"69 -1 OFFCURVE",
"142 2 OFFCURVE",
"218 2 CURVE SMOOTH",
"254 2 OFFCURVE",
"299 -1 OFFCURVE",
"357 -1 CURVE SMOOTH",
"545 -1 OFFCURVE",
"720 122 OFFCURVE",
"720 339 CURVE SMOOTH",
"720 538 OFFCURVE",
"577 661 OFFCURVE",
"345 661 CURVE SMOOTH",
"292 661 OFFCURVE",
"224 659 OFFCURVE",
"174 659 CURVE SMOOTH",
"129 659 OFFCURVE",
"69 659 OFFCURVE",
"35 661 CURVE"
);
},
{
closed = 1;
nodes = (
"273 596 OFFCURVE",
"297 599 OFFCURVE",
"327 599 CURVE SMOOTH",
"459 599 OFFCURVE",
"564 499 OFFCURVE",
"564 297 CURVE SMOOTH",
"564 139 OFFCURVE",
"491 64 OFFCURVE",
"363 64 CURVE SMOOTH",
"330 64 OFFCURVE",
"286 69 OFFCURVE",
"257 74 CURVE",
"254 88 OFFCURVE",
"249 143 OFFCURVE",
"249 239 CURVE SMOOTH",
"249 421 LINE SMOOTH",
"249 524 OFFCURVE",
"252 575 OFFCURVE",
"254 592 CURVE"
);
}
);
};
color = -1;
layerId = "6D340022-02C4-426D-A0D8-A7BFACBEB22E";
paths = (
{
closed = 1;
nodes = (
"32 605 LINE",
"60 604 OFFCURVE",
"92 599 OFFCURVE",
"103 591 CURVE",
"107 583 OFFCURVE",
"111 527 OFFCURVE",
"111 421 CURVE SMOOTH",
"111 239 LINE SMOOTH",
"111 133 OFFCURVE",
"107 77 OFFCURVE",
"103 69 CURVE",
"92 61 OFFCURVE",
"60 54 OFFCURVE",
"32 51 CURVE",
"35 -5 LINE",
"69 -1 OFFCURVE",
"142 2 OFFCURVE",
"218 2 CURVE SMOOTH",
"264 2 OFFCURVE",
"309 -1 OFFCURVE",
"357 -1 CURVE SMOOTH",
"545 -1 OFFCURVE",
"720 122 OFFCURVE",
"720 339 CURVE SMOOTH",
"720 538 OFFCURVE",
"577 661 OFFCURVE",
"345 661 CURVE SMOOTH",
"290 661 OFFCURVE",
"222 659 OFFCURVE",
"174 659 CURVE SMOOTH",
"129 659 OFFCURVE",
"69 659 OFFCURVE",
"35 661 CURVE"
);
},
{
closed = 1;
nodes = (
"273 595 OFFCURVE",
"297 598 OFFCURVE",
"330 598 CURVE SMOOTH",
"459 598 OFFCURVE",
"564 499 OFFCURVE",
"564 297 CURVE SMOOTH",
"564 139 OFFCURVE",
"491 66 OFFCURVE",
"363 66 CURVE SMOOTH",
"330 66 OFFCURVE",
"286 71 OFFCURVE",
"257 76 CURVE",
"254 90 OFFCURVE",
"249 143 OFFCURVE",
"249 239 CURVE SMOOTH",
"249 421 LINE SMOOTH",
"249 524 OFFCURVE",
"252 573 OFFCURVE",
"254 590 CURVE"
);
}
);
width = 774;
}
);
leftKerningGroup = B;
note = D;
rightKerningGroup = D;
unicode = 0044;
},
{
color = 4;
glyphname = E;
lastChange = "2018-04-23 14:49:54 +0000";
layers = (
{
background = {
paths = (
{
closed = 1;
nodes = (
"1372 153 LINE",
"1328 163 LINE",
"1298 78 OFFCURVE",
"1263 50 OFFCURVE",
"1186 50 CURVE SMOOTH",
"1072 50 LINE SMOOTH",
"1041 50 OFFCURVE",
"1022 52 OFFCURVE",
"1005 54 CURVE",
"1004 63 OFFCURVE",
"1002 115 OFFCURVE",
"1002 158 CURVE SMOOTH",
"1002 482 LINE SMOOTH",
"1002 526 OFFCURVE",
"1004 599 OFFCURVE",
"1005 608 CURVE",
"1022 610 OFFCURVE",
"1041 612 OFFCURVE",
"1072 612 CURVE SMOOTH",
"1175 612 LINE SMOOTH",
"1242 612 OFFCURVE",
"1268 591 OFFCURVE",
"1284 520 CURVE",
"1330 527 LINE",
"1305 664 LINE",
"1269 661 OFFCURVE",
"1237 660 OFFCURVE",
"1203 660 CURVE SMOOTH",
"958 660 LINE SMOOTH",
"925 660 OFFCURVE",
"875 659 OFFCURVE",
"840 661 CURVE",
"838 619 LINE",
"864 617 OFFCURVE",
"899 609 OFFCURVE",
"906 605 CURVE",
"910 598 OFFCURVE",
"914 572 OFFCURVE",
"914 442 CURVE SMOOTH",
"914 217 LINE SMOOTH",
"914 87 OFFCURVE",
"910 61 OFFCURVE",
"906 54 CURVE",
"899 50 OFFCURVE",
"864 40 OFFCURVE",
"838 39 CURVE",
"840 -3 LINE",
"875 0 OFFCURVE",
"925 0 OFFCURVE",
"958 0 CURVE SMOOTH",
"1227 0 LINE SMOOTH",
"1262 0 OFFCURVE",
"1290 -1 OFFCURVE",
"1324 -5 CURVE"
);
},
{
closed = 1;
nodes = (
"1251 232 LINE",
"1250 268 OFFCURVE",
"1248 308 OFFCURVE",
"1248 340 CURVE SMOOTH",
"1248 372 OFFCURVE",
"1250 411 OFFCURVE",
"1251 447 CURVE",
"1207 447 LINE",
"1205 424 OFFCURVE",
"1199 390 OFFCURVE",
"1191 369 CURVE",
"1184 366 OFFCURVE",
"1166 365 OFFCURVE",
"1154 365 CURVE SMOOTH",
"1052 365 LINE SMOOTH",
"1033 365 OFFCURVE",
"1012 366 OFFCURVE",
"995 367 CURVE",
"995 312 LINE",
"1012 313 OFFCURVE",
"1033 314 OFFCURVE",
"1052 314 CURVE SMOOTH",
"1154 314 LINE SMOOTH",
"1166 314 OFFCURVE",
"1184 313 OFFCURVE",
"1191 310 CURVE",
"1199 289 OFFCURVE",
"1205 255 OFFCURVE",
"1207 232 CURVE"
);
},
{
closed = 1;
nodes = (
"541 55 OFFCURVE",
"561 114 OFFCURVE",
"580 173 CURVE",
"534 179 LINE",
"507 119 OFFCURVE",
"480 70 OFFCURVE",
"465 53 CURVE",
"454 51 OFFCURVE",
"437 50 OFFCURVE",
"424 50 CURVE SMOOTH",
"385 50 LINE SMOOTH",
"357 50 OFFCURVE",
"315 51 OFFCURVE",
"295 52 CURVE",
"294 69 OFFCURVE",
"293 172 OFFCURVE",
"293 248 CURVE SMOOTH",
"293 413 LINE SMOOTH",
"293 513 OFFCURVE",
"297 589 OFFCURVE",
"298 606 CURVE",
"320 610 OFFCURVE",
"371 617 OFFCURVE",
"388 619 CURVE",
"386 663 LINE",
"351 660 OFFCURVE",
"281 658 OFFCURVE",
"248 658 CURVE SMOOTH",
"215 658 OFFCURVE",
"146 660 OFFCURVE",
"111 663 CURVE",
"109 619 LINE",
"126 617 OFFCURVE",
"177 610 OFFCURVE",
"199 606 CURVE",
"200 589 OFFCURVE",
"204 513 OFFCURVE",
"204 413 CURVE SMOOTH",
"204 248 LINE SMOOTH",
"204 172 OFFCURVE",
"203 69 OFFCURVE",
"202 52 CURVE",
"182 51 OFFCURVE",
"163 50 OFFCURVE",
"134 50 CURVE SMOOTH",
"95 50 LINE SMOOTH",
"82 50 OFFCURVE",
"66 51 OFFCURVE",
"55 53 CURVE",
"43 70 OFFCURVE",
"25 119 OFFCURVE",
"8 179 CURVE",
"-39 173 LINE",
"-30 114 OFFCURVE",
"-21 55 OFFCURVE",
"-14 -4 CURVE",
"22 -1 OFFCURVE",
"54 0 OFFCURVE",
"88 0 CURVE SMOOTH",
"423 0 LINE SMOOTH",
"457 0 OFFCURVE",
"488 -1 OFFCURVE",
"524 -4 CURVE"
);
}
);
};
color = -1;
layerId = "D75C065C-4EF6-4055-9CF2-70010DBCD897";
paths = (
{
closed = 1;
nodes = (
"570 153 LINE",
"522 163 LINE",
"497 109 OFFCURVE",
"477 71 OFFCURVE",
"465 54 CURVE",
"454 52 OFFCURVE",
"435 50 OFFCURVE",
"384 50 CURVE SMOOTH",
"272 50 LINE SMOOTH",
"241 50 OFFCURVE",
"222 52 OFFCURVE",
"205 54 CURVE",
"204 63 OFFCURVE",
"202 115 OFFCURVE",
"202 158 CURVE SMOOTH",
"202 482 LINE SMOOTH",
"202 526 OFFCURVE",
"204 599 OFFCURVE",
"205 608 CURVE",
"222 610 OFFCURVE",
"241 612 OFFCURVE",
"272 612 CURVE SMOOTH",
"405 612 LINE SMOOTH",
"418 612 OFFCURVE",
"434 611 OFFCURVE",
"445 609 CURVE",
"459 584 OFFCURVE",
"472 550 OFFCURVE",
"483 514 CURVE",
"531 521 LINE",
"510 664 LINE",
"474 661 OFFCURVE",
"442 660 OFFCURVE",
"408 660 CURVE SMOOTH",
"158 660 LINE SMOOTH",
"125 660 OFFCURVE",
"75 659 OFFCURVE",
"40 661 CURVE",
"38 619 LINE",
"64 617 OFFCURVE",
"99 609 OFFCURVE",
"106 605 CURVE",
"110 598 OFFCURVE",
"114 572 OFFCURVE",
"114 442 CURVE SMOOTH",
"114 217 LINE SMOOTH",
"114 87 OFFCURVE",
"110 61 OFFCURVE",
"106 54 CURVE",
"99 50 OFFCURVE",
"64 40 OFFCURVE",
"38 39 CURVE",
"40 -3 LINE",
"75 0 OFFCURVE",
"125 0 OFFCURVE",
"158 0 CURVE SMOOTH",
"430 0 LINE SMOOTH",
"465 0 OFFCURVE",
"493 -1 OFFCURVE",
"527 -5 CURVE"
);
},
{
closed = 1;
nodes = (
"451 232 LINE",
"449 268 OFFCURVE",
"448 308 OFFCURVE",
"448 340 CURVE SMOOTH",
"448 372 OFFCURVE",
"449 411 OFFCURVE",
"451 447 CURVE",
"405 447 LINE",
"402 424 OFFCURVE",
"397 390 OFFCURVE",
"391 369 CURVE",
"382 366 OFFCURVE",
"364 365 OFFCURVE",
"342 365 CURVE SMOOTH",
"252 365 LINE SMOOTH",
"233 365 OFFCURVE",
"212 366 OFFCURVE",
"195 367 CURVE",
"195 312 LINE",
"212 313 OFFCURVE",
"233 314 OFFCURVE",
"252 314 CURVE SMOOTH",
"342 314 LINE SMOOTH",
"364 314 OFFCURVE",
"382 313 OFFCURVE",
"391 310 CURVE",
"397 289 OFFCURVE",
"402 255 OFFCURVE",
"405 232 CURVE"
);
}
);
width = 585;
},
{
background = {
paths = (
{
closed = 1;
nodes = (
"1404 171 LINE",
"1352 185 LINE",
"1324 98 OFFCURVE",
"1282 62 OFFCURVE",
"1188 62 CURVE SMOOTH",
"1139 62 LINE SMOOTH",
"1097 62 OFFCURVE",
"1073 65 OFFCURVE",
"1048 69 CURVE",
"1046 84 OFFCURVE",
"1045 133 OFFCURVE",
"1045 199 CURVE SMOOTH",
"1045 461 LINE SMOOTH",
"1045 527 OFFCURVE",
"1046 582 OFFCURVE",
"1048 596 CURVE",
"1067 600 OFFCURVE",
"1095 602 OFFCURVE",
"1120 602 CURVE SMOOTH",
"1181 602 LINE SMOOTH",
"1246 602 OFFCURVE",
"1284 577 OFFCURVE",
"1311 497 CURVE",
"1363 505 LINE",
"1331 665 LINE",
"1293 663 OFFCURVE",
"1217 660 OFFCURVE",
"1173 660 CURVE SMOOTH",
"977 660 LINE SMOOTH",
"932 660 OFFCURVE",
"866 661 OFFCURVE",
"832 663 CURVE",
"829 607 LINE",
"857 606 OFFCURVE",
"889 599 OFFCURVE",
"900 591 CURVE",
"904 583 OFFCURVE",
"908 527 OFFCURVE",
"908 421 CURVE SMOOTH",
"908 239 LINE SMOOTH",
"908 133 OFFCURVE",
"904 77 OFFCURVE",
"900 69 CURVE",
"889 61 OFFCURVE",
"857 54 OFFCURVE",
"829 51 CURVE",
"832 -5 LINE",
"866 -1 OFFCURVE",
"932 0 OFFCURVE",
"977 0 CURVE SMOOTH",
"1196 0 LINE SMOOTH",
"1240 0 OFFCURVE",
"1316 -3 OFFCURVE",
"1354 -7 CURVE"
);
},
{
closed = 1;
nodes = (
"1285 227 LINE",
"1284 264 OFFCURVE",
"1282 305 OFFCURVE",
"1282 340 CURVE SMOOTH",
"1282 375 OFFCURVE",
"1284 413 OFFCURVE",
"1285 450 CURVE",
"1228 450 LINE",
"1226 427 OFFCURVE",
"1220 388 OFFCURVE",
"1215 375 CURVE",
"1206 374 OFFCURVE",
"1183 372 OFFCURVE",
"1155 372 CURVE SMOOTH",
"1086 372 LINE SMOOTH",
"1061 372 OFFCURVE",
"1038 374 OFFCURVE",
"1022 375 CURVE",
"1022 304 LINE",
"1038 305 OFFCURVE",
"1061 307 OFFCURVE",
"1086 307 CURVE SMOOTH",
"1155 307 LINE SMOOTH",
"1183 307 OFFCURVE",
"1206 305 OFFCURVE",
"1215 304 CURVE",
"1220 291 OFFCURVE",
"1226 250 OFFCURVE",
"1228 227 CURVE"
);
},
{
closed = 1;
nodes = (
"573 59 OFFCURVE",
"592 124 OFFCURVE",
"613 188 CURVE",
"555 194 LINE",
"529 142 OFFCURVE",
"506 95 OFFCURVE",
"487 66 CURVE",
"468 63 OFFCURVE",
"455 62 OFFCURVE",
"437 62 CURVE SMOOTH",
"385 62 LINE SMOOTH",
"368 62 OFFCURVE",
"349 63 OFFCURVE",
"337 65 CURVE",
"336 79 OFFCURVE",
"334 187 OFFCURVE",
"334 279 CURVE SMOOTH",
"334 401 LINE SMOOTH",
"334 490 OFFCURVE",
"338 563 OFFCURVE",
"342 591 CURVE",
"369 598 OFFCURVE",
"415 604 OFFCURVE",
"443 607 CURVE",
"440 665 LINE",
"396 661 OFFCURVE",
"311 660 OFFCURVE",
"266 660 CURVE SMOOTH",
"221 660 OFFCURVE",
"136 661 OFFCURVE",
"92 665 CURVE",
"89 607 LINE",
"117 604 OFFCURVE",
"163 598 OFFCURVE",
"190 591 CURVE",
"194 563 OFFCURVE",
"198 490 OFFCURVE",
"198 401 CURVE SMOOTH",
"198 279 LINE SMOOTH",
"198 187 OFFCURVE",
"196 79 OFFCURVE",
"195 65 CURVE",
"183 63 OFFCURVE",
"164 62 OFFCURVE",
"147 62 CURVE SMOOTH",
"109 62 LINE SMOOTH",
"91 62 OFFCURVE",
"78 63 OFFCURVE",
"60 66 CURVE",
"46 95 OFFCURVE",
"31 142 OFFCURVE",
"15 194 CURVE",
"-45 188 LINE",
"-35 124 OFFCURVE",
"-27 59 OFFCURVE",
"-20 -5 CURVE",
"13 -3 OFFCURVE",
"82 0 OFFCURVE",
"121 0 CURVE SMOOTH",
"414 0 LINE SMOOTH",
"453 0 OFFCURVE",
"522 -3 OFFCURVE",
"554 -5 CURVE"
);
}
);
};
color = -1;
layerId = "6D340022-02C4-426D-A0D8-A7BFACBEB22E";
paths = (
{
closed = 1;
nodes = (
"610 169 LINE",
"550 181 LINE",
"527 134 OFFCURVE",
"508 95 OFFCURVE",
"489 66 CURVE",
"470 63 OFFCURVE",
"457 62 OFFCURVE",
"409 62 CURVE SMOOTH",
"339 62 LINE SMOOTH",
"297 62 OFFCURVE",
"273 64 OFFCURVE",
"248 67 CURVE",
"246 83 OFFCURVE",
"245 133 OFFCURVE",
"245 199 CURVE SMOOTH",
"245 461 LINE SMOOTH",
"245 527 OFFCURVE",
"246 583 OFFCURVE",
"248 598 CURVE",
"267 601 OFFCURVE",
"295 602 OFFCURVE",
"320 602 CURVE SMOOTH",
"413 602 LINE SMOOTH",
"430 602 OFFCURVE",
"444 601 OFFCURVE",
"462 598 CURVE",
"477 569 OFFCURVE",
"487 538 OFFCURVE",
"503 497 CURVE",
"565 505 LINE",
"536 665 LINE",
"498 663 OFFCURVE",
"424 660 OFFCURVE",
"380 660 CURVE SMOOTH",
"177 660 LINE SMOOTH",
"132 660 OFFCURVE",
"66 661 OFFCURVE",
"32 663 CURVE",
"29 607 LINE",
"57 606 OFFCURVE",
"89 599 OFFCURVE",
"100 591 CURVE",
"104 583 OFFCURVE",
"108 527 OFFCURVE",
"108 421 CURVE SMOOTH",
"108 239 LINE SMOOTH",
"108 133 OFFCURVE",
"104 77 OFFCURVE",
"100 69 CURVE",
"89 61 OFFCURVE",
"57 54 OFFCURVE",
"29 51 CURVE",
"32 -5 LINE",
"66 -1 OFFCURVE",
"132 0 OFFCURVE",
"177 0 CURVE SMOOTH",
"418 0 LINE SMOOTH",
"462 0 OFFCURVE",
"523 -3 OFFCURVE",
"561 -6 CURVE"
);
},
{
closed = 1;
nodes = (
"482 226 LINE",
"481 263 OFFCURVE",
"479 304 OFFCURVE",
"479 339 CURVE SMOOTH",
"479 374 OFFCURVE",
"481 412 OFFCURVE",
"482 449 CURVE",
"423 449 LINE",
"420 426 OFFCURVE",
"414 387 OFFCURVE",
"410 374 CURVE",
"401 373 OFFCURVE",
"378 371 OFFCURVE",
"350 371 CURVE SMOOTH",
"286 371 LINE SMOOTH",
"261 371 OFFCURVE",
"238 373 OFFCURVE",
"222 374 CURVE",
"222 303 LINE",
"238 304 OFFCURVE",
"261 306 OFFCURVE",
"286 306 CURVE SMOOTH",
"350 306 LINE SMOOTH",
"378 306 OFFCURVE",
"401 304 OFFCURVE",
"410 303 CURVE",
"414 290 OFFCURVE",
"420 249 OFFCURVE",
"423 226 CURVE"
);
}
);
width = 612;
}
);
leftKerningGroup = B;
note = E;
rightKerningGroup = E;
unicode = 0045;
},
{
color = 4;
glyphname = F;
lastChange = "2018-04-23 14:49:54 +0000";
layers = (
{
background = {
paths = (
{
closed = 1;
nodes = (
"677 0 OFFCURVE",
"735 2 OFFCURVE",
"768 2 CURVE SMOOTH",
"801 2 OFFCURVE",
"860 0 OFFCURVE",
"895 -3 CURVE",
"897 41 LINE",
"869 44 OFFCURVE",
"818 53 OFFCURVE",
"809 54 CURVE",
"805 61 OFFCURVE",
"801 87 OFFCURVE",
"801 217 CURVE SMOOTH",
"801 482 LINE SMOOTH",
"801 526 OFFCURVE",
"803 599 OFFCURVE",
"804 608 CURVE",
"820 610 OFFCURVE",
"851 612 OFFCURVE",
"872 612 CURVE SMOOTH",
"962 612 LINE SMOOTH",
"1029 612 OFFCURVE",
"1055 591 OFFCURVE",
"1071 520 CURVE",
"1117 527 LINE",
"1092 664 LINE",
"1056 661 OFFCURVE",
"1024 660 OFFCURVE",
"990 660 CURVE SMOOTH",
"758 660 LINE SMOOTH",
"725 660 OFFCURVE",
"675 660 OFFCURVE",
"640 661 CURVE",
"638 619 LINE",
"664 618 OFFCURVE",
"699 609 OFFCURVE",
"706 605 CURVE",
"710 598 OFFCURVE",
"714 572 OFFCURVE",
"714 442 CURVE SMOOTH",
"714 217 LINE SMOOTH",
"714 87 OFFCURVE",
"710 61 OFFCURVE",
"706 54 CURVE",
"699 50 OFFCURVE",
"666 40 OFFCURVE",
"643 39 CURVE",
"645 -3 LINE"
);
},
{
closed = 1;
nodes = (
"1040 217 LINE",
"1039 257 OFFCURVE",
"1038 295 OFFCURVE",
"1038 331 CURVE SMOOTH",
"1038 367 OFFCURVE",
"1039 405 OFFCURVE",
"1040 444 CURVE",
"996 444 LINE",
"994 421 OFFCURVE",
"988 383 OFFCURVE",
"980 362 CURVE",
"973 359 OFFCURVE",
"955 358 OFFCURVE",
"943 358 CURVE SMOOTH",
"853 358 LINE SMOOTH",
"834 358 OFFCURVE",
"811 359 OFFCURVE",
"794 360 CURVE",
"794 303 LINE",
"811 304 OFFCURVE",
"834 305 OFFCURVE",
"853 305 CURVE SMOOTH",
"943 305 LINE SMOOTH",
"955 305 OFFCURVE",
"973 304 OFFCURVE",
"980 301 CURVE",
"988 280 OFFCURVE",
"994 244 OFFCURVE",
"996 217 CURVE"
);
},
{
closed = 1;
nodes = (
"552 153 LINE",
"504 163 LINE",
"479 109 OFFCURVE",
"459 71 OFFCURVE",
"447 54 CURVE",
"436 52 OFFCURVE",
"417 50 OFFCURVE",
"366 50 CURVE SMOOTH",
"254 50 LINE SMOOTH",
"223 50 OFFCURVE",
"204 52 OFFCURVE",
"187 54 CURVE",
"186 63 OFFCURVE",
"184 115 OFFCURVE",
"184 158 CURVE SMOOTH",
"184 482 LINE SMOOTH",
"184 526 OFFCURVE",
"186 599 OFFCURVE",
"187 608 CURVE",
"204 610 OFFCURVE",
"223 612 OFFCURVE",
"254 612 CURVE SMOOTH",
"387 612 LINE SMOOTH",
"400 612 OFFCURVE",
"416 611 OFFCURVE",
"427 609 CURVE",
"441 584 OFFCURVE",
"454 550 OFFCURVE",
"465 514 CURVE",
"513 521 LINE",
"492 664 LINE",
"456 661 OFFCURVE",
"424 660 OFFCURVE",
"390 660 CURVE SMOOTH",
"140 660 LINE SMOOTH",
"107 660 OFFCURVE",
"57 659 OFFCURVE",
"22 661 CURVE",
"20 619 LINE",
"46 617 OFFCURVE",
"81 609 OFFCURVE",
"88 605 CURVE",
"92 598 OFFCURVE",
"96 572 OFFCURVE",
"96 442 CURVE SMOOTH",
"96 217 LINE SMOOTH",
"96 87 OFFCURVE",
"92 61 OFFCURVE",
"88 54 CURVE",
"81 50 OFFCURVE",
"46 40 OFFCURVE",
"20 39 CURVE",
"22 -3 LINE",
"57 0 OFFCURVE",
"107 0 OFFCURVE",
"140 0 CURVE SMOOTH",
"412 0 LINE SMOOTH",
"447 0 OFFCURVE",
"475 -1 OFFCURVE",
"509 -5 CURVE"
);
},
{
closed = 1;
nodes = (
"433 227 LINE",
"431 263 OFFCURVE",
"430 303 OFFCURVE",
"430 335 CURVE SMOOTH",
"430 367 OFFCURVE",
"431 406 OFFCURVE",
"433 442 CURVE",
"387 442 LINE",
"384 419 OFFCURVE",
"379 385 OFFCURVE",
"373 364 CURVE",
"364 361 OFFCURVE",
"346 360 OFFCURVE",
"324 360 CURVE SMOOTH",
"234 360 LINE SMOOTH",
"215 360 OFFCURVE",
"194 361 OFFCURVE",
"177 362 CURVE",
"177 307 LINE",
"194 308 OFFCURVE",
"215 309 OFFCURVE",
"234 309 CURVE SMOOTH",
"324 309 LINE SMOOTH",
"346 309 OFFCURVE",
"364 308 OFFCURVE",
"373 305 CURVE",
"379 284 OFFCURVE",
"384 250 OFFCURVE",
"387 227 CURVE"
);
}
);
};
color = -1;
layerId = "D75C065C-4EF6-4055-9CF2-70010DBCD897";
paths = (
{
closed = 1;
nodes = (
"77 0 OFFCURVE",
"135 2 OFFCURVE",
"168 2 CURVE SMOOTH",
"201 2 OFFCURVE",
"260 0 OFFCURVE",
"295 -3 CURVE",
"297 41 LINE",
"269 44 OFFCURVE",
"218 53 OFFCURVE",
"209 54 CURVE",
"205 61 OFFCURVE",
"201 87 OFFCURVE",
"201 217 CURVE SMOOTH",
"201 482 LINE SMOOTH",
"201 526 OFFCURVE",
"203 599 OFFCURVE",
"204 608 CURVE",
"220 610 OFFCURVE",
"251 612 OFFCURVE",
"272 612 CURVE SMOOTH",
"387 612 LINE SMOOTH",
"400 612 OFFCURVE",
"416 611 OFFCURVE",
"427 609 CURVE",
"441 584 OFFCURVE",
"454 550 OFFCURVE",
"465 514 CURVE",
"513 521 LINE",
"492 664 LINE",
"456 661 OFFCURVE",
"424 660 OFFCURVE",
"390 660 CURVE SMOOTH",
"158 660 LINE SMOOTH",
"125 660 OFFCURVE",
"75 660 OFFCURVE",
"40 661 CURVE",
"38 619 LINE",
"64 618 OFFCURVE",
"99 609 OFFCURVE",
"106 605 CURVE",
"110 598 OFFCURVE",
"114 572 OFFCURVE",
"114 442 CURVE SMOOTH",
"114 217 LINE SMOOTH",
"114 87 OFFCURVE",
"110 61 OFFCURVE",
"106 54 CURVE",
"99 50 OFFCURVE",
"66 40 OFFCURVE",
"43 39 CURVE",
"45 -3 LINE"
);
},
{
closed = 1;
nodes = (
"433 222 LINE",
"431 260 OFFCURVE",
"430 302 OFFCURVE",
"430 334 CURVE SMOOTH",
"430 366 OFFCURVE",
"431 405 OFFCURVE",
"433 441 CURVE",
"387 441 LINE",
"384 418 OFFCURVE",
"379 384 OFFCURVE",
"373 363 CURVE",
"364 360 OFFCURVE",
"346 359 OFFCURVE",
"324 359 CURVE SMOOTH",
"234 359 LINE SMOOTH",
"215 359 OFFCURVE",
"194 360 OFFCURVE",
"177 361 CURVE",
"177 306 LINE",
"194 307 OFFCURVE",
"215 308 OFFCURVE",
"234 308 CURVE SMOOTH",
"324 308 LINE SMOOTH",
"346 308 OFFCURVE",
"364 307 OFFCURVE",
"373 304 CURVE",
"379 283 OFFCURVE",
"384 247 OFFCURVE",
"387 222 CURVE"
);
}
);
width = 540;
},
{
background = {
paths = (
{
closed = 1;
nodes = (
"868 -1 OFFCURVE",
"941 0 OFFCURVE",
"986 0 CURVE SMOOTH",
"1031 0 OFFCURVE",
"1106 -1 OFFCURVE",
"1140 -5 CURVE",
"1143 53 LINE",
"1115 56 OFFCURVE",
"1079 62 OFFCURVE",
"1052 69 CURVE",
"1048 77 OFFCURVE",
"1044 133 OFFCURVE",
"1044 199 CURVE SMOOTH",
"1044 461 LINE SMOOTH",
"1044 527 OFFCURVE",
"1044 581 OFFCURVE",
"1045 596 CURVE",
"1061 600 OFFCURVE",
"1089 602 OFFCURVE",
"1114 602 CURVE SMOOTH",
"1168 602 LINE SMOOTH",
"1233 602 OFFCURVE",
"1271 577 OFFCURVE",
"1298 497 CURVE",
"1350 505 LINE",
"1318 665 LINE",
"1280 663 OFFCURVE",
"1204 660 OFFCURVE",
"1160 660 CURVE SMOOTH",
"977 660 LINE SMOOTH",
"932 660 OFFCURVE",
"866 661 OFFCURVE",
"832 663 CURVE",
"829 607 LINE",
"857 606 OFFCURVE",
"889 599 OFFCURVE",
"900 591 CURVE",
"904 583 OFFCURVE",
"908 527 OFFCURVE",
"908 421 CURVE SMOOTH",
"908 239 LINE SMOOTH",
"908 133 OFFCURVE",
"904 77 OFFCURVE",
"900 69 CURVE",
"889 61 OFFCURVE",
"859 54 OFFCURVE",
"834 51 CURVE",
"837 -5 LINE"
);
},
{
closed = 1;
nodes = (
"1271 215 LINE",
"1270 253 OFFCURVE",
"1268 297 OFFCURVE",
"1268 332 CURVE SMOOTH",
"1268 367 OFFCURVE",
"1270 409 OFFCURVE",
"1271 447 CURVE",
"1214 447 LINE",
"1212 423 OFFCURVE",
"1206 381 OFFCURVE",
"1201 368 CURVE",
"1192 367 OFFCURVE",
"1169 365 OFFCURVE",
"1141 365 CURVE SMOOTH",
"1076 365 LINE SMOOTH",
"1058 365 OFFCURVE",
"1044 366 OFFCURVE",
"1034 367 CURVE",
"1034 297 LINE",
"1044 298 OFFCURVE",
"1058 299 OFFCURVE",
"1076 299 CURVE SMOOTH",
"1141 299 LINE SMOOTH",
"1169 299 OFFCURVE",
"1192 297 OFFCURVE",
"1201 296 CURVE",
"1206 283 OFFCURVE",
"1212 239 OFFCURVE",
"1214 215 CURVE"
);
},
{
closed = 1;
nodes = (
"592 169 LINE",
"532 181 LINE",
"509 134 OFFCURVE",
"490 95 OFFCURVE",
"471 66 CURVE",
"452 63 OFFCURVE",
"439 62 OFFCURVE",
"391 62 CURVE SMOOTH",
"321 62 LINE SMOOTH",
"279 62 OFFCURVE",
"255 64 OFFCURVE",
"230 67 CURVE",
"228 83 OFFCURVE",
"227 133 OFFCURVE",
"227 199 CURVE SMOOTH",
"227 461 LINE SMOOTH",
"227 527 OFFCURVE",
"228 583 OFFCURVE",
"230 598 CURVE",
"249 601 OFFCURVE",
"277 602 OFFCURVE",
"302 602 CURVE SMOOTH",
"395 602 LINE SMOOTH",
"412 602 OFFCURVE",
"426 601 OFFCURVE",
"444 598 CURVE",
"459 569 OFFCURVE",
"469 538 OFFCURVE",
"485 497 CURVE",
"547 505 LINE",
"518 665 LINE",
"480 663 OFFCURVE",
"406 660 OFFCURVE",
"362 660 CURVE SMOOTH",
"159 660 LINE SMOOTH",
"114 660 OFFCURVE",
"48 661 OFFCURVE",
"14 663 CURVE",
"11 607 LINE",
"39 606 OFFCURVE",
"71 599 OFFCURVE",
"82 591 CURVE",
"86 583 OFFCURVE",
"90 527 OFFCURVE",
"90 421 CURVE SMOOTH",
"90 239 LINE SMOOTH",
"90 133 OFFCURVE",
"86 77 OFFCURVE",
"82 69 CURVE",
"71 61 OFFCURVE",
"39 54 OFFCURVE",
"11 51 CURVE",
"14 -5 LINE",
"48 -1 OFFCURVE",
"114 0 OFFCURVE",
"159 0 CURVE SMOOTH",
"400 0 LINE SMOOTH",
"444 0 OFFCURVE",
"505 -3 OFFCURVE",
"543 -6 CURVE"
);
},
{
closed = 1;
nodes = (
"467 220 LINE",
"466 257 OFFCURVE",
"464 298 OFFCURVE",
"464 333 CURVE SMOOTH",
"464 368 OFFCURVE",
"466 406 OFFCURVE",
"467 443 CURVE",
"408 443 LINE",
"405 420 OFFCURVE",
"399 381 OFFCURVE",
"395 368 CURVE",
"386 367 OFFCURVE",
"363 365 OFFCURVE",
"335 365 CURVE SMOOTH",
"271 365 LINE SMOOTH",
"246 365 OFFCURVE",
"223 367 OFFCURVE",
"207 368 CURVE",
"207 297 LINE",
"223 298 OFFCURVE",
"246 300 OFFCURVE",
"271 300 CURVE SMOOTH",
"335 300 LINE SMOOTH",
"363 300 OFFCURVE",
"386 298 OFFCURVE",
"395 297 CURVE",
"399 284 OFFCURVE",
"405 243 OFFCURVE",
"408 220 CURVE"
);
}
);
};
color = -1;
layerId = "6D340022-02C4-426D-A0D8-A7BFACBEB22E";
paths = (
{
closed = 1;
nodes = (
"68 -1 OFFCURVE",
"141 0 OFFCURVE",
"186 0 CURVE SMOOTH",
"231 0 OFFCURVE",
"306 -1 OFFCURVE",
"340 -5 CURVE",
"343 53 LINE",
"315 56 OFFCURVE",
"279 62 OFFCURVE",
"252 69 CURVE",
"248 77 OFFCURVE",
"244 133 OFFCURVE",
"244 199 CURVE SMOOTH",
"244 461 LINE SMOOTH",
"244 527 OFFCURVE",
"244 581 OFFCURVE",
"245 596 CURVE",
"261 600 OFFCURVE",
"289 602 OFFCURVE",
"314 602 CURVE SMOOTH",
"395 602 LINE SMOOTH",
"412 602 OFFCURVE",
"426 601 OFFCURVE",
"444 598 CURVE",
"459 569 OFFCURVE",
"469 538 OFFCURVE",
"485 497 CURVE",
"547 505 LINE",
"518 665 LINE",
"480 663 OFFCURVE",
"406 660 OFFCURVE",
"362 660 CURVE SMOOTH",
"177 660 LINE SMOOTH",
"132 660 OFFCURVE",
"66 661 OFFCURVE",
"32 663 CURVE",
"29 607 LINE",
"57 606 OFFCURVE",
"89 599 OFFCURVE",
"100 591 CURVE",
"104 583 OFFCURVE",
"108 527 OFFCURVE",
"108 421 CURVE SMOOTH",
"108 239 LINE SMOOTH",
"108 133 OFFCURVE",
"104 77 OFFCURVE",
"100 69 CURVE",
"89 61 OFFCURVE",
"59 54 OFFCURVE",
"34 51 CURVE",
"37 -5 LINE"
);
},
{
closed = 1;
nodes = (
"467 216 LINE",
"466 255 OFFCURVE",
"464 298 OFFCURVE",
"464 333 CURVE SMOOTH",
"464 368 OFFCURVE",
"466 406 OFFCURVE",
"467 443 CURVE",
"408 443 LINE",
"405 420 OFFCURVE",
"399 381 OFFCURVE",
"395 368 CURVE",
"386 367 OFFCURVE",
"363 365 OFFCURVE",
"335 365 CURVE SMOOTH",
"271 365 LINE SMOOTH",
"246 365 OFFCURVE",
"223 367 OFFCURVE",
"207 368 CURVE",
"207 297 LINE",
"223 298 OFFCURVE",
"246 300 OFFCURVE",
"271 300 CURVE SMOOTH",
"335 300 LINE SMOOTH",
"363 300 OFFCURVE",
"386 298 OFFCURVE",
"395 297 CURVE",
"399 284 OFFCURVE",
"405 241 OFFCURVE",
"408 216 CURVE"
);
}
);
width = 567;
}
);
leftKerningGroup = B;
note = F;
rightKerningGroup = F;
unicode = 0046;
},
{
color = 4;
glyphname = G;
lastChange = "2018-04-23 14:49:54 +0000";
layers = (
{
background = {
paths = (
{
closed = 1;
nodes = (
"1291 -10 OFFCURVE",
"1378 15 OFFCURVE",
"1439 54 CURVE",
"1437 87 OFFCURVE",
"1436 119 OFFCURVE",
"1436 181 CURVE SMOOTH",
"1436 223 OFFCURVE",
"1439 251 OFFCURVE",
"1440 259 CURVE",
"1447 262 OFFCURVE",
"1469 267 OFFCURVE",
"1485 269 CURVE",
"1483 311 LINE",
"1463 310 OFFCURVE",
"1425 308 OFFCURVE",
"1393 308 CURVE SMOOTH",
"1360 308 OFFCURVE",
"1306 308 OFFCURVE",
"1270 310 CURVE",
"1269 267 LINE",
"1296 267 OFFCURVE",
"1335 260 OFFCURVE",
"1342 256 CURVE",
"1346 249 OFFCURVE",
"1350 223 OFFCURVE",
"1350 121 CURVE SMOOTH",
"1350 26 LINE",
"1377 87 LINE",
"1333 55 OFFCURVE",
"1277 40 OFFCURVE",
"1230 40 CURVE SMOOTH",
"1078 40 OFFCURVE",
"967 147 OFFCURVE",
"967 341 CURVE SMOOTH",
"967 506 OFFCURVE",
"1054 623 OFFCURVE",
"1208 623 CURVE SMOOTH",
"1292 623 OFFCURVE",
"1361 586 OFFCURVE",
"1384 496 CURVE",
"1428 496 LINE",
"1416 637 LINE",
"1369 655 OFFCURVE",
"1296 670 OFFCURVE",
"1219 670 CURVE SMOOTH",
"1006 670 OFFCURVE",
"858 520 OFFCURVE",
"858 326 CURVE SMOOTH",
"858 101 OFFCURVE",
"1023 -10 OFFCURVE",
"1223 -10 CURVE SMOOTH"
);
},
{
closed = 1;
nodes = (
"489 -10 OFFCURVE",
"562 10 OFFCURVE",
"613 37 CURVE",
"625 81 OFFCURVE",
"636 130 OFFCURVE",
"644 176 CURVE",
"596 181 LINE",
"577 135 OFFCURVE",
"563 106 OFFCURVE",
"545 74 CURVE",
"509 54 OFFCURVE",
"472 44 OFFCURVE",
"422 44 CURVE SMOOTH",
"283 44 OFFCURVE",
"171 147 OFFCURVE",
"171 341 CURVE SMOOTH",
"171 488 OFFCURVE",
"242 618 OFFCURVE",
"417 618 CURVE SMOOTH",
"460 618 OFFCURVE",
"516 607 OFFCURVE",
"544 586 CURVE",
"558 553 OFFCURVE",
"568 518 OFFCURVE",
"577 483 CURVE",
"624 487 LINE",
"616 636 LINE",
"563 658 OFFCURVE",
"486 670 OFFCURVE",
"427 670 CURVE SMOOTH",
"192 670 OFFCURVE",
"62 505 OFFCURVE",
"62 326 CURVE SMOOTH",
"62 101 OFFCURVE",
"223 -10 OFFCURVE",
"414 -10 CURVE SMOOTH"
);
}
);
};
color = -1;
guideLines = (
{
angle = 90;
position = "{636, 206}";
}
);
layerId = "D75C065C-4EF6-4055-9CF2-70010DBCD897";
paths = (
{
closed = 1;
nodes = (
"491 -10 OFFCURVE",
"578 15 OFFCURVE",
"639 54 CURVE",
"637 87 OFFCURVE",
"636 119 OFFCURVE",
"636 181 CURVE SMOOTH",
"636 223 OFFCURVE",
"639 251 OFFCURVE",
"640 259 CURVE",
"647 262 OFFCURVE",
"669 267 OFFCURVE",
"685 269 CURVE",
"683 311 LINE",
"663 310 OFFCURVE",
"625 308 OFFCURVE",
"593 308 CURVE SMOOTH",
"560 308 OFFCURVE",
"506 308 OFFCURVE",
"470 310 CURVE",
"469 267 LINE",
"496 266 OFFCURVE",
"535 260 OFFCURVE",
"542 256 CURVE",
"546 249 OFFCURVE",
"550 223 OFFCURVE",
"550 121 CURVE SMOOTH",
"550 26 LINE",
"580 90 LINE",
"536 56 OFFCURVE",
"477 43 OFFCURVE",
"430 43 CURVE SMOOTH",
"282 43 OFFCURVE",
"167 147 OFFCURVE",
"167 341 CURVE SMOOTH",
"167 488 OFFCURVE",
"242 618 OFFCURVE",
"417 618 CURVE SMOOTH",
"460 618 OFFCURVE",
"516 607 OFFCURVE",
"544 586 CURVE",
"558 555 OFFCURVE",
"568 521 OFFCURVE",
"577 488 CURVE",
"624 492 LINE",
"616 636 LINE",
"563 658 OFFCURVE",
"486 670 OFFCURVE",
"427 670 CURVE SMOOTH",
"192 670 OFFCURVE",
"58 505 OFFCURVE",
"58 326 CURVE SMOOTH",
"58 101 OFFCURVE",
"222 -10 OFFCURVE",
"423 -10 CURVE SMOOTH"
);
}
);
width = 721;
},
{
background = {
paths = (
{
closed = 1;
nodes = (
"1301 -10 OFFCURVE",
"1386 14 OFFCURVE",
"1449 55 CURVE",
"1447 97 OFFCURVE",
"1445 119 OFFCURVE",
"1445 161 CURVE SMOOTH",
"1445 197 OFFCURVE",
"1445 233 OFFCURVE",
"1448 241 CURVE",
"1457 249 OFFCURVE",
"1479 256 OFFCURVE",
"1499 259 CURVE",
"1496 313 LINE",
"1472 311 OFFCURVE",
"1419 309 OFFCURVE",
"1368 309 CURVE SMOOTH",
"1316 309 OFFCURVE",
"1265 310 OFFCURVE",
"1229 312 CURVE",
"1228 257 LINE",
"1258 256 OFFCURVE",
"1289 249 OFFCURVE",
"1301 241 CURVE",
"1305 233 OFFCURVE",
"1311 197 OFFCURVE",
"1311 121 CURVE SMOOTH",
"1311 25 LINE",
"1330 77 LINE",
"1302 65 OFFCURVE",
"1268 58 OFFCURVE",
"1240 58 CURVE SMOOTH",
"1113 58 OFFCURVE",
"1015 164 OFFCURVE",
"1015 355 CURVE SMOOTH",
"1015 507 OFFCURVE",
"1094 608 OFFCURVE",
"1215 608 CURVE SMOOTH",
"1294 608 OFFCURVE",
"1349 570 OFFCURVE",
"1375 483 CURVE",
"1434 483 LINE",
"1425 632 LINE",
"1374 656 OFFCURVE",
"1294 670 OFFCURVE",
"1226 670 CURVE SMOOTH",
"1008 670 OFFCURVE",
"851 525 OFFCURVE",
"851 318 CURVE SMOOTH",
"851 107 OFFCURVE",
"1000 -10 OFFCURVE",
"1226 -10 CURVE SMOOTH"
);
},
{
closed = 1;
nodes = (
"502 -10 OFFCURVE",
"585 15 OFFCURVE",
"630 44 CURVE",
"643 93 OFFCURVE",
"653 142 OFFCURVE",
"661 191 CURVE",
"596 200 LINE",
"584 165 OFFCURVE",
"572 131 OFFCURVE",
"555 96 CURVE",
"527 73 OFFCURVE",
"482 61 OFFCURVE",
"442 61 CURVE SMOOTH",
"318 61 OFFCURVE",
"219 165 OFFCURVE",
"219 354 CURVE SMOOTH",
"219 494 OFFCURVE",
"291 602 OFFCURVE",
"431 602 CURVE SMOOTH",
"461 602 OFFCURVE",
"503 595 OFFCURVE",
"535 577 CURVE",
"550 540 OFFCURVE",
"562 501 OFFCURVE",
"574 463 CURVE",
"633 466 LINE",
"625 633 LINE",
"580 655 OFFCURVE",
"497 670 OFFCURVE",
"443 670 CURVE SMOOTH",
"213 670 OFFCURVE",
"55 527 OFFCURVE",
"55 320 CURVE SMOOTH",
"55 107 OFFCURVE",
"207 -10 OFFCURVE",
"419 -10 CURVE SMOOTH"
);
}
);
};
color = -1;
guideLines = (
{
angle = 90;
position = "{645, 206}";
}
);
layerId = "6D340022-02C4-426D-A0D8-A7BFACBEB22E";
paths = (
{
closed = 1;
nodes = (
"494 -10 OFFCURVE",
"585 16 OFFCURVE",
"648 58 CURVE",
"646 99 OFFCURVE",
"645 129 OFFCURVE",
"645 161 CURVE SMOOTH",
"645 197 OFFCURVE",
"645 233 OFFCURVE",
"648 241 CURVE",
"657 249 OFFCURVE",
"679 256 OFFCURVE",
"699 259 CURVE",
"696 313 LINE",
"672 311 OFFCURVE",
"619 309 OFFCURVE",
"568 309 CURVE SMOOTH",
"516 309 OFFCURVE",
"465 310 OFFCURVE",
"429 312 CURVE",
"428 257 LINE",
"458 255 OFFCURVE",
"489 249 OFFCURVE",
"501 241 CURVE",
"505 233 OFFCURVE",
"511 197 OFFCURVE",
"511 121 CURVE SMOOTH",
"511 25 LINE",
"532 85 LINE",
"504 67 OFFCURVE",
"468 59 OFFCURVE",
"442 59 CURVE SMOOTH",
"316 59 OFFCURVE",
"215 165 OFFCURVE",
"215 355 CURVE SMOOTH",
"215 494 OFFCURVE",
"291 602 OFFCURVE",
"431 602 CURVE SMOOTH",
"461 602 OFFCURVE",
"503 595 OFFCURVE",
"535 577 CURVE",
"550 543 OFFCURVE",
"561 510 OFFCURVE",
"572 475 CURVE",
"631 478 LINE",
"625 633 LINE",
"580 655 OFFCURVE",
"497 670 OFFCURVE",
"443 670 CURVE SMOOTH",
"213 670 OFFCURVE",
"51 527 OFFCURVE",
"51 318 CURVE SMOOTH",
"51 107 OFFCURVE",
"205 -10 OFFCURVE",
"419 -10 CURVE SMOOTH"
);
}
);
width = 729;
}
);
leftKerningGroup = C;
note = G;
rightKerningGroup = G;
unicode = 0047;
},
{
color = 3;
glyphname = H;
lastChange = "2018-04-23 14:49:54 +0000";
layers = (
{
background = {
paths = (
{
closed = 1;
nodes = (
"230 313 OFFCURVE",
"283 314 OFFCURVE",
"361 314 CURVE SMOOTH",
"439 314 OFFCURVE",
"490 313 OFFCURVE",
"524 310 CURVE",
"524 368 LINE",
"494 366 OFFCURVE",
"439 365 OFFCURVE",
"361 365 CURVE SMOOTH",
"283 365 OFFCURVE",
"226 366 OFFCURVE",
"196 368 CURVE",
"196 310 LINE"
);
},
{
closed = 1;
nodes = (
"203 442 LINE SMOOTH",
"203 572 OFFCURVE",
"207 604 OFFCURVE",
"211 611 CURVE",
"218 615 OFFCURVE",
"253 625 OFFCURVE",
"279 626 CURVE",
"277 662 LINE",
"242 659 OFFCURVE",
"192 657 OFFCURVE",
"159 657 CURVE SMOOTH",
"126 657 OFFCURVE",
"76 659 OFFCURVE",
"41 662 CURVE",
"39 626 LINE",
"65 625 OFFCURVE",
"100 615 OFFCURVE",
"107 611 CURVE",
"111 604 OFFCURVE",
"115 572 OFFCURVE",
"115 442 CURVE SMOOTH",
"115 217 LINE SMOOTH",
"115 87 OFFCURVE",
"111 55 OFFCURVE",
"107 48 CURVE",
"100 44 OFFCURVE",
"65 34 OFFCURVE",
"39 33 CURVE",
"41 -3 LINE",
"76 0 OFFCURVE",
"126 2 OFFCURVE",
"159 2 CURVE SMOOTH",
"192 2 OFFCURVE",
"242 0 OFFCURVE",
"277 -3 CURVE",
"279 33 LINE",
"253 34 OFFCURVE",
"218 44 OFFCURVE",
"211 48 CURVE",
"207 55 OFFCURVE",
"203 87 OFFCURVE",
"203 217 CURVE SMOOTH"
);
},
{
closed = 1;
nodes = (
"605 442 LINE SMOOTH",
"605 572 OFFCURVE",
"609 604 OFFCURVE",
"613 611 CURVE",
"620 615 OFFCURVE",
"655 625 OFFCURVE",
"681 626 CURVE",
"679 662 LINE",
"644 659 OFFCURVE",
"594 657 OFFCURVE",
"561 657 CURVE SMOOTH",
"528 657 OFFCURVE",
"478 659 OFFCURVE",
"443 662 CURVE",
"441 626 LINE",
"467 625 OFFCURVE",
"502 615 OFFCURVE",
"509 611 CURVE",
"513 604 OFFCURVE",
"517 572 OFFCURVE",
"517 442 CURVE SMOOTH",
"517 217 LINE SMOOTH",
"517 87 OFFCURVE",
"513 55 OFFCURVE",
"509 48 CURVE",
"502 44 OFFCURVE",
"467 34 OFFCURVE",
"441 33 CURVE",
"443 -3 LINE",
"478 0 OFFCURVE",
"528 2 OFFCURVE",
"561 2 CURVE SMOOTH",
"594 2 OFFCURVE",
"644 0 OFFCURVE",
"679 -3 CURVE",
"681 33 LINE",
"655 34 OFFCURVE",
"620 44 OFFCURVE",
"613 48 CURVE",
"609 55 OFFCURVE",
"605 87 OFFCURVE",
"605 217 CURVE SMOOTH"
);
}
);
};
color = -1;
layerId = "D75C065C-4EF6-4055-9CF2-70010DBCD897";
paths = (
{
closed = 1;
nodes = (
"230 312 OFFCURVE",
"283 313 OFFCURVE",
"361 313 CURVE SMOOTH",
"439 313 OFFCURVE",
"490 312 OFFCURVE",
"524 309 CURVE",
"524 369 LINE",
"494 367 OFFCURVE",
"439 366 OFFCURVE",
"361 366 CURVE SMOOTH",
"283 366 OFFCURVE",
"226 367 OFFCURVE",
"196 369 CURVE",
"196 309 LINE"
);
},
{
closed = 1;
nodes = (
"203 442 LINE SMOOTH",
"203 572 OFFCURVE",
"207 598 OFFCURVE",
"211 605 CURVE",
"218 609 OFFCURVE",
"253 619 OFFCURVE",
"279 619 CURVE",
"277 661 LINE",
"242 659 OFFCURVE",
"192 657 OFFCURVE",
"159 657 CURVE SMOOTH",
"126 657 OFFCURVE",
"76 659 OFFCURVE",
"41 661 CURVE",
"39 619 LINE",
"65 619 OFFCURVE",
"100 609 OFFCURVE",
"107 605 CURVE",
"111 598 OFFCURVE",
"115 572 OFFCURVE",
"115 442 CURVE SMOOTH",
"115 217 LINE SMOOTH",
"115 87 OFFCURVE",
"111 61 OFFCURVE",
"107 54 CURVE",
"100 50 OFFCURVE",
"65 40 OFFCURVE",
"39 39 CURVE",
"41 -3 LINE",
"76 0 OFFCURVE",
"126 2 OFFCURVE",
"159 2 CURVE SMOOTH",
"192 2 OFFCURVE",
"242 0 OFFCURVE",
"277 -3 CURVE",
"279 39 LINE",
"253 40 OFFCURVE",
"218 50 OFFCURVE",
"211 54 CURVE",
"207 61 OFFCURVE",
"203 87 OFFCURVE",
"203 217 CURVE SMOOTH"
);
},
{
closed = 1;
nodes = (
"605 442 LINE SMOOTH",
"605 572 OFFCURVE",
"609 598 OFFCURVE",
"613 605 CURVE",
"620 609 OFFCURVE",
"655 619 OFFCURVE",
"681 619 CURVE",
"679 661 LINE",
"644 659 OFFCURVE",
"594 657 OFFCURVE",
"561 657 CURVE SMOOTH",
"528 657 OFFCURVE",
"478 659 OFFCURVE",
"443 661 CURVE",
"441 619 LINE",
"467 619 OFFCURVE",
"502 609 OFFCURVE",
"509 605 CURVE",
"513 598 OFFCURVE",
"517 572 OFFCURVE",
"517 442 CURVE SMOOTH",
"517 217 LINE SMOOTH",
"517 87 OFFCURVE",
"513 61 OFFCURVE",
"509 54 CURVE",
"502 50 OFFCURVE",
"467 40 OFFCURVE",
"441 39 CURVE",
"443 -3 LINE",
"478 0 OFFCURVE",
"528 2 OFFCURVE",
"561 2 CURVE SMOOTH",
"594 2 OFFCURVE",
"644 0 OFFCURVE",
"679 -3 CURVE",
"681 39 LINE",
"655 40 OFFCURVE",
"620 50 OFFCURVE",
"613 54 CURVE",
"609 61 OFFCURVE",
"605 87 OFFCURVE",
"605 217 CURVE SMOOTH"
);
}
);
width = 720;
},
{
background = {
paths = (
{
closed = 1;
nodes = (
"256 304 OFFCURVE",
"302 306 OFFCURVE",
"374 306 CURVE SMOOTH",
"446 306 OFFCURVE",
"492 304 OFFCURVE",
"524 302 CURVE",
"524 376 LINE",
"492 374 OFFCURVE",
"446 372 OFFCURVE",
"374 372 CURVE SMOOTH",
"302 372 OFFCURVE",
"256 374 OFFCURVE",
"224 376 CURVE",
"224 302 LINE"
);
},
{
closed = 1;
nodes = (
"246 421 LINE SMOOTH",
"246 527 OFFCURVE",
"250 590 OFFCURVE",
"254 598 CURVE",
"265 606 OFFCURVE",
"297 613 OFFCURVE",
"325 614 CURVE",
"322 663 LINE",
"288 661 OFFCURVE",
"231 658 OFFCURVE",
"177 658 CURVE SMOOTH",
"123 658 OFFCURVE",
"66 661 OFFCURVE",
"32 663 CURVE",
"29 614 LINE",
"57 613 OFFCURVE",
"89 606 OFFCURVE",
"100 598 CURVE",
"104 590 OFFCURVE",
"108 527 OFFCURVE",
"108 421 CURVE SMOOTH",
"108 239 LINE SMOOTH",
"108 133 OFFCURVE",
"104 70 OFFCURVE",
"100 62 CURVE",
"89 54 OFFCURVE",
"57 47 OFFCURVE",
"29 44 CURVE",
"32 -5 LINE",
"66 -1 OFFCURVE",
"123 2 OFFCURVE",
"177 2 CURVE SMOOTH",
"231 2 OFFCURVE",
"288 -1 OFFCURVE",
"322 -5 CURVE",
"325 44 LINE",
"297 47 OFFCURVE",
"265 54 OFFCURVE",
"254 62 CURVE",
"250 70 OFFCURVE",
"246 133 OFFCURVE",
"246 239 CURVE SMOOTH"
);
},
{
closed = 1;
nodes = (
"640 421 LINE SMOOTH",
"640 527 OFFCURVE",
"644 590 OFFCURVE",
"648 598 CURVE",
"659 606 OFFCURVE",
"691 613 OFFCURVE",
"719 614 CURVE",
"716 663 LINE",
"682 661 OFFCURVE",
"625 658 OFFCURVE",
"571 658 CURVE SMOOTH",
"517 658 OFFCURVE",
"460 661 OFFCURVE",
"426 663 CURVE",
"423 614 LINE",
"451 613 OFFCURVE",
"483 606 OFFCURVE",
"494 598 CURVE",
"498 590 OFFCURVE",
"502 527 OFFCURVE",
"502 421 CURVE SMOOTH",
"502 239 LINE SMOOTH",
"502 133 OFFCURVE",
"498 70 OFFCURVE",
"494 62 CURVE",
"483 54 OFFCURVE",
"451 47 OFFCURVE",
"423 44 CURVE",
"426 -5 LINE",
"460 -1 OFFCURVE",
"517 2 OFFCURVE",
"571 2 CURVE SMOOTH",
"625 2 OFFCURVE",
"682 -1 OFFCURVE",
"716 -5 CURVE",
"719 44 LINE",
"691 47 OFFCURVE",
"659 54 OFFCURVE",
"648 62 CURVE",
"644 70 OFFCURVE",
"640 133 OFFCURVE",
"640 239 CURVE SMOOTH"
);
}
);
};
color = -1;
layerId = "6D340022-02C4-426D-A0D8-A7BFACBEB22E";
paths = (
{
closed = 1;
nodes = (
"256 302 OFFCURVE",
"302 304 OFFCURVE",
"374 304 CURVE SMOOTH",
"446 304 OFFCURVE",
"492 302 OFFCURVE",
"524 300 CURVE",
"524 377 LINE",
"492 375 OFFCURVE",
"446 373 OFFCURVE",
"374 373 CURVE SMOOTH",
"302 373 OFFCURVE",
"256 375 OFFCURVE",
"224 377 CURVE",
"224 300 LINE"
);
},
{
closed = 1;
nodes = (
"246 421 LINE SMOOTH",
"246 527 OFFCURVE",
"250 583 OFFCURVE",
"254 591 CURVE",
"265 599 OFFCURVE",
"297 606 OFFCURVE",
"325 607 CURVE",
"322 663 LINE",
"288 661 OFFCURVE",
"231 658 OFFCURVE",
"177 658 CURVE SMOOTH",
"123 658 OFFCURVE",
"66 661 OFFCURVE",
"32 663 CURVE",
"29 607 LINE",
"57 606 OFFCURVE",
"89 599 OFFCURVE",
"100 591 CURVE",
"104 583 OFFCURVE",
"108 527 OFFCURVE",
"108 421 CURVE SMOOTH",
"108 239 LINE SMOOTH",
"108 133 OFFCURVE",
"104 77 OFFCURVE",
"100 69 CURVE",
"89 61 OFFCURVE",
"57 54 OFFCURVE",
"29 51 CURVE",
"32 -5 LINE",
"66 -1 OFFCURVE",
"123 2 OFFCURVE",
"177 2 CURVE SMOOTH",
"231 2 OFFCURVE",
"288 -1 OFFCURVE",
"322 -5 CURVE",
"325 51 LINE",
"297 54 OFFCURVE",
"265 61 OFFCURVE",
"254 69 CURVE",
"250 77 OFFCURVE",
"246 133 OFFCURVE",
"246 239 CURVE SMOOTH"
);
},
{
closed = 1;
nodes = (
"640 421 LINE SMOOTH",
"640 527 OFFCURVE",
"644 583 OFFCURVE",
"648 591 CURVE",
"659 599 OFFCURVE",
"691 606 OFFCURVE",
"719 607 CURVE",
"716 663 LINE",
"682 661 OFFCURVE",
"625 658 OFFCURVE",
"571 658 CURVE SMOOTH",
"517 658 OFFCURVE",
"460 661 OFFCURVE",
"426 663 CURVE",
"423 607 LINE",
"451 606 OFFCURVE",
"483 599 OFFCURVE",
"494 591 CURVE",
"498 583 OFFCURVE",
"502 527 OFFCURVE",
"502 421 CURVE SMOOTH",
"502 239 LINE SMOOTH",
"502 133 OFFCURVE",
"498 77 OFFCURVE",
"494 69 CURVE",
"483 61 OFFCURVE",
"451 54 OFFCURVE",
"423 51 CURVE",
"426 -5 LINE",
"460 -1 OFFCURVE",
"517 2 OFFCURVE",
"571 2 CURVE SMOOTH",
"625 2 OFFCURVE",
"682 -1 OFFCURVE",
"716 -5 CURVE",
"719 51 LINE",
"691 54 OFFCURVE",
"659 61 OFFCURVE",
"648 69 CURVE",
"644 77 OFFCURVE",
"640 133 OFFCURVE",
"640 239 CURVE SMOOTH"
);
}
);
width = 747;
}
);
leftKerningGroup = B;
note = H;
rightKerningGroup = H;
unicode = 0048;
},
{
color = 3;
glyphname = I;
lastChange = "2018-04-23 14:49:54 +0000";
layers = (
{
background = {
paths = (
{
closed = 1;
nodes = (
"202 442 LINE SMOOTH",
"202 572 OFFCURVE",
"206 604 OFFCURVE",
"210 611 CURVE",
"217 615 OFFCURVE",
"252 625 OFFCURVE",
"278 625 CURVE",
"276 661 LINE",
"241 659 OFFCURVE",
"191 657 OFFCURVE",
"158 657 CURVE SMOOTH",
"125 657 OFFCURVE",
"75 659 OFFCURVE",
"40 661 CURVE",
"38 625 LINE",
"64 625 OFFCURVE",
"99 615 OFFCURVE",
"106 611 CURVE",
"110 604 OFFCURVE",
"114 572 OFFCURVE",
"114 442 CURVE SMOOTH",
"114 217 LINE SMOOTH",
"114 87 OFFCURVE",
"110 55 OFFCURVE",
"106 48 CURVE",
"99 44 OFFCURVE",
"64 34 OFFCURVE",
"38 33 CURVE",
"40 -3 LINE",
"75 0 OFFCURVE",
"125 2 OFFCURVE",
"158 2 CURVE SMOOTH",
"191 2 OFFCURVE",
"241 0 OFFCURVE",
"276 -3 CURVE",
"278 33 LINE",
"252 34 OFFCURVE",
"217 44 OFFCURVE",
"210 48 CURVE",
"206 55 OFFCURVE",
"202 87 OFFCURVE",
"202 217 CURVE SMOOTH"
);
}
);
};
color = -1;
layerId = "D75C065C-4EF6-4055-9CF2-70010DBCD897";
paths = (
{
closed = 1;
nodes = (
"202 442 LINE SMOOTH",
"202 572 OFFCURVE",
"206 598 OFFCURVE",
"210 605 CURVE",
"217 609 OFFCURVE",
"252 619 OFFCURVE",
"278 619 CURVE",
"276 661 LINE",
"241 659 OFFCURVE",
"191 657 OFFCURVE",
"158 657 CURVE SMOOTH",
"125 657 OFFCURVE",
"75 659 OFFCURVE",
"40 661 CURVE",
"38 619 LINE",
"64 619 OFFCURVE",
"99 609 OFFCURVE",
"106 605 CURVE",
"110 598 OFFCURVE",
"114 572 OFFCURVE",
"114 442 CURVE SMOOTH",
"114 217 LINE SMOOTH",
"114 87 OFFCURVE",
"110 61 OFFCURVE",
"106 54 CURVE",
"99 50 OFFCURVE",
"64 40 OFFCURVE",
"38 39 CURVE",
"40 -3 LINE",
"75 0 OFFCURVE",
"125 2 OFFCURVE",
"158 2 CURVE SMOOTH",
"191 2 OFFCURVE",
"241 0 OFFCURVE",
"276 -3 CURVE",
"278 39 LINE",
"252 40 OFFCURVE",
"217 50 OFFCURVE",
"210 54 CURVE",
"206 61 OFFCURVE",
"202 87 OFFCURVE",
"202 217 CURVE SMOOTH"
);
}
);
width = 315;
},
{
background = {
paths = (
{
closed = 1;
nodes = (
"245 421 LINE SMOOTH",
"245 527 OFFCURVE",
"249 590 OFFCURVE",
"253 598 CURVE",
"264 606 OFFCURVE",
"296 613 OFFCURVE",
"324 614 CURVE",
"321 663 LINE",
"287 661 OFFCURVE",
"230 658 OFFCURVE",
"176 658 CURVE SMOOTH",
"122 658 OFFCURVE",
"65 661 OFFCURVE",
"31 663 CURVE",
"28 614 LINE",
"56 613 OFFCURVE",
"88 606 OFFCURVE",
"99 598 CURVE",
"103 590 OFFCURVE",
"107 527 OFFCURVE",
"107 421 CURVE SMOOTH",
"107 239 LINE SMOOTH",
"107 133 OFFCURVE",
"103 70 OFFCURVE",
"99 62 CURVE",
"88 54 OFFCURVE",
"56 47 OFFCURVE",
"28 44 CURVE",
"31 -5 LINE",
"65 -1 OFFCURVE",
"122 2 OFFCURVE",
"176 2 CURVE SMOOTH",
"230 2 OFFCURVE",
"287 -1 OFFCURVE",
"321 -5 CURVE",
"324 44 LINE",
"296 47 OFFCURVE",
"264 54 OFFCURVE",
"253 62 CURVE",
"249 70 OFFCURVE",
"245 133 OFFCURVE",
"245 239 CURVE SMOOTH"
);
}
);
};
color = -1;
layerId = "6D340022-02C4-426D-A0D8-A7BFACBEB22E";
paths = (
{
closed = 1;
nodes = (
"245 421 LINE SMOOTH",
"245 527 OFFCURVE",
"249 583 OFFCURVE",
"253 591 CURVE",
"264 599 OFFCURVE",
"296 606 OFFCURVE",
"324 607 CURVE",
"321 663 LINE",
"287 661 OFFCURVE",
"230 659 OFFCURVE",
"176 659 CURVE SMOOTH",
"122 659 OFFCURVE",
"65 661 OFFCURVE",
"31 663 CURVE",
"28 607 LINE",
"56 606 OFFCURVE",
"88 599 OFFCURVE",
"99 591 CURVE",
"103 583 OFFCURVE",
"107 527 OFFCURVE",
"107 421 CURVE SMOOTH",
"107 239 LINE SMOOTH",
"107 133 OFFCURVE",
"103 77 OFFCURVE",
"99 69 CURVE",
"88 61 OFFCURVE",
"56 54 OFFCURVE",
"28 51 CURVE",
"31 -5 LINE",
"65 -1 OFFCURVE",
"122 2 OFFCURVE",
"176 2 CURVE SMOOTH",
"230 2 OFFCURVE",
"287 -1 OFFCURVE",
"321 -5 CURVE",
"324 51 LINE",
"296 54 OFFCURVE",
"264 61 OFFCURVE",
"253 69 CURVE",
"249 77 OFFCURVE",
"245 133 OFFCURVE",
"245 239 CURVE SMOOTH"
);
}
);
width = 351;
}
);
leftKerningGroup = B;
note = I;
rightKerningGroup = H;
unicode = 0049;
},
{
color = 3;
glyphname = J;
lastChange = "2018-04-23 14:49:54 +0000";
layers = (
{
background = {
paths = (
{
closed = 1;
nodes = (
"819 615 OFFCURVE",
"852 625 OFFCURVE",
"876 626 CURVE",
"874 662 LINE",
"841 659 OFFCURVE",
"793 657 OFFCURVE",
"760 657 CURVE SMOOTH",
"727 657 OFFCURVE",
"675 659 OFFCURVE",
"638 662 CURVE",
"636 626 LINE",
"664 625 OFFCURVE",
"701 615 OFFCURVE",
"708 611 CURVE",
"712 604 OFFCURVE",
"716 572 OFFCURVE",
"716 442 CURVE SMOOTH",
"715 -32 LINE",
"715 -162 OFFCURVE",
"670 -200 OFFCURVE",
"596 -171 CURVE",
"645 -197 LINE",
"612 -140 OFFCURVE",
"583 -119 OFFCURVE",
"547 -119 CURVE SMOOTH",
"521 -119 OFFCURVE",
"501 -135 OFFCURVE",
"501 -159 CURVE SMOOTH",
"501 -197 OFFCURVE",
"554 -228 OFFCURVE",
"623 -228 CURVE SMOOTH",
"724 -228 OFFCURVE",
"805 -148 OFFCURVE",
"805 23 CURVE",
"804 442 LINE",
"804 572 OFFCURVE",
"808 604 OFFCURVE",
"812 611 CURVE"
);
},
{
closed = 1;
nodes = (
"-7 218 OFFCURVE",
"-67 182 OFFCURVE",
"-104 115 CURVE",
"-80 91 LINE",
"-44 137 OFFCURVE",
"-5 151 OFFCURVE",
"35 151 CURVE SMOOTH",
"109 151 OFFCURVE",
"176 96 OFFCURVE",
"176 -15 CURVE SMOOTH",
"176 -144 OFFCURVE",
"96 -201 OFFCURVE",
"20 -184 CURVE",
"56 -195 LINE",
"0 -141 LINE SMOOTH",
"-20 -121 OFFCURVE",
"-34 -113 OFFCURVE",
"-57 -113 CURVE SMOOTH",
"-82 -113 OFFCURVE",
"-99 -128 OFFCURVE",
"-99 -151 CURVE SMOOTH",
"-99 -191 OFFCURVE",
"-45 -228 OFFCURVE",
"40 -228 CURVE SMOOTH",
"167 -228 OFFCURVE",
"266 -128 OFFCURVE",
"266 1 CURVE SMOOTH",
"266 146 OFFCURVE",
"164 218 OFFCURVE",
"60 218 CURVE SMOOTH"
);
}
);
};
color = -1;
layerId = "D75C065C-4EF6-4055-9CF2-70010DBCD897";
paths = (
{
closed = 1;
nodes = (
"219 615 OFFCURVE",
"252 625 OFFCURVE",
"276 626 CURVE",
"274 662 LINE",
"241 659 OFFCURVE",
"193 657 OFFCURVE",
"160 657 CURVE SMOOTH",
"127 657 OFFCURVE",
"75 659 OFFCURVE",
"38 662 CURVE",
"36 626 LINE",
"64 625 OFFCURVE",
"101 615 OFFCURVE",
"108 611 CURVE",
"112 604 OFFCURVE",
"116 572 OFFCURVE",
"116 442 CURVE SMOOTH",
"115 -32 LINE",
"115 -169 OFFCURVE",
"75 -195 OFFCURVE",
"20 -185 CURVE",
"56 -195 LINE",
"0 -141 LINE SMOOTH",
"-20 -121 OFFCURVE",
"-34 -113 OFFCURVE",
"-57 -113 CURVE SMOOTH",
"-82 -113 OFFCURVE",
"-99 -128 OFFCURVE",
"-99 -151 CURVE SMOOTH",
"-99 -191 OFFCURVE",
"-38 -228 OFFCURVE",
"23 -228 CURVE SMOOTH",
"124 -228 OFFCURVE",
"205 -148 OFFCURVE",
"205 23 CURVE",
"204 442 LINE",
"204 572 OFFCURVE",
"208 604 OFFCURVE",
"212 611 CURVE"
);
}
);
width = 315;
},
{
background = {
paths = (
{
closed = 1;
nodes = (
"764 606 OFFCURVE",
"796 613 OFFCURVE",
"822 616 CURVE",
"819 665 LINE",
"787 661 OFFCURVE",
"730 658 OFFCURVE",
"676 658 CURVE SMOOTH",
"622 658 OFFCURVE",
"563 661 OFFCURVE",
"527 665 CURVE",
"524 616 LINE",
"554 613 OFFCURVE",
"588 606 OFFCURVE",
"599 598 CURVE",
"603 590 OFFCURVE",
"607 527 OFFCURVE",
"607 422 CURVE SMOOTH",
"608 -26 LINE",
"608 -158 OFFCURVE",
"587 -178 OFFCURVE",
"537 -163 CURVE",
"568 -181 LINE",
"537 -110 OFFCURVE",
"506 -89 OFFCURVE",
"462 -89 CURVE SMOOTH",
"427 -89 OFFCURVE",
"400 -111 OFFCURVE",
"400 -144 CURVE SMOOTH",
"400 -186 OFFCURVE",
"448 -228 OFFCURVE",
"548 -228 CURVE SMOOTH",
"655 -228 OFFCURVE",
"747 -129 OFFCURVE",
"747 10 CURVE",
"745 421 LINE",
"745 527 OFFCURVE",
"749 590 OFFCURVE",
"753 598 CURVE"
);
},
{
closed = 1;
nodes = (
"-3 228 OFFCURVE",
"-75 186 OFFCURVE",
"-113 103 CURVE",
"-82 74 LINE",
"-46 116 OFFCURVE",
"-10 130 OFFCURVE",
"27 130 CURVE SMOOTH",
"97 130 OFFCURVE",
"157 81 OFFCURVE",
"157 -24 CURVE SMOOTH",
"157 -129 OFFCURVE",
"95 -180 OFFCURVE",
"36 -168 CURVE",
"83 -181 LINE",
"18 -122 LINE SMOOTH",
"-11 -96 OFFCURVE",
"-31 -87 OFFCURVE",
"-55 -87 CURVE SMOOTH",
"-84 -87 OFFCURVE",
"-107 -105 OFFCURVE",
"-107 -138 CURVE SMOOTH",
"-107 -190 OFFCURVE",
"-39 -228 OFFCURVE",
"48 -228 CURVE SMOOTH",
"196 -228 OFFCURVE",
"300 -117 OFFCURVE",
"300 11 CURVE SMOOTH",
"300 138 OFFCURVE",
"200 228 OFFCURVE",
"74 228 CURVE SMOOTH"
);
}
);
};
color = -1;
layerId = "6D340022-02C4-426D-A0D8-A7BFACBEB22E";
paths = (
{
closed = 1;
nodes = (
"264 606 OFFCURVE",
"296 613 OFFCURVE",
"322 616 CURVE",
"319 665 LINE",
"287 661 OFFCURVE",
"230 658 OFFCURVE",
"176 658 CURVE SMOOTH",
"122 658 OFFCURVE",
"63 661 OFFCURVE",
"27 665 CURVE",
"24 616 LINE",
"54 613 OFFCURVE",
"88 606 OFFCURVE",
"99 598 CURVE",
"103 590 OFFCURVE",
"107 527 OFFCURVE",
"107 422 CURVE SMOOTH",
"108 -26 LINE",
"108 -158 OFFCURVE",
"86 -176 OFFCURVE",
"36 -168 CURVE",
"83 -181 LINE",
"18 -122 LINE SMOOTH",
"-11 -96 OFFCURVE",
"-31 -87 OFFCURVE",
"-55 -87 CURVE SMOOTH",
"-84 -87 OFFCURVE",
"-107 -105 OFFCURVE",
"-107 -138 CURVE SMOOTH",
"-107 -190 OFFCURVE",
"-39 -228 OFFCURVE",
"48 -228 CURVE SMOOTH",
"155 -228 OFFCURVE",
"247 -129 OFFCURVE",
"247 10 CURVE",
"245 421 LINE",
"245 527 OFFCURVE",
"249 590 OFFCURVE",
"253 598 CURVE"
);
}
);
width = 351;
}
);
leftKerningGroup = J;
note = J;
rightKerningGroup = J;
unicode = 004A;
},
{
color = 3;
glyphname = K;
lastChange = "2018-04-23 14:49:54 +0000";
layers = (
{
background = {
paths = (
{
closed = 1;
nodes = (
"439 0 OFFCURVE",
"487 2 OFFCURVE",
"519 2 CURVE SMOOTH",
"554 2 OFFCURVE",
"600 1 OFFCURVE",
"653 -2 CURVE",
"653 33 LINE",
"627 38 OFFCURVE",
"612 41 OFFCURVE",
"591 49 CURVE",
"573 64 OFFCURVE",
"542 99 OFFCURVE",
"509 136 CURVE SMOOTH",
"294 374 LINE",
"291 342 LINE",
"568 613 LINE",
"588 618 OFFCURVE",
"616 623 OFFCURVE",
"633 625 CURVE",
"630 661 LINE",
"602 660 OFFCURVE",
"561 659 OFFCURVE",
"535 659 CURVE SMOOTH",
"509 659 OFFCURVE",
"458 659 OFFCURVE",
"425 660 CURVE",
"424 624 LINE",
"446 622 OFFCURVE",
"472 617 OFFCURVE",
"494 612 CURVE",
"248 368 LINE",
"187 349 LINE",
"187 312 LINE",
"233 312 LINE",
"420 106 LINE SMOOTH",
"440 84 OFFCURVE",
"459 60 OFFCURVE",
"468 47 CURVE",
"460 44 OFFCURVE",
"427 35 OFFCURVE",
"401 33 CURVE",
"404 -3 LINE"
);
},
{
closed = 1;
nodes = (
"77 0 OFFCURVE",
"126 2 OFFCURVE",
"159 2 CURVE SMOOTH",
"192 2 OFFCURVE",
"242 0 OFFCURVE",
"277 -3 CURVE",
"279 33 LINE",
"253 35 OFFCURVE",
"217 44 OFFCURVE",
"209 48 CURVE",
"206 55 OFFCURVE",
"203 87 OFFCURVE",
"203 217 CURVE SMOOTH",
"203 442 LINE SMOOTH",
"203 572 OFFCURVE",
"207 604 OFFCURVE",
"211 611 CURVE",
"218 615 OFFCURVE",
"253 624 OFFCURVE",
"279 624 CURVE",
"277 660 LINE",
"242 658 OFFCURVE",
"192 657 OFFCURVE",
"159 657 CURVE SMOOTH",
"126 657 OFFCURVE",
"76 658 OFFCURVE",
"41 660 CURVE",
"39 624 LINE",
"65 624 OFFCURVE",
"100 615 OFFCURVE",
"107 611 CURVE",
"111 604 OFFCURVE",
"115 572 OFFCURVE",
"115 442 CURVE SMOOTH",
"115 217 LINE SMOOTH",
"115 87 OFFCURVE",
"111 55 OFFCURVE",
"107 48 CURVE",
"100 44 OFFCURVE",
"66 34 OFFCURVE",
"41 33 CURVE",
"43 -3 LINE"
);
}
);
};
color = -1;
layerId = "D75C065C-4EF6-4055-9CF2-70010DBCD897";
paths = (
{
closed = 1;
nodes = (
"435 0 OFFCURVE",
"483 2 OFFCURVE",
"515 2 CURVE SMOOTH",
"550 2 OFFCURVE",
"596 1 OFFCURVE",
"649 -2 CURVE",
"649 39 LINE",
"623 44 OFFCURVE",
"608 47 OFFCURVE",
"587 55 CURVE",
"569 70 OFFCURVE",
"542 99 OFFCURVE",
"509 136 CURVE SMOOTH",
"294 374 LINE",
"293 342 LINE",
"564 607 LINE",
"584 612 OFFCURVE",
"612 617 OFFCURVE",
"629 619 CURVE",
"626 661 LINE",
"598 660 OFFCURVE",
"560 659 OFFCURVE",
"531 659 CURVE SMOOTH",
"502 659 OFFCURVE",
"452 659 OFFCURVE",
"419 660 CURVE",
"418 618 LINE",
"440 616 OFFCURVE",
"466 611 OFFCURVE",
"488 606 CURVE",
"248 368 LINE",
"187 349 LINE",
"187 312 LINE",
"233 312 LINE",
"420 106 LINE SMOOTH",
"440 84 OFFCURVE",
"456 64 OFFCURVE",
"465 51 CURVE",
"457 48 OFFCURVE",
"423 41 OFFCURVE",
"397 39 CURVE",
"400 -3 LINE"
);
},
{
closed = 1;
nodes = (
"77 0 OFFCURVE",
"126 2 OFFCURVE",
"159 2 CURVE SMOOTH",
"192 2 OFFCURVE",
"242 0 OFFCURVE",
"277 -3 CURVE",
"279 39 LINE",
"253 41 OFFCURVE",
"217 50 OFFCURVE",
"209 54 CURVE",
"206 61 OFFCURVE",
"203 87 OFFCURVE",
"203 217 CURVE SMOOTH",
"203 442 LINE SMOOTH",
"203 572 OFFCURVE",
"207 598 OFFCURVE",
"211 605 CURVE",
"218 609 OFFCURVE",
"253 618 OFFCURVE",
"279 618 CURVE",
"277 660 LINE",
"242 658 OFFCURVE",
"192 657 OFFCURVE",
"159 657 CURVE SMOOTH",
"126 657 OFFCURVE",
"76 658 OFFCURVE",
"41 660 CURVE",
"39 618 LINE",
"65 618 OFFCURVE",
"100 609 OFFCURVE",
"107 605 CURVE",
"111 598 OFFCURVE",
"115 572 OFFCURVE",
"115 442 CURVE SMOOTH",
"115 217 LINE SMOOTH",
"115 87 OFFCURVE",
"111 61 OFFCURVE",
"107 54 CURVE",
"100 50 OFFCURVE",
"66 40 OFFCURVE",
"41 39 CURVE",
"43 -3 LINE"
);
}
);
width = 648;
},
{
background = {
paths = (
{
closed = 1;
nodes = (
"439 -2 OFFCURVE",
"511 2 OFFCURVE",
"565 2 CURVE SMOOTH",
"619 2 OFFCURVE",
"689 1 OFFCURVE",
"725 -2 CURVE",
"725 46 LINE",
"706 48 OFFCURVE",
"684 52 OFFCURVE",
"668 56 CURVE",
"654 68 OFFCURVE",
"626 96 OFFCURVE",
"579 152 CURVE SMOOTH",
"365 406 LINE",
"365 361 LINE",
"617 601 LINE",
"639 606 OFFCURVE",
"666 610 OFFCURVE",
"690 612 CURVE",
"687 661 LINE",
"659 660 OFFCURVE",
"617 659 OFFCURVE",
"571 659 CURVE SMOOTH",
"525 659 OFFCURVE",
"488 659 OFFCURVE",
"455 660 CURVE",
"454 611 LINE",
"470 610 OFFCURVE",
"505 607 OFFCURVE",
"525 602 CURVE",
"273 358 LINE",
"236 347 LINE",
"236 297 LINE",
"269 297 LINE",
"419 117 LINE SMOOTH",
"438 94 OFFCURVE",
"454 72 OFFCURVE",
"464 57 CURVE",
"451 51 OFFCURVE",
"425 46 OFFCURVE",
"403 44 CURVE",
"406 -5 LINE"
);
},
{
closed = 1;
nodes = (
"68 -1 OFFCURVE",
"123 2 OFFCURVE",
"177 2 CURVE SMOOTH",
"231 2 OFFCURVE",
"284 -1 OFFCURVE",
"314 -5 CURVE",
"317 44 LINE",
"292 47 OFFCURVE",
"262 54 OFFCURVE",
"251 62 CURVE",
"248 70 OFFCURVE",
"246 133 OFFCURVE",
"246 239 CURVE SMOOTH",
"246 421 LINE SMOOTH",
"246 527 OFFCURVE",
"250 590 OFFCURVE",
"254 598 CURVE",
"265 606 OFFCURVE",
"297 613 OFFCURVE",
"325 614 CURVE",
"322 663 LINE",
"288 661 OFFCURVE",
"231 658 OFFCURVE",
"177 658 CURVE SMOOTH",
"123 658 OFFCURVE",
"66 661 OFFCURVE",
"32 663 CURVE",
"29 614 LINE",
"57 613 OFFCURVE",
"89 606 OFFCURVE",
"100 598 CURVE",
"104 590 OFFCURVE",
"108 527 OFFCURVE",
"108 421 CURVE SMOOTH",
"108 239 LINE SMOOTH",
"108 133 OFFCURVE",
"105 70 OFFCURVE",
"102 62 CURVE",
"90 54 OFFCURVE",
"59 47 OFFCURVE",
"32 44 CURVE",
"35 -5 LINE"
);
}
);
};
color = -1;
layerId = "6D340022-02C4-426D-A0D8-A7BFACBEB22E";
paths = (
{
closed = 1;
nodes = (
"433 -2 OFFCURVE",
"506 2 OFFCURVE",
"560 2 CURVE SMOOTH",
"614 2 OFFCURVE",
"682 1 OFFCURVE",
"718 -2 CURVE",
"718 53 LINE",
"699 55 OFFCURVE",
"677 59 OFFCURVE",
"661 63 CURVE",
"648 75 OFFCURVE",
"627 96 OFFCURVE",
"580 152 CURVE SMOOTH",
"365 406 LINE",
"369 361 LINE",
"614 594 LINE",
"636 599 OFFCURVE",
"663 603 OFFCURVE",
"687 605 CURVE",
"684 661 LINE",
"656 660 OFFCURVE",
"614 659 OFFCURVE",
"564 659 CURVE SMOOTH",
"518 659 OFFCURVE",
"481 659 OFFCURVE",
"448 660 CURVE",
"447 604 LINE",
"463 603 OFFCURVE",
"498 600 OFFCURVE",
"518 595 CURVE",
"273 358 LINE",
"236 347 LINE",
"236 297 LINE",
"269 297 LINE",
"419 117 LINE SMOOTH",
"438 94 OFFCURVE",
"449 79 OFFCURVE",
"459 62 CURVE",
"446 58 OFFCURVE",
"419 53 OFFCURVE",
"399 51 CURVE",
"402 -5 LINE"
);
},
{
closed = 1;
nodes = (
"68 -1 OFFCURVE",
"123 2 OFFCURVE",
"177 2 CURVE SMOOTH",
"231 2 OFFCURVE",
"284 -1 OFFCURVE",
"312 -5 CURVE",
"315 51 LINE",
"292 54 OFFCURVE",
"262 61 OFFCURVE",
"251 69 CURVE",
"248 77 OFFCURVE",
"246 133 OFFCURVE",
"246 239 CURVE SMOOTH",
"246 421 LINE SMOOTH",
"246 527 OFFCURVE",
"250 583 OFFCURVE",
"254 591 CURVE",
"265 599 OFFCURVE",
"297 606 OFFCURVE",
"325 607 CURVE",
"322 663 LINE",
"288 661 OFFCURVE",
"231 658 OFFCURVE",
"177 658 CURVE SMOOTH",
"123 658 OFFCURVE",
"66 661 OFFCURVE",
"32 663 CURVE",
"29 607 LINE",
"57 606 OFFCURVE",
"89 599 OFFCURVE",
"100 591 CURVE",
"104 583 OFFCURVE",
"108 527 OFFCURVE",
"108 421 CURVE SMOOTH",
"108 239 LINE SMOOTH",
"108 133 OFFCURVE",
"105 77 OFFCURVE",
"102 69 CURVE",
"90 61 OFFCURVE",
"59 54 OFFCURVE",
"32 51 CURVE",
"35 -5 LINE"
);
}
);
width = 720;
}
);
leftKerningGroup = B;
note = K;
rightKerningGroup = K;
unicode = 004B;
},
{
color = 4;
glyphname = L;
lastChange = "2018-04-23 14:49:54 +0000";
layers = (
{
background = {
paths = (
{
closed = 1;
nodes = (
"1000 661 LINE",
"965 659 OFFCURVE",
"910 659 OFFCURVE",
"870 659 CURVE SMOOTH",
"837 659 OFFCURVE",
"775 659 OFFCURVE",
"740 661 CURVE",
"738 619 LINE",
"764 617 OFFCURVE",
"799 609 OFFCURVE",
"806 605 CURVE",
"810 598 OFFCURVE",
"814 572 OFFCURVE",
"814 442 CURVE SMOOTH",
"814 217 LINE SMOOTH",
"814 87 OFFCURVE",
"810 61 OFFCURVE",
"806 54 CURVE",
"799 50 OFFCURVE",
"764 40 OFFCURVE",
"738 39 CURVE",
"740 -3 LINE",
"775 0 OFFCURVE",
"825 0 OFFCURVE",
"858 0 CURVE SMOOTH",
"1087 0 LINE SMOOTH",
"1122 0 OFFCURVE",
"1150 -1 OFFCURVE",
"1184 -5 CURVE",
"1234 158 LINE",
"1190 168 LINE",
"1158 83 OFFCURVE",
"1123 56 OFFCURVE",
"1046 56 CURVE SMOOTH",
"962 56 LINE SMOOTH",
"941 56 OFFCURVE",
"923 58 OFFCURVE",
"907 60 CURVE",
"905 73 OFFCURVE",
"902 102 OFFCURVE",
"902 217 CURVE SMOOTH",
"902 442 LINE SMOOTH",
"902 572 OFFCURVE",
"906 598 OFFCURVE",
"910 605 CURVE",
"917 609 OFFCURVE",
"956 615 OFFCURVE",
"1002 618 CURVE"
);
},
{
closed = 1;
nodes = (
"570 160 LINE",
"522 170 LINE",
"497 116 OFFCURVE",
"477 78 OFFCURVE",
"465 61 CURVE",
"454 59 OFFCURVE",
"435 57 OFFCURVE",
"384 57 CURVE SMOOTH",
"272 57 LINE SMOOTH",
"241 57 OFFCURVE",
"222 59 OFFCURVE",
"205 61 CURVE",
"204 70 OFFCURVE",
"202 122 OFFCURVE",
"202 165 CURVE SMOOTH",
"202 489 LINE SMOOTH",
"202 533 OFFCURVE",
"204 606 OFFCURVE",
"205 615 CURVE",
"222 617 OFFCURVE",
"241 619 OFFCURVE",
"272 619 CURVE SMOOTH",
"405 619 LINE SMOOTH",
"418 619 OFFCURVE",
"434 618 OFFCURVE",
"445 616 CURVE",
"459 591 OFFCURVE",
"472 557 OFFCURVE",
"483 521 CURVE",
"531 528 LINE",
"510 671 LINE",
"474 668 OFFCURVE",
"442 667 OFFCURVE",
"408 667 CURVE SMOOTH",
"158 667 LINE SMOOTH",
"125 667 OFFCURVE",
"75 666 OFFCURVE",
"40 668 CURVE",
"38 626 LINE",
"64 624 OFFCURVE",
"99 616 OFFCURVE",
"106 612 CURVE",
"110 605 OFFCURVE",
"114 579 OFFCURVE",
"114 449 CURVE SMOOTH",
"114 224 LINE SMOOTH",
"114 94 OFFCURVE",
"110 68 OFFCURVE",
"106 61 CURVE",
"99 57 OFFCURVE",
"64 47 OFFCURVE",
"38 46 CURVE",
"40 4 LINE",
"75 7 OFFCURVE",
"125 7 OFFCURVE",
"158 7 CURVE SMOOTH",
"430 7 LINE SMOOTH",
"465 7 OFFCURVE",
"493 6 OFFCURVE",
"527 2 CURVE"
);
}
);
};
color = -1;
layerId = "D75C065C-4EF6-4055-9CF2-70010DBCD897";
paths = (
{
closed = 1;
nodes = (
"300 661 LINE",
"265 659 OFFCURVE",
"210 659 OFFCURVE",
"170 659 CURVE SMOOTH",
"137 659 OFFCURVE",
"75 659 OFFCURVE",
"40 661 CURVE",
"38 619 LINE",
"64 617 OFFCURVE",
"99 609 OFFCURVE",
"106 605 CURVE",
"110 598 OFFCURVE",
"114 572 OFFCURVE",
"114 442 CURVE SMOOTH",
"114 217 LINE SMOOTH",
"114 87 OFFCURVE",
"110 61 OFFCURVE",
"106 54 CURVE",
"99 50 OFFCURVE",
"64 40 OFFCURVE",
"38 39 CURVE",
"40 -3 LINE",
"75 0 OFFCURVE",
"125 0 OFFCURVE",
"158 0 CURVE SMOOTH",
"392 0 LINE SMOOTH",
"427 0 OFFCURVE",
"455 -1 OFFCURVE",
"489 -5 CURVE",
"534 160 LINE",
"486 170 LINE",
"461 116 OFFCURVE",
"441 78 OFFCURVE",
"429 61 CURVE",
"399 57 OFFCURVE",
"373 57 OFFCURVE",
"348 57 CURVE SMOOTH",
"272 57 LINE SMOOTH",
"241 57 OFFCURVE",
"222 59 OFFCURVE",
"205 61 CURVE",
"204 70 OFFCURVE",
"202 122 OFFCURVE",
"202 217 CURVE SMOOTH",
"202 442 LINE SMOOTH",
"202 572 OFFCURVE",
"206 598 OFFCURVE",
"210 605 CURVE",
"217 609 OFFCURVE",
"256 615 OFFCURVE",
"302 618 CURVE"
);
}
);
width = 540;
},
{
background = {
paths = (
{
closed = 1;
nodes = (
"947 664 LINE",
"886 661 OFFCURVE",
"844 659 OFFCURVE",
"789 659 CURVE SMOOTH",
"744 659 OFFCURVE",
"665 661 OFFCURVE",
"631 663 CURVE",
"628 607 LINE",
"656 606 OFFCURVE",
"688 599 OFFCURVE",
"699 591 CURVE",
"703 583 OFFCURVE",
"707 527 OFFCURVE",
"707 421 CURVE SMOOTH",
"707 239 LINE SMOOTH",
"707 133 OFFCURVE",
"703 77 OFFCURVE",
"699 69 CURVE",
"688 61 OFFCURVE",
"656 54 OFFCURVE",
"628 51 CURVE",
"631 -5 LINE",
"665 -1 OFFCURVE",
"731 0 OFFCURVE",
"776 0 CURVE SMOOTH",
"970 0 LINE SMOOTH",
"1014 0 OFFCURVE",
"1091 -3 OFFCURVE",
"1129 -7 CURVE",
"1181 182 LINE",
"1127 196 LINE",
"1098 109 OFFCURVE",
"1056 76 OFFCURVE",
"960 76 CURVE SMOOTH",
"916 76 LINE SMOOTH",
"893 76 OFFCURVE",
"870 79 OFFCURVE",
"851 82 CURVE",
"849 97 OFFCURVE",
"845 144 OFFCURVE",
"845 239 CURVE SMOOTH",
"845 421 LINE SMOOTH",
"845 527 OFFCURVE",
"849 582 OFFCURVE",
"853 590 CURVE",
"864 598 OFFCURVE",
"896 604 OFFCURVE",
"950 607 CURVE"
);
},
{
closed = 1;
nodes = (
"610 181 LINE",
"550 193 LINE",
"527 146 OFFCURVE",
"508 107 OFFCURVE",
"489 78 CURVE",
"470 75 OFFCURVE",
"457 74 OFFCURVE",
"409 74 CURVE SMOOTH",
"339 74 LINE SMOOTH",
"297 74 OFFCURVE",
"273 76 OFFCURVE",
"248 79 CURVE",
"246 95 OFFCURVE",
"245 145 OFFCURVE",
"245 211 CURVE SMOOTH",
"245 473 LINE SMOOTH",
"245 539 OFFCURVE",
"246 595 OFFCURVE",
"248 610 CURVE",
"267 613 OFFCURVE",
"295 614 OFFCURVE",
"320 614 CURVE SMOOTH",
"413 614 LINE SMOOTH",
"430 614 OFFCURVE",
"444 613 OFFCURVE",
"462 610 CURVE",
"477 581 OFFCURVE",
"487 550 OFFCURVE",
"503 509 CURVE",
"565 517 LINE",
"536 677 LINE",
"498 675 OFFCURVE",
"424 672 OFFCURVE",
"380 672 CURVE SMOOTH",
"177 672 LINE SMOOTH",
"132 672 OFFCURVE",
"66 673 OFFCURVE",
"32 675 CURVE",
"29 619 LINE",
"57 618 OFFCURVE",
"89 611 OFFCURVE",
"100 603 CURVE",
"104 595 OFFCURVE",
"108 539 OFFCURVE",
"108 433 CURVE SMOOTH",
"108 251 LINE SMOOTH",
"108 145 OFFCURVE",
"104 89 OFFCURVE",
"100 81 CURVE",
"89 73 OFFCURVE",
"57 66 OFFCURVE",
"29 63 CURVE",
"32 7 LINE",
"66 11 OFFCURVE",
"132 12 OFFCURVE",
"177 12 CURVE SMOOTH",
"418 12 LINE SMOOTH",
"462 12 OFFCURVE",
"523 9 OFFCURVE",
"561 6 CURVE"
);
}
);
};
color = -1;
layerId = "6D340022-02C4-426D-A0D8-A7BFACBEB22E";
paths = (
{
closed = 1;
nodes = (
"347 664 LINE",
"286 661 OFFCURVE",
"244 659 OFFCURVE",
"189 659 CURVE SMOOTH",
"144 659 OFFCURVE",
"65 661 OFFCURVE",
"31 663 CURVE",
"28 607 LINE",
"56 606 OFFCURVE",
"88 599 OFFCURVE",
"99 591 CURVE",
"103 583 OFFCURVE",
"107 527 OFFCURVE",
"107 421 CURVE SMOOTH",
"107 239 LINE SMOOTH",
"107 133 OFFCURVE",
"103 77 OFFCURVE",
"99 69 CURVE",
"88 61 OFFCURVE",
"56 54 OFFCURVE",
"28 51 CURVE",
"31 -5 LINE",
"65 -1 OFFCURVE",
"131 0 OFFCURVE",
"176 0 CURVE SMOOTH",
"370 0 LINE SMOOTH",
"414 0 OFFCURVE",
"491 -3 OFFCURVE",
"529 -7 CURVE",
"582 183 LINE",
"522 195 LINE",
"499 148 OFFCURVE",
"480 109 OFFCURVE",
"461 80 CURVE",
"442 77 OFFCURVE",
"429 74 OFFCURVE",
"381 74 CURVE SMOOTH",
"339 74 LINE SMOOTH",
"297 74 OFFCURVE",
"273 76 OFFCURVE",
"249 79 CURVE",
"247 94 OFFCURVE",
"245 144 OFFCURVE",
"245 239 CURVE SMOOTH",
"245 421 LINE SMOOTH",
"245 527 OFFCURVE",
"249 582 OFFCURVE",
"253 590 CURVE",
"264 598 OFFCURVE",
"296 604 OFFCURVE",
"350 607 CURVE"
);
}
);
width = 594;
}
);
leftKerningGroup = B;
note = L;
rightKerningGroup = L;
unicode = 004C;
},
{
color = 3;
glyphname = M;
lastChange = "2018-04-23 14:49:54 +0000";
layers = (
{
background = {
paths = (
{
closed = 1;
nodes = (
"1056 659 OFFCURVE",
"1055 654 OFFCURVE",
"1055 647 CURVE SMOOTH",
"1055 638 OFFCURVE",
"1056 633 OFFCURVE",
"1059 633 CURVE SMOOTH",
"1078 633 OFFCURVE",
"1134 623 OFFCURVE",
"1138 612 CURVE",
"1141 602 OFFCURVE",
"1142 589 OFFCURVE",
"1142 572 CURVE SMOOTH",
"1142 549 OFFCURVE",
"1137 440 OFFCURVE",
"1136 340 CURVE SMOOTH",
"1135 273 OFFCURVE",
"1132 204 OFFCURVE",
"1131 135 CURVE SMOOTH",
"1130 89 OFFCURVE",
"1124 60 OFFCURVE",
"1113 48 CURVE",
"1101 36 OFFCURVE",
"1054 26 OFFCURVE",
"1035 26 CURVE SMOOTH",
"1032 26 OFFCURVE",
"1030 21 OFFCURVE",
"1030 12 CURVE SMOOTH",
"1030 5 OFFCURVE",
"1032 0 OFFCURVE",
"1035 -3 CURVE",
"1112 0 OFFCURVE",
"1151 2 OFFCURVE",
"1152 2 CURVE SMOOTH",
"1163 2 OFFCURVE",
"1201 0 OFFCURVE",
"1268 -3 CURVE",
"1269 1 OFFCURVE",
"1270 6 OFFCURVE",
"1270 11 CURVE SMOOTH",
"1270 21 OFFCURVE",
"1269 26 OFFCURVE",
"1266 26 CURVE SMOOTH",
"1230 26 OFFCURVE",
"1183 35 OFFCURVE",
"1183 75 CURVE SMOOTH",
"1183 99 OFFCURVE",
"1190 228 OFFCURVE",
"1193 362 CURVE SMOOTH",
"1195 445 OFFCURVE",
"1198 518 OFFCURVE",
"1199 582 CURVE",
"1428 0 LINE",
"1432 -1 OFFCURVE",
"1435 -2 OFFCURVE",
"1437 -2 CURVE SMOOTH",
"1449 -2 OFFCURVE",
"1462 12 OFFCURVE",
"1474 41 CURVE SMOOTH",
"1683 541 LINE SMOOTH",
"1685 546 OFFCURVE",
"1687 548 OFFCURVE",
"1688 548 CURVE SMOOTH",
"1695 548 OFFCURVE",
"1702 510 OFFCURVE",
"1703 489 CURVE SMOOTH",
"1715 137 LINE",
"1715 84 LINE SMOOTH",
"1715 60 OFFCURVE",
"1711 46 OFFCURVE",
"1703 41 CURVE SMOOTH",
"1691 34 OFFCURVE",
"1656 26 OFFCURVE",
"1643 26 CURVE SMOOTH",
"1640 26 OFFCURVE",
"1639 22 OFFCURVE",
"1639 13 CURVE SMOOTH",
"1639 5 OFFCURVE",
"1640 0 OFFCURVE",
"1643 -3 CURVE",
"1720 0 OFFCURVE",
"1760 2 OFFCURVE",
"1763 2 CURVE SMOOTH",
"1776 2 OFFCURVE",
"1815 0 OFFCURVE",
"1882 -3 CURVE",
"1883 1 OFFCURVE",
"1884 6 OFFCURVE",
"1884 12 CURVE SMOOTH",
"1884 21 OFFCURVE",
"1883 26 OFFCURVE",
"1880 26 CURVE SMOOTH",
"1865 26 OFFCURVE",
"1818 36 OFFCURVE",
"1813 48 CURVE",
"1804 71 OFFCURVE",
"1799 102 OFFCURVE",
"1798 140 CURVE SMOOTH",
"1791 400 OFFCURVE",
"1789 535 OFFCURVE",
"1789 546 CURVE SMOOTH",
"1789 585 OFFCURVE",
"1793 607 OFFCURVE",
"1801 613 CURVE SMOOTH",
"1813 622 OFFCURVE",
"1842 633 OFFCURVE",
"1857 633 CURVE SMOOTH",
"1859 633 LINE SMOOTH",
"1862 633 OFFCURVE",
"1864 638 OFFCURVE",
"1864 647 CURVE SMOOTH",
"1864 651 OFFCURVE",
"1863 656 OFFCURVE",
"1861 662 CURVE",
"1828 659 OFFCURVE",
"1790 658 OFFCURVE",
"1749 658 CURVE SMOOTH",
"1736 658 OFFCURVE",
"1709 659 OFFCURVE",
"1666 662 CURVE",
"1639 582 OFFCURVE",
"1626 542 OFFCURVE",
"1626 542 CURVE",
"1587 443 OFFCURVE",
"1535 316 OFFCURVE",
"1470 163 CURVE",
"1469 160 OFFCURVE",
"1468 159 OFFCURVE",
"1465 159 CURVE SMOOTH",
"1463 159 OFFCURVE",
"1462 160 OFFCURVE",
"1461 161 CURVE",
"1334 480 OFFCURVE",
"1268 647 OFFCURVE",
"1263 662 CURVE",
"1226 659 OFFCURVE",
"1196 657 OFFCURVE",
"1171 657 CURVE SMOOTH",
"1150 657 OFFCURVE",
"1079 661 OFFCURVE",
"1059 662 CURVE"
);
},
{
closed = 1;
nodes = (
"820 659 OFFCURVE",
"770 659 OFFCURVE",
"733 659 CURVE SMOOTH",
"708 659 OFFCURVE",
"679 660 OFFCURVE",
"662 661 CURVE",
"450 111 LINE",
"480 111 LINE",
"261 662 LINE",
"218 659 OFFCURVE",
"193 659 OFFCURVE",
"180 659 CURVE SMOOTH",
"139 659 OFFCURVE",
"101 659 OFFCURVE",
"68 662 CURVE",
"66 656 OFFCURVE",
"65 651 OFFCURVE",
"65 647 CURVE SMOOTH",
"65 638 OFFCURVE",
"67 633 OFFCURVE",
"70 633 CURVE SMOOTH",
"72 633 LINE SMOOTH",
"87 633 OFFCURVE",
"116 622 OFFCURVE",
"128 613 CURVE SMOOTH",
"136 607 OFFCURVE",
"140 585 OFFCURVE",
"140 546 CURVE SMOOTH",
"140 535 OFFCURVE",
"136 400 OFFCURVE",
"122 140 CURVE SMOOTH",
"120 102 OFFCURVE",
"116 71 OFFCURVE",
"107 48 CURVE",
"102 36 OFFCURVE",
"55 26 OFFCURVE",
"40 26 CURVE SMOOTH",
"37 26 OFFCURVE",
"36 21 OFFCURVE",
"36 12 CURVE SMOOTH",
"36 6 OFFCURVE",
"37 1 OFFCURVE",
"38 -3 CURVE",
"105 0 OFFCURVE",
"144 2 OFFCURVE",
"157 2 CURVE SMOOTH",
"160 2 OFFCURVE",
"200 0 OFFCURVE",
"277 -3 CURVE",
"280 0 OFFCURVE",
"281 5 OFFCURVE",
"281 13 CURVE SMOOTH",
"281 22 OFFCURVE",
"280 26 OFFCURVE",
"277 26 CURVE SMOOTH",
"264 26 OFFCURVE",
"229 34 OFFCURVE",
"217 41 CURVE SMOOTH",
"209 46 OFFCURVE",
"205 60 OFFCURVE",
"205 84 CURVE SMOOTH",
"205 137 LINE",
"234 612 LINE",
"217 612 LINE",
"467 -4 LINE",
"492 -4 LINE",
"745 624 LINE",
"720 627 LINE",
"736 262 LINE SMOOTH",
"742 119 OFFCURVE",
"740 61 OFFCURVE",
"737 54 CURVE",
"730 50 OFFCURVE",
"695 40 OFFCURVE",
"669 39 CURVE",
"671 -3 LINE",
"706 0 OFFCURVE",
"743 2 OFFCURVE",
"773 2 CURVE SMOOTH",
"807 2 OFFCURVE",
"842 0 OFFCURVE",
"877 -3 CURVE",
"879 39 LINE",
"853 40 OFFCURVE",
"818 50 OFFCURVE",
"811 54 CURVE",
"807 61 OFFCURVE",
"803 119 OFFCURVE",
"797 265 CURVE SMOOTH",
"789 450 LINE SMOOTH",
"785 554 OFFCURVE",
"786 587 OFFCURVE",
"789 605 CURVE",
"796 609 OFFCURVE",
"831 619 OFFCURVE",
"857 619 CURVE",
"855 661 LINE"
);
}
);
};
color = -1;
layerId = "D75C065C-4EF6-4055-9CF2-70010DBCD897";
paths = (
{
closed = 1;
nodes = (
"65 619 LINE",
"93 619 OFFCURVE",
"131 609 OFFCURVE",
"139 605 CURVE",
"140 587 OFFCURVE",
"140 554 OFFCURVE",
"136 450 CURVE SMOOTH",
"129 284 LINE SMOOTH",
"124 169 OFFCURVE",
"120 71 OFFCURVE",
"116 54 CURVE",
"109 50 OFFCURVE",
"74 40 OFFCURVE",
"45 39 CURVE",
"47 -3 LINE",
"85 0 OFFCURVE",
"117 2 OFFCURVE",
"149 2 CURVE SMOOTH",
"175 2 OFFCURVE",
"213 0 OFFCURVE",
"250 -3 CURVE",
"252 39 LINE",
"224 40 OFFCURVE",
"189 50 OFFCURVE",
"182 54 CURVE",
"179 71 OFFCURVE",
"179 169 OFFCURVE",
"185 302 CURVE SMOOTH",
"199 627 LINE",
"178 627 LINE",
"436 -4 LINE",
"469 -4 LINE",
"710 627 LINE",
"695 627 LINE",
"719 232 LINE SMOOTH",
"726 119 OFFCURVE",
"728 61 OFFCURVE",
"725 54 CURVE",
"718 50 OFFCURVE",
"683 40 OFFCURVE",
"657 39 CURVE",
"659 -3 LINE",
"694 0 OFFCURVE",
"743 2 OFFCURVE",
"774 2 CURVE SMOOTH",
"805 2 OFFCURVE",
"856 0 OFFCURVE",
"891 -3 CURVE",
"893 39 LINE",
"867 40 OFFCURVE",
"832 50 OFFCURVE",
"825 54 CURVE",
"821 81 OFFCURVE",
"814 139 OFFCURVE",
"805 295 CURVE SMOOTH",
"796 450 LINE SMOOTH",
"790 554 OFFCURVE",
"787 598 OFFCURVE",
"788 605 CURVE",
"796 609 OFFCURVE",
"833 619 OFFCURVE",
"861 619 CURVE",
"859 661 LINE",
"827 659 OFFCURVE",
"789 659 OFFCURVE",
"759 659 CURVE SMOOTH",
"728 659 OFFCURVE",
"697 660 OFFCURVE",
"667 661 CURVE",
"457 111 LINE",
"480 111 LINE",
"261 661 LINE",
"231 660 OFFCURVE",
"198 659 OFFCURVE",
"168 659 CURVE SMOOTH",
"138 659 OFFCURVE",
"99 659 OFFCURVE",
"67 661 CURVE"
);
}
);
width = 936;
},
{
background = {
paths = (
{
closed = 1;
nodes = (
"78 607 LINE",
"106 606 OFFCURVE",
"138 599 OFFCURVE",
"149 591 CURVE",
"149 580 OFFCURVE",
"149 554 OFFCURVE",
"141 450 CURVE SMOOTH",
"127 265 LINE SMOOTH",
"115 119 OFFCURVE",
"112 77 OFFCURVE",
"108 69 CURVE",
"97 61 OFFCURVE",
"65 54 OFFCURVE",
"37 52 CURVE",
"40 -4 LINE",
"74 -1 OFFCURVE",
"123 1 OFFCURVE",
"149 1 CURVE SMOOTH",
"177 1 OFFCURVE",
"226 -1 OFFCURVE",
"260 -4 CURVE",
"263 52 LINE",
"235 54 OFFCURVE",
"203 61 OFFCURVE",
"192 69 CURVE",
"192 80 OFFCURVE",
"193 139 OFFCURVE",
"202 262 CURVE SMOOTH",
"229 627 LINE",
"173 627 LINE",
"448 -4 LINE",
"511 -4 LINE",
"759 627 LINE",
"720 627 LINE",
"756 262 LINE SMOOTH",
"770 119 OFFCURVE",
"772 78 OFFCURVE",
"772 69 CURVE",
"761 61 OFFCURVE",
"729 54 OFFCURVE",
"701 52 CURVE",
"704 -4 LINE",
"738 -1 OFFCURVE",
"822 2 OFFCURVE",
"852 2 CURVE SMOOTH",
"883 2 OFFCURVE",
"962 -1 OFFCURVE",
"998 -4 CURVE",
"1001 52 LINE",
"973 54 OFFCURVE",
"941 61 OFFCURVE",
"930 69 CURVE",
"926 82 OFFCURVE",
"921 119 OFFCURVE",
"906 265 CURVE SMOOTH",
"887 450 LINE SMOOTH",
"876 554 OFFCURVE",
"876 582 OFFCURVE",
"877 591 CURVE",
"886 599 OFFCURVE",
"918 606 OFFCURVE",
"946 607 CURVE",
"943 662 LINE",
"909 660 OFFCURVE",
"852 659 OFFCURVE",
"822 659 CURVE SMOOTH",
"791 659 OFFCURVE",
"727 660 OFFCURVE",
"697 661 CURVE",
"495 147 LINE",
"529 147 LINE",
"314 661 LINE",
"284 660 OFFCURVE",
"226 659 OFFCURVE",
"196 659 CURVE SMOOTH",
"166 659 OFFCURVE",
"115 660 OFFCURVE",
"81 662 CURVE"
);
}
);
};
color = -1;
layerId = "6D340022-02C4-426D-A0D8-A7BFACBEB22E";
paths = (
{
closed = 1;
nodes = (
"74 607 LINE",
"105 606 OFFCURVE",
"139 599 OFFCURVE",
"150 591 CURVE",
"150 580 OFFCURVE",
"149 554 OFFCURVE",
"141 450 CURVE SMOOTH",
"128 285 LINE SMOOTH",
"116 139 OFFCURVE",
"112 77 OFFCURVE",
"108 69 CURVE",
"97 61 OFFCURVE",
"64 55 OFFCURVE",
"33 53 CURVE",
"36 -4 LINE",
"73 -1 OFFCURVE",
"125 1 OFFCURVE",
"151 1 CURVE SMOOTH",
"176 1 OFFCURVE",
"228 -1 OFFCURVE",
"265 -4 CURVE",
"268 53 LINE",
"237 55 OFFCURVE",
"202 61 OFFCURVE",
"191 69 CURVE",
"191 80 OFFCURVE",
"193 159 OFFCURVE",
"204 302 CURVE SMOOTH",
"228 627 LINE",
"173 627 LINE",
"450 -4 LINE",
"513 -4 LINE",
"757 627 LINE",
"720 627 LINE",
"756 262 LINE SMOOTH",
"770 119 OFFCURVE",
"772 78 OFFCURVE",
"772 69 CURVE",
"761 61 OFFCURVE",
"727 54 OFFCURVE",
"699 52 CURVE",
"702 -4 LINE",
"736 -1 OFFCURVE",
"821 2 OFFCURVE",
"851 2 CURVE SMOOTH",
"882 2 OFFCURVE",
"964 -1 OFFCURVE",
"1000 -4 CURVE",
"1003 52 LINE",
"975 54 OFFCURVE",
"941 61 OFFCURVE",
"930 69 CURVE",
"926 82 OFFCURVE",
"921 119 OFFCURVE",
"906 265 CURVE SMOOTH",
"887 450 LINE SMOOTH",
"876 554 OFFCURVE",
"876 582 OFFCURVE",
"877 591 CURVE",
"886 599 OFFCURVE",
"920 606 OFFCURVE",
"951 607 CURVE",
"948 662 LINE",
"911 660 OFFCURVE",
"855 659 OFFCURVE",
"825 659 CURVE SMOOTH",
"794 659 OFFCURVE",
"728 660 OFFCURVE",
"698 661 CURVE",
"499 147 LINE",
"531 147 LINE",
"314 661 LINE",
"284 660 OFFCURVE",
"226 659 OFFCURVE",
"196 659 CURVE SMOOTH",
"166 659 OFFCURVE",
"114 660 OFFCURVE",
"77 662 CURVE"
);
}
);
width = 1035;
}
);
leftKerningGroup = M;
note = M;
rightKerningGroup = M;
unicode = 004D;
},
{
color = 3;
glyphname = N;
lastChange = "2018-04-23 14:49:54 +0000";
layers = (
{
background = {
paths = (
{
closed = 1;
nodes = (
"564 146 LINE",
"212 661 LINE",
"193 660 OFFCURVE",
"155 658 OFFCURVE",
"130 658 CURVE SMOOTH",
"105 658 OFFCURVE",
"75 658 OFFCURVE",
"40 659 CURVE",
"38 617 LINE",
"64 618 OFFCURVE",
"99 609 OFFCURVE",
"106 605 CURVE",
"111 588 OFFCURVE",
"114 572 OFFCURVE",
"114 442 CURVE SMOOTH",
"114 267 LINE SMOOTH",
"114 107 OFFCURVE",
"110 61 OFFCURVE",
"106 54 CURVE",
"99 50 OFFCURVE",
"62 40 OFFCURVE",
"33 39 CURVE",
"35 -3 LINE",
"73 0 OFFCURVE",
"109 2 OFFCURVE",
"141 2 CURVE SMOOTH",
"173 2 OFFCURVE",
"219 0 OFFCURVE",
"257 -3 CURVE",
"259 39 LINE",
"230 40 OFFCURVE",
"193 50 OFFCURVE",
"186 54 CURVE",
"182 61 OFFCURVE",
"178 107 OFFCURVE",
"178 267 CURVE SMOOTH",
"178 605 LINE",
"143 605 LINE",
"561 -4 LINE",
"607 -4 LINE",
"607 48 OFFCURVE",
"606 98 OFFCURVE",
"606 139 CURVE SMOOTH",
"606 393 LINE SMOOTH",
"606 553 OFFCURVE",
"610 599 OFFCURVE",
"614 606 CURVE",
"621 610 OFFCURVE",
"658 619 OFFCURVE",
"687 619 CURVE",
"685 661 LINE",
"647 659 OFFCURVE",
"611 658 OFFCURVE",
"578 658 CURVE SMOOTH",
"547 658 OFFCURVE",
"503 659 OFFCURVE",
"465 661 CURVE",
"463 619 LINE",
"492 619 OFFCURVE",
"529 610 OFFCURVE",
"536 606 CURVE",
"540 599 OFFCURVE",
"544 553 OFFCURVE",
"544 393 CURVE SMOOTH",
"544 146 LINE"
);
}
);
};
color = -1;
layerId = "D75C065C-4EF6-4055-9CF2-70010DBCD897";
paths = (
{
closed = 1;
nodes = (
"564 154 LINE",
"192 661 LINE",
"173 660 OFFCURVE",
"145 658 OFFCURVE",
"120 658 CURVE SMOOTH",
"95 658 OFFCURVE",
"75 658 OFFCURVE",
"40 659 CURVE",
"38 617 LINE",
"64 618 OFFCURVE",
"99 609 OFFCURVE",
"106 605 CURVE",
"111 588 OFFCURVE",
"114 572 OFFCURVE",
"114 442 CURVE SMOOTH",
"114 267 LINE SMOOTH",
"114 107 OFFCURVE",
"110 61 OFFCURVE",
"106 54 CURVE",
"99 50 OFFCURVE",
"62 40 OFFCURVE",
"33 39 CURVE",
"35 -3 LINE",
"73 0 OFFCURVE",
"109 2 OFFCURVE",
"140 2 CURVE SMOOTH",
"171 2 OFFCURVE",
"217 0 OFFCURVE",
"255 -3 CURVE",
"257 39 LINE",
"228 40 OFFCURVE",
"191 50 OFFCURVE",
"184 54 CURVE",
"180 61 OFFCURVE",
"176 107 OFFCURVE",
"176 267 CURVE SMOOTH",
"176 554 LINE",
"154 554 LINE",
"561 -4 LINE",
"607 -4 LINE",
"607 48 OFFCURVE",
"606 98 OFFCURVE",
"606 139 CURVE SMOOTH",
"606 393 LINE SMOOTH",
"606 553 OFFCURVE",
"610 599 OFFCURVE",
"614 606 CURVE",
"621 610 OFFCURVE",
"658 619 OFFCURVE",
"687 619 CURVE",
"685 661 LINE",
"647 659 OFFCURVE",
"611 658 OFFCURVE",
"579 658 CURVE SMOOTH",
"549 658 OFFCURVE",
"505 659 OFFCURVE",
"467 661 CURVE",
"465 619 LINE",
"494 619 OFFCURVE",
"531 610 OFFCURVE",
"538 606 CURVE",
"542 599 OFFCURVE",
"546 553 OFFCURVE",
"546 393 CURVE SMOOTH",
"546 154 LINE"
);
}
);
width = 720;
},
{
background = {
paths = (
{
closed = 1;
nodes = (
"598 206 LINE",
"206 661 LINE",
"187 660 OFFCURVE",
"149 658 OFFCURVE",
"124 658 CURVE SMOOTH",
"99 658 OFFCURVE",
"67 660 OFFCURVE",
"32 662 CURVE",
"29 607 LINE",
"57 606 OFFCURVE",
"89 599 OFFCURVE",
"100 591 CURVE",
"104 583 OFFCURVE",
"108 527 OFFCURVE",
"108 442 CURVE SMOOTH",
"108 277 LINE SMOOTH",
"108 133 OFFCURVE",
"104 77 OFFCURVE",
"100 69 CURVE",
"89 61 OFFCURVE",
"55 54 OFFCURVE",
"24 51 CURVE",
"27 -5 LINE",
"64 -1 OFFCURVE",
"112 2 OFFCURVE",
"142 2 CURVE SMOOTH",
"172 2 OFFCURVE",
"230 -1 OFFCURVE",
"267 -5 CURVE",
"270 51 LINE",
"239 54 OFFCURVE",
"205 61 OFFCURVE",
"194 69 CURVE",
"190 77 OFFCURVE",
"186 133 OFFCURVE",
"186 277 CURVE SMOOTH",
"186 540 LINE",
"137 540 LINE",
"595 -4 LINE",
"642 -4 LINE",
"641 48 OFFCURVE",
"640 98 OFFCURVE",
"640 139 CURVE SMOOTH",
"640 393 LINE SMOOTH",
"640 527 OFFCURVE",
"644 583 OFFCURVE",
"648 591 CURVE",
"659 599 OFFCURVE",
"693 605 OFFCURVE",
"724 607 CURVE",
"721 663 LINE",
"684 660 OFFCURVE",
"642 659 OFFCURVE",
"606 659 CURVE SMOOTH",
"572 659 OFFCURVE",
"518 660 OFFCURVE",
"481 663 CURVE",
"478 607 LINE",
"509 605 OFFCURVE",
"543 599 OFFCURVE",
"554 591 CURVE",
"558 583 OFFCURVE",
"562 527 OFFCURVE",
"562 393 CURVE SMOOTH",
"562 206 LINE"
);
}
);
};
color = -1;
layerId = "6D340022-02C4-426D-A0D8-A7BFACBEB22E";
paths = (
{
closed = 1;
nodes = (
"603 191 LINE",
"206 661 LINE",
"187 660 OFFCURVE",
"149 659 OFFCURVE",
"124 659 CURVE SMOOTH",
"99 659 OFFCURVE",
"67 660 OFFCURVE",
"32 662 CURVE",
"29 607 LINE",
"57 606 OFFCURVE",
"89 599 OFFCURVE",
"100 591 CURVE",
"104 583 OFFCURVE",
"108 527 OFFCURVE",
"108 442 CURVE SMOOTH",
"108 277 LINE SMOOTH",
"108 133 OFFCURVE",
"104 77 OFFCURVE",
"100 69 CURVE",
"89 61 OFFCURVE",
"55 54 OFFCURVE",
"24 51 CURVE",
"27 -5 LINE",
"64 -1 OFFCURVE",
"112 2 OFFCURVE",
"144 2 CURVE SMOOTH",
"176 2 OFFCURVE",
"233 -1 OFFCURVE",
"270 -5 CURVE",
"273 51 LINE",
"242 54 OFFCURVE",
"208 61 OFFCURVE",
"197 69 CURVE",
"193 77 OFFCURVE",
"187 133 OFFCURVE",
"188 277 CURVE SMOOTH",
"189 529 LINE",
"137 529 LINE",
"578 -5 LINE",
"641 -5 LINE",
"641 47 OFFCURVE",
"640 97 OFFCURVE",
"640 158 CURVE SMOOTH",
"640 393 LINE SMOOTH",
"640 527 OFFCURVE",
"644 583 OFFCURVE",
"648 591 CURVE",
"659 599 OFFCURVE",
"693 605 OFFCURVE",
"724 607 CURVE",
"721 663 LINE",
"684 660 OFFCURVE",
"642 659 OFFCURVE",
"607 659 CURVE SMOOTH",
"574 659 OFFCURVE",
"520 660 OFFCURVE",
"483 663 CURVE",
"480 607 LINE",
"511 605 OFFCURVE",
"545 599 OFFCURVE",
"556 591 CURVE",
"560 583 OFFCURVE",
"564 527 OFFCURVE",
"564 393 CURVE SMOOTH",
"564 191 LINE"
);
}
);
width = 747;
}
);
leftKerningGroup = N;
note = N;
rightKerningGroup = N;
unicode = 004E;
},
{
color = 3;
glyphname = O;
lastChange = "2018-04-23 14:49:54 +0000";
layers = (
{
background = {
paths = (
{
closed = 1;
nodes = (
"567 -10 OFFCURVE",
"708 142 OFFCURVE",
"708 333 CURVE SMOOTH",
"708 532 OFFCURVE",
"579 670 OFFCURVE",
"393 670 CURVE SMOOTH",
"202 670 OFFCURVE",
"58 525 OFFCURVE",
"58 328 CURVE SMOOTH",
"58 128 OFFCURVE",
"194 -10 OFFCURVE",
"389 -10 CURVE SMOOTH"
);
},
{
closed = 1;
nodes = (
"264 41 OFFCURVE",
"166 168 OFFCURVE",
"166 346 CURVE SMOOTH",
"166 516 OFFCURVE",
"247 621 OFFCURVE",
"380 621 CURVE SMOOTH",
"513 621 OFFCURVE",
"604 493 OFFCURVE",
"604 308 CURVE SMOOTH",
"604 146 OFFCURVE",
"524 41 OFFCURVE",
"401 41 CURVE SMOOTH"
);
}
);
};
color = -1;
layerId = "D75C065C-4EF6-4055-9CF2-70010DBCD897";
paths = (
{
closed = 1;
nodes = (
"567 -10 OFFCURVE",
"708 142 OFFCURVE",
"708 333 CURVE SMOOTH",
"708 532 OFFCURVE",
"579 670 OFFCURVE",
"393 670 CURVE SMOOTH",
"202 670 OFFCURVE",
"58 525 OFFCURVE",
"58 328 CURVE SMOOTH",
"58 128 OFFCURVE",
"194 -10 OFFCURVE",
"389 -10 CURVE SMOOTH"
);
},
{
closed = 1;
nodes = (
"264 44 OFFCURVE",
"166 170 OFFCURVE",
"166 346 CURVE SMOOTH",
"166 514 OFFCURVE",
"247 618 OFFCURVE",
"380 618 CURVE SMOOTH",
"513 618 OFFCURVE",
"604 491 OFFCURVE",
"604 308 CURVE SMOOTH",
"604 148 OFFCURVE",
"524 44 OFFCURVE",
"401 44 CURVE SMOOTH"
);
}
);
width = 765;
},
{
background = {
paths = (
{
closed = 1;
nodes = (
"1360 -10 OFFCURVE",
"1540 117 OFFCURVE",
"1540 337 CURVE SMOOTH",
"1540 534 OFFCURVE",
"1402 670 OFFCURVE",
"1205 670 CURVE SMOOTH",
"1003 670 OFFCURVE",
"853 524 OFFCURVE",
"853 323 CURVE SMOOTH",
"853 127 OFFCURVE",
"1000 -10 OFFCURVE",
"1204 -10 CURVE SMOOTH"
);
},
{
closed = 1;
nodes = (
"1104 57 OFFCURVE",
"1015 191 OFFCURVE",
"1015 370 CURVE SMOOTH",
"1015 513 OFFCURVE",
"1077 605 OFFCURVE",
"1183 605 CURVE SMOOTH",
"1303 605 OFFCURVE",
"1384 475 OFFCURVE",
"1384 285 CURVE SMOOTH",
"1384 142 OFFCURVE",
"1326 57 OFFCURVE",
"1224 57 CURVE SMOOTH"
);
},
{
closed = 1;
nodes = (
"560 -10 OFFCURVE",
"740 117 OFFCURVE",
"740 337 CURVE SMOOTH",
"740 534 OFFCURVE",
"602 670 OFFCURVE",
"405 670 CURVE SMOOTH",
"203 670 OFFCURVE",
"53 524 OFFCURVE",
"53 323 CURVE SMOOTH",
"53 127 OFFCURVE",
"200 -10 OFFCURVE",
"404 -10 CURVE SMOOTH"
);
},
{
closed = 1;
nodes = (
"304 62 OFFCURVE",
"215 193 OFFCURVE",
"215 370 CURVE SMOOTH",
"215 511 OFFCURVE",
"277 602 OFFCURVE",
"382 602 CURVE SMOOTH",
"501 602 OFFCURVE",
"582 473 OFFCURVE",
"582 286 CURVE SMOOTH",
"582 144 OFFCURVE",
"524 62 OFFCURVE",
"423 62 CURVE SMOOTH"
);
}
);
};
color = -1;
layerId = "6D340022-02C4-426D-A0D8-A7BFACBEB22E";
paths = (
{
closed = 1;
nodes = (
"560 -10 OFFCURVE",
"740 117 OFFCURVE",
"740 337 CURVE SMOOTH",
"740 534 OFFCURVE",
"602 670 OFFCURVE",
"405 670 CURVE SMOOTH",
"203 670 OFFCURVE",
"53 524 OFFCURVE",
"53 323 CURVE SMOOTH",
"53 127 OFFCURVE",
"200 -10 OFFCURVE",
"404 -10 CURVE SMOOTH"
);
},
{
closed = 1;
nodes = (
"298 65 OFFCURVE",
"216 183 OFFCURVE",
"216 352 CURVE SMOOTH",
"216 505 OFFCURVE",
"281 602 OFFCURVE",
"392 602 CURVE SMOOTH",
"506 602 OFFCURVE",
"580 484 OFFCURVE",
"580 310 CURVE SMOOTH",
"580 154 OFFCURVE",
"520 65 OFFCURVE",
"413 65 CURVE SMOOTH"
);
}
);
width = 792;
}
);
leftKerningGroup = C;
note = O;
rightKerningGroup = D;
unicode = 004F;
},
{
glyphname = OE;
lastChange = "2018-04-23 14:49:54 +0000";
layers = (
{
color = -1;
layerId = "D75C065C-4EF6-4055-9CF2-70010DBCD897";
paths = (
{
closed = 1;
nodes = (
"399.333 -7 OFFCURVE",
"437 -5.667 OFFCURVE",
"477 -3 CURVE SMOOTH",
"525.667 0.333 OFFCURVE",
"565 2 OFFCURVE",
"595 2 CURVE SMOOTH",
"623.667 2 OFFCURVE",
"678.167 1 OFFCURVE",
"758.5 -1 CURVE SMOOTH",
"838.833 -3 OFFCURVE",
"898 -4 OFFCURVE",
"936 -4 CURVE",
"940.406 29.048 OFFCURVE",
"979.323 134.24 OFFCURVE",
"990 162 CURVE",
"986 166 OFFCURVE",
"977.667 168 OFFCURVE",
"965 168 CURVE SMOOTH",
"956.333 168 OFFCURVE",
"951.667 166 OFFCURVE",
"951 162 CURVE",
"936.333 111.333 OFFCURVE",
"908 71.667 OFFCURVE",
"888 61 CURVE SMOOTH",
"866 49.667 OFFCURVE",
"824 44 OFFCURVE",
"762 44 CURVE SMOOTH",
"714 44 LINE SMOOTH",
"670.667 44 OFFCURVE",
"648 47.333 OFFCURVE",
"646 54 CURVE",
"640 71.333 OFFCURVE",
"637 101.667 OFFCURVE",
"637 145 CURVE SMOOTH",
"637 300 LINE SMOOTH",
"637 306 OFFCURVE",
"661 309 OFFCURVE",
"709 309 CURVE SMOOTH",
"771 309 OFFCURVE",
"806.333 306.333 OFFCURVE",
"815 301 CURVE",
"829.858 291.094 OFFCURVE",
"833.189 275.843 OFFCURVE",
"843 238 CURVE",
"845 232.667 OFFCURVE",
"850.333 230 OFFCURVE",
"859 230 CURVE SMOOTH",
"867 230 OFFCURVE",
"872.333 231.333 OFFCURVE",
"875 234 CURVE",
"875 423 LINE",
"871.667 426.333 OFFCURVE",
"866 428 OFFCURVE",
"858 428 CURVE SMOOTH",
"848.667 428 OFFCURVE",
"843.667 425.667 OFFCURVE",
"843 421 CURVE",
"837.162 398.623 OFFCURVE",
"829.729 364.932 OFFCURVE",
"818 362 CURVE SMOOTH",
"777.258 351.814 OFFCURVE",
"781.368 353 OFFCURVE",
"733 353 CURVE SMOOTH",
"680 353 LINE SMOOTH",
"651.333 353 OFFCURVE",
"637 355 OFFCURVE",
"637 359 CURVE SMOOTH",
"637 519 LINE SMOOTH",
"637 559 OFFCURVE",
"638.667 587 OFFCURVE",
"642 603 CURVE",
"643.333 611.667 OFFCURVE",
"672.667 616 OFFCURVE",
"730 616 CURVE SMOOTH",
"797 616 LINE SMOOTH",
"859.667 616 OFFCURVE",
"893 603.333 OFFCURVE",
"913 530 CURVE",
"913.667 525.333 OFFCURVE",
"918.333 523 OFFCURVE",
"927 523 CURVE SMOOTH",
"935.667 523 OFFCURVE",
"941.667 524.667 OFFCURVE",
"945 528 CURVE",
"943.667 536 OFFCURVE",
"939.167 555.833 OFFCURVE",
"931.5 587.5 CURVE SMOOTH",
"923.833 619.167 OFFCURVE",
"918.667 644.667 OFFCURVE",
"916 664 CURVE",
"878 664 OFFCURVE",
"821.833 662.667 OFFCURVE",
"747.5 660 CURVE SMOOTH",
"673.167 657.333 OFFCURVE",
"621.667 656 OFFCURVE",
"593 656 CURVE SMOOTH",
"567 656 OFFCURVE",
"524.333 657.833 OFFCURVE",
"465 661.5 CURVE SMOOTH",
"405.667 665.167 OFFCURVE",
"373.667 667 OFFCURVE",
"369 667 CURVE SMOOTH",
"193 667 OFFCURVE",
"50 514.667 OFFCURVE",
"50 328 CURVE SMOOTH",
"50 141.333 OFFCURVE",
"188 -7 OFFCURVE",
"364 -7 CURVE SMOOTH"
);
},
{
closed = 1;
nodes = (
"299.333 30 OFFCURVE",
"215.5 103.167 OFFCURVE",
"177.5 198.5 CURVE SMOOTH",
"158.5 246.167 OFFCURVE",
"149 296.667 OFFCURVE",
"149 350 CURVE SMOOTH",
"149 495.333 OFFCURVE",
"227.333 625 OFFCURVE",
"354 625 CURVE SMOOTH",
"435.333 625 OFFCURVE",
"480.333 618 OFFCURVE",
"515 586 CURVE SMOOTH",
"538.333 564.667 OFFCURVE",
"550 532 OFFCURVE",
"550 488 CURVE SMOOTH",
"550 192 LINE SMOOTH",
"550 146.166 OFFCURVE",
"549.081 103.671 OFFCURVE",
"526 68 CURVE SMOOTH",
"504.667 36 OFFCURVE",
"468.667 30 OFFCURVE",
"402 30 CURVE SMOOTH"
);
}
);
width = 1035;
},
{
background = {
paths = (
{
closed = 1;
nodes = (
"543 547 OFFCURVE",
"543 459 QCURVE SMOOTH",
"543 234 LINE SMOOTH",
"543 110 OFFCURVE",
"490 68 QCURVE SMOOTH",
"477 58 OFFCURVE",
"438 48 OFFCURVE",
"408 46 OFFCURVE",
"378 46 QCURVE SMOOTH",
"329 46 OFFCURVE",
"255 105 OFFCURVE",
"216 200 OFFCURVE",
"197 299 OFFCURVE",
"197 350 QCURVE SMOOTH",
"197 422 OFFCURVE",
"224 534 OFFCURVE",
"294 611 OFFCURVE",
"347 611 QCURVE SMOOTH",
"461 611 OFFCURVE",
"501 580 QCURVE SMOOTH"
);
},
{
closed = 1;
nodes = (
"41 188 OFFCURVE",
"230 -10 OFFCURVE",
"362 -10 QCURVE SMOOTH",
"367 -10 OFFCURVE",
"510 0 QCURVE SMOOTH",
"543 2 OFFCURVE",
"617 2 QCURVE SMOOTH",
"686 2 OFFCURVE",
"908 -2 OFFCURVE",
"959 -2 QCURVE",
"964 32 OFFCURVE",
"1013 170 QCURVE",
"1007 176 OFFCURVE",
"983 176 QCURVE SMOOTH",
"970 176 OFFCURVE",
"969 170 QCURVE",
"957 139 OFFCURVE",
"914 89 OFFCURVE",
"897 80 QCURVE SMOOTH",
"847 54 OFFCURVE",
"785 54 QCURVE SMOOTH",
"759 54 LINE SMOOTH",
"696 54 OFFCURVE",
"691 70 QCURVE SMOOTH",
"683 93 OFFCURVE",
"683 141 QCURVE SMOOTH",
"683 295 LINE SMOOTH",
"683 304 OFFCURVE",
"755 304 QCURVE SMOOTH",
"820 304 OFFCURVE",
"833 296 QCURVE",
"834 295 OFFCURVE",
"840 292 OFFCURVE",
"842 290 OFFCURVE",
"847 282 OFFCURVE",
"851 272 OFFCURVE",
"857 252 OFFCURVE",
"861 238 QCURVE",
"864 230 OFFCURVE",
"877 230 QCURVE SMOOTH",
"894 230 OFFCURVE",
"898 234 QCURVE",
"898 423 LINE",
"893 428 OFFCURVE",
"876 428 QCURVE SMOOTH",
"862 428 OFFCURVE",
"861 421 QCURVE",
"857 407 OFFCURVE",
"855 392 QCURVE SMOOTH",
"852 367 OFFCURVE",
"847 363 QCURVE",
"841 359 OFFCURVE",
"779 359 QCURVE SMOOTH",
"726 359 LINE SMOOTH",
"683 359 OFFCURVE",
"683 365 QCURVE SMOOTH",
"683 519 LINE SMOOTH",
"683 573 OFFCURVE",
"688 597 QCURVE",
"690 610 OFFCURVE",
"753 610 QCURVE SMOOTH",
"791 610 LINE SMOOTH",
"830 610 OFFCURVE",
"912 556 OFFCURVE",
"931 518 QCURVE",
"934 511 OFFCURVE",
"945 511 QCURVE SMOOTH",
"963 511 OFFCURVE",
"968 516 QCURVE",
"940 654 OFFCURVE",
"939 664 QCURVE",
"882 664 OFFCURVE",
"660 659 OFFCURVE",
"616 659 QCURVE SMOOTH",
"586 659 OFFCURVE",
"416 667 OFFCURVE",
"362 667 QCURVE SMOOTH",
"226 667 OFFCURVE",
"41 469 OFFCURVE",
"41 328 QCURVE SMOOTH"
);
}
);
};
color = -1;
layerId = "6D340022-02C4-426D-A0D8-A7BFACBEB22E";
paths = (
{
closed = 1;
nodes = (
"365.333 -10 OFFCURVE",
"414.667 -6.667 OFFCURVE",
"510 0 CURVE SMOOTH",
"532 1.333 OFFCURVE",
"567.667 2 OFFCURVE",
"617 2 CURVE SMOOTH",
"663 2 OFFCURVE",
"723 1.333 OFFCURVE",
"797 0 CURVE SMOOTH",
"871 -1.333 OFFCURVE",
"925 -2 OFFCURVE",
"959 -2 CURVE",
"962.333 20.667 OFFCURVE",
"980.333 78 OFFCURVE",
"1013 170 CURVE",
"1009 174 OFFCURVE",
"999 176 OFFCURVE",
"983 176 CURVE SMOOTH",
"974.333 176 OFFCURVE",
"969.667 174 OFFCURVE",
"969 170 CURVE",
"953 128.667 OFFCURVE",
"919.667 92 OFFCURVE",
"897 80 CURVE SMOOTH",
"863.667 62.667 OFFCURVE",
"826.333 54 OFFCURVE",
"785 54 CURVE SMOOTH",
"759 54 LINE SMOOTH",
"717 54 OFFCURVE",
"694.333 59.333 OFFCURVE",
"691 70 CURVE SMOOTH",
"685.667 85.333 OFFCURVE",
"683 109 OFFCURVE",
"683 141 CURVE SMOOTH",
"683 295 LINE SMOOTH",
"683 301 OFFCURVE",
"707 304 OFFCURVE",
"755 304 CURVE SMOOTH",
"798.333 304 OFFCURVE",
"824.333 301.333 OFFCURVE",
"833 296 CURVE",
"836.579 292.421 OFFCURVE",
"840.033 293.147 OFFCURVE",
"844.5 286 CURVE SMOOTH",
"848.239 280.018 OFFCURVE",
"854.975 259.088 OFFCURVE",
"861 238 CURVE",
"863 232.667 OFFCURVE",
"868.333 230 OFFCURVE",
"877 230 CURVE SMOOTH",
"888.333 230 OFFCURVE",
"895.333 231.333 OFFCURVE",
"898 234 CURVE",
"898 423 LINE",
"894.667 426.333 OFFCURVE",
"887.333 428 OFFCURVE",
"876 428 CURVE SMOOTH",
"866.667 428 OFFCURVE",
"861.667 425.667 OFFCURVE",
"861 421 CURVE",
"858.333 411.667 OFFCURVE",
"856.333 402 OFFCURVE",
"855 392 CURVE SMOOTH",
"853 375.333 OFFCURVE",
"850.333 365.667 OFFCURVE",
"847 363 CURVE",
"843 360.333 OFFCURVE",
"820.333 359 OFFCURVE",
"779 359 CURVE SMOOTH",
"726 359 LINE SMOOTH",
"697.333 359 OFFCURVE",
"683 361 OFFCURVE",
"683 365 CURVE SMOOTH",
"683 519 LINE SMOOTH",
"683 555 OFFCURVE",
"684.667 581 OFFCURVE",
"688 597 CURVE",
"689.333 605.667 OFFCURVE",
"711 610 OFFCURVE",
"753 610 CURVE SMOOTH",
"791 610 LINE SMOOTH",
"843 610 OFFCURVE",
"905.667 568.667 OFFCURVE",
"931 518 CURVE",
"933 513.333 OFFCURVE",
"937.667 511 OFFCURVE",
"945 511 CURVE SMOOTH",
"957 511 OFFCURVE",
"964.667 512.667 OFFCURVE",
"968 516 CURVE",
"949.333 608 OFFCURVE",
"939.667 657.333 OFFCURVE",
"939 664 CURVE",
"901 664 OFFCURVE",
"845 663.167 OFFCURVE",
"771 661.5 CURVE SMOOTH",
"697 659.833 OFFCURVE",
"645.333 659 OFFCURVE",
"616 659 CURVE SMOOTH",
"596 659 OFFCURVE",
"557.667 660.333 OFFCURVE",
"501 663 CURVE SMOOTH",
"444.333 665.667 OFFCURVE",
"398 667 OFFCURVE",
"362 667 CURVE SMOOTH",
"180.667 667 OFFCURVE",
"41 516 OFFCURVE",
"41 328 CURVE SMOOTH",
"41 141.333 OFFCURVE",
"186 -10 OFFCURVE",
"362 -10 CURVE SMOOTH"
);
},
{
closed = 1;
nodes = (
"246.257 46 OFFCURVE",
"197 212.995 OFFCURVE",
"197 350 CURVE SMOOTH",
"197 446 OFFCURVE",
"212.333 521.167 OFFCURVE",
"259 572.5 CURVE SMOOTH",
"282.333 598.167 OFFCURVE",
"311.667 611 OFFCURVE",
"347 611 CURVE SMOOTH",
"423 611 OFFCURVE",
"474.333 600.667 OFFCURVE",
"501 580 CURVE SMOOTH",
"529 558 OFFCURVE",
"543 517.667 OFFCURVE",
"543 459 CURVE SMOOTH",
"543 234 LINE SMOOTH",
"543 151.333 OFFCURVE",
"525.333 96 OFFCURVE",
"490 68 CURVE SMOOTH",
"463.053 47.271 OFFCURVE",
"415.786 46 OFFCURVE",
"378 46 CURVE SMOOTH"
);
}
);
width = 1036;
}
);
note = OE;
unicode = 0152;
},
{
color = 3;
glyphname = P;
lastChange = "2018-04-23 14:49:54 +0000";
layers = (
{
background = {
paths = (
{
closed = 1;
nodes = (
"627 655 OFFCURVE",
"626 650 OFFCURVE",
"626 641 CURVE SMOOTH",
"626 633 OFFCURVE",
"627 629 OFFCURVE",
"630 629 CURVE SMOOTH",
"647 629 OFFCURVE",
"695 618 OFFCURVE",
"699 607 CURVE",
"704 589 OFFCURVE",
"706 560 OFFCURVE",
"706 521 CURVE SMOOTH",
"706 143 LINE SMOOTH",
"706 88 OFFCURVE",
"704 57 OFFCURVE",
"699 49 CURVE SMOOTH",
"692 37 OFFCURVE",
"649 28 OFFCURVE",
"630 28 CURVE SMOOTH",
"628 28 OFFCURVE",
"627 24 OFFCURVE",
"627 15 CURVE SMOOTH",
"627 5 OFFCURVE",
"628 -1 OFFCURVE",
"630 -3 CURVE",
"752 2 LINE",
"772 2 OFFCURVE",
"815 0 OFFCURVE",
"882 -3 CURVE",
"883 1 OFFCURVE",
"884 6 OFFCURVE",
"884 12 CURVE SMOOTH",
"884 21 OFFCURVE",
"883 26 OFFCURVE",
"880 26 CURVE SMOOTH",
"863 26 OFFCURVE",
"808 38 OFFCURVE",
"801 55 CURVE SMOOTH",
"796 68 OFFCURVE",
"793 97 OFFCURVE",
"793 142 CURVE SMOOTH",
"793 499 LINE SMOOTH",
"793 546 OFFCURVE",
"791 606 OFFCURVE",
"805 609 CURVE",
"822 614 OFFCURVE",
"845 616 OFFCURVE",
"875 616 CURVE SMOOTH",
"962 616 OFFCURVE",
"1002 557 OFFCURVE",
"1002 462 CURVE SMOOTH",
"1002 385 OFFCURVE",
"947 320 OFFCURVE",
"880 320 CURVE SMOOTH",
"855 320 OFFCURVE",
"833 324 OFFCURVE",
"813 331 CURVE",
"812 332 OFFCURVE",
"811 331 OFFCURVE",
"810 328 CURVE",
"808 317 OFFCURVE",
"809 310 OFFCURVE",
"813 305 CURVE",
"827 286 OFFCURVE",
"853 277 OFFCURVE",
"890 277 CURVE SMOOTH",
"1015 277 OFFCURVE",
"1094 385 OFFCURVE",
"1094 477 CURVE SMOOTH",
"1094 600 OFFCURVE",
"990 660 OFFCURVE",
"891 660 CURVE SMOOTH",
"872 660 OFFCURVE",
"848 659 OFFCURVE",
"821 658 CURVE SMOOTH",
"794 657 OFFCURVE",
"770 656 OFFCURVE",
"750 656 CURVE SMOOTH",
"630 658 LINE"
);
},
{
closed = 1;
nodes = (
"87 636 LINE",
"104 637 OFFCURVE",
"126 632 OFFCURVE",
"130 630 CURVE",
"133 626 OFFCURVE",
"136 609 OFFCURVE",
"136 534 CURVE SMOOTH",
"136 403 LINE SMOOTH",
"136 327 OFFCURVE",
"132 311 OFFCURVE",
"130 308 CURVE",
"126 305 OFFCURVE",
"104 300 OFFCURVE",
"87 299 CURVE",
"88 275 LINE",
"101 276 OFFCURVE",
"154 277 OFFCURVE",
"179 277 CURVE SMOOTH",
"205 277 OFFCURVE",
"240 276 OFFCURVE",
"268 276 CURVE SMOOTH",
"396 276 OFFCURVE",
"501 348 OFFCURVE",
"501 470 CURVE SMOOTH",
"501 586 OFFCURVE",
"415 661 OFFCURVE",
"258 661 CURVE SMOOTH",
"221 661 OFFCURVE",
"184 659 OFFCURVE",
"157 659 CURVE SMOOTH",
"136 659 OFFCURVE",
"111 660 OFFCURVE",
"88 660 CURVE"
);
},
{
closed = 1;
nodes = (
"217 612 OFFCURVE",
"234 614 OFFCURVE",
"252 614 CURVE SMOOTH",
"358 614 OFFCURVE",
"411 551 OFFCURVE",
"411 454 CURVE SMOOTH",
"411 368 OFFCURVE",
"360 320 OFFCURVE",
"271 320 CURVE SMOOTH",
"243 320 OFFCURVE",
"224 321 OFFCURVE",
"205 325 CURVE",
"203 335 OFFCURVE",
"201 352 OFFCURVE",
"201 407 CURVE SMOOTH",
"201 524 LINE SMOOTH",
"201 582 OFFCURVE",
"202 597 OFFCURVE",
"203 609 CURVE"
);
}
);
};
color = -1;
layerId = "D75C065C-4EF6-4055-9CF2-70010DBCD897";
paths = (
{
closed = 1;
nodes = (
"77 0 OFFCURVE",
"133 2 OFFCURVE",
"168 2 CURVE SMOOTH",
"203 2 OFFCURVE",
"260 0 OFFCURVE",
"295 -3 CURVE",
"297 41 LINE",
"269 44 OFFCURVE",
"218 53 OFFCURVE",
"209 55 CURVE",
"205 61 OFFCURVE",
"201 87 OFFCURVE",
"201 217 CURVE SMOOTH",
"201 482 LINE SMOOTH",
"201 526 OFFCURVE",
"203 600 OFFCURVE",
"204 610 CURVE",
"221 614 OFFCURVE",
"234 616 OFFCURVE",
"256 616 CURVE SMOOTH",
"351 616 OFFCURVE",
"412 557 OFFCURVE",
"412 463 CURVE SMOOTH",
"412 370 OFFCURVE",
"367 322 OFFCURVE",
"283 322 CURVE SMOOTH",
"267 322 OFFCURVE",
"253 323 OFFCURVE",
"238 326 CURVE",
"238 282 LINE",
"255 278 OFFCURVE",
"274 276 OFFCURVE",
"293 276 CURVE SMOOTH",
"414 276 OFFCURVE",
"506 361 OFFCURVE",
"506 473 CURVE SMOOTH",
"506 589 OFFCURVE",
"413 661 OFFCURVE",
"263 661 CURVE SMOOTH",
"229 661 OFFCURVE",
"196 659 OFFCURVE",
"168 659 CURVE SMOOTH",
"118 659 OFFCURVE",
"75 660 OFFCURVE",
"40 661 CURVE",
"38 619 LINE",
"64 618 OFFCURVE",
"99 609 OFFCURVE",
"106 605 CURVE",
"110 598 OFFCURVE",
"114 572 OFFCURVE",
"114 442 CURVE SMOOTH",
"114 217 LINE SMOOTH",
"114 87 OFFCURVE",
"110 61 OFFCURVE",
"106 54 CURVE",
"99 50 OFFCURVE",
"66 40 OFFCURVE",
"43 39 CURVE",
"45 -3 LINE"
);
}
);
width = 521;
},
{
background = {
paths = (
{
closed = 1;
nodes = (
"29 605 LINE",
"57 604 OFFCURVE",
"89 599 OFFCURVE",
"100 591 CURVE",
"104 583 OFFCURVE",
"108 527 OFFCURVE",
"108 421 CURVE SMOOTH",
"108 239 LINE SMOOTH",
"108 133 OFFCURVE",
"104 77 OFFCURVE",
"100 69 CURVE",
"89 61 OFFCURVE",
"59 54 OFFCURVE",
"34 51 CURVE",
"37 -5 LINE",
"68 -1 OFFCURVE",
"141 0 OFFCURVE",
"186 0 CURVE SMOOTH",
"231 0 OFFCURVE",
"306 -1 OFFCURVE",
"340 -5 CURVE",
"343 53 LINE",
"315 56 OFFCURVE",
"279 62 OFFCURVE",
"252 69 CURVE",
"248 77 OFFCURVE",
"244 133 OFFCURVE",
"244 199 CURVE SMOOTH",
"244 421 LINE SMOOTH",
"244 527 OFFCURVE",
"244 581 OFFCURVE",
"245 596 CURVE",
"258 599 OFFCURVE",
"275 601 OFFCURVE",
"286 601 CURVE SMOOTH",
"360 601 OFFCURVE",
"413 556 OFFCURVE",
"413 459 CURVE SMOOTH",
"413 367 OFFCURVE",
"376 330 OFFCURVE",
"313 330 CURVE SMOOTH",
"298 330 OFFCURVE",
"286 331 OFFCURVE",
"278 332 CURVE",
"273 279 LINE",
"291 274 OFFCURVE",
"310 272 OFFCURVE",
"338 272 CURVE SMOOTH",
"458 272 OFFCURVE",
"561 348 OFFCURVE",
"561 472 CURVE SMOOTH",
"561 589 OFFCURVE",
"470 661 OFFCURVE",
"311 661 CURVE SMOOTH",
"275 661 OFFCURVE",
"199 659 OFFCURVE",
"171 659 CURVE SMOOTH",
"126 659 OFFCURVE",
"66 659 OFFCURVE",
"32 661 CURVE"
);
}
);
};
color = -1;
layerId = "6D340022-02C4-426D-A0D8-A7BFACBEB22E";
paths = (
{
closed = 1;
nodes = (
"68 -1 OFFCURVE",
"141 0 OFFCURVE",
"186 0 CURVE SMOOTH",
"231 0 OFFCURVE",
"306 -1 OFFCURVE",
"340 -5 CURVE",
"343 53 LINE",
"315 56 OFFCURVE",
"279 62 OFFCURVE",
"252 69 CURVE",
"248 77 OFFCURVE",
"244 133 OFFCURVE",
"244 199 CURVE SMOOTH",
"244 416 LINE SMOOTH",
"244 525 OFFCURVE",
"244 581 OFFCURVE",
"245 595 CURVE",
"259 600 OFFCURVE",
"273 602 OFFCURVE",
"289 602 CURVE SMOOTH",
"373 602 OFFCURVE",
"424 544 OFFCURVE",
"424 451 CURVE SMOOTH",
"424 372 OFFCURVE",
"382 320 OFFCURVE",
"318 320 CURVE SMOOTH",
"306 320 OFFCURVE",
"295 321 OFFCURVE",
"282 322 CURVE",
"282 266 LINE",
"295 263 OFFCURVE",
"309 261 OFFCURVE",
"324 261 CURVE SMOOTH",
"466 261 OFFCURVE",
"570 348 OFFCURVE",
"570 467 CURVE SMOOTH",
"570 588 OFFCURVE",
"473 661 OFFCURVE",
"303 661 CURVE SMOOTH",
"264 661 OFFCURVE",
"227 659 OFFCURVE",
"191 659 CURVE SMOOTH",
"126 659 OFFCURVE",
"66 659 OFFCURVE",
"32 661 CURVE",
"29 605 LINE",
"57 604 OFFCURVE",
"89 599 OFFCURVE",
"100 591 CURVE",
"104 583 OFFCURVE",
"108 527 OFFCURVE",
"108 421 CURVE SMOOTH",
"108 239 LINE SMOOTH",
"108 133 OFFCURVE",
"104 77 OFFCURVE",
"100 69 CURVE",
"89 61 OFFCURVE",
"59 54 OFFCURVE",
"34 51 CURVE",
"37 -5 LINE"
);
}
);
width = 594;
}
);
leftKerningGroup = B;
note = P;
rightKerningGroup = P;
unicode = 0050;
},
{
color = 3;
glyphname = Thorn;
lastChange = "2018-04-23 14:49:54 +0000";
layers = (
{
background = {
paths = (
{
closed = 1;
nodes = (
"202 552 LINE SMOOTH",
"202 582 OFFCURVE",
"206 598 OFFCURVE",
"210 605 CURVE",
"217 609 OFFCURVE",
"252 619 OFFCURVE",
"275 619 CURVE",
"273 661 LINE",
"241 659 OFFCURVE",
"191 657 OFFCURVE",
"158 657 CURVE SMOOTH",
"125 657 OFFCURVE",
"75 659 OFFCURVE",
"43 661 CURVE",
"41 619 LINE",
"64 619 OFFCURVE",
"99 609 OFFCURVE",
"106 605 CURVE",
"110 598 OFFCURVE",
"114 572 OFFCURVE",
"114 442 CURVE SMOOTH",
"114 217 LINE SMOOTH",
"114 87 OFFCURVE",
"110 61 OFFCURVE",
"106 54 CURVE",
"99 50 OFFCURVE",
"64 40 OFFCURVE",
"38 39 CURVE",
"40 -3 LINE",
"75 0 OFFCURVE",
"125 2 OFFCURVE",
"158 2 CURVE SMOOTH",
"191 2 OFFCURVE",
"243 0 OFFCURVE",
"289 -3 CURVE",
"291 41 LINE",
"254 42 OFFCURVE",
"217 50 OFFCURVE",
"210 54 CURVE",
"206 61 OFFCURVE",
"202 87 OFFCURVE",
"202 127 CURVE SMOOTH"
);
},
{
closed = 1;
nodes = (
"185 485 LINE",
"203 489 OFFCURVE",
"225 493 OFFCURVE",
"254 493 CURVE SMOOTH",
"354 493 OFFCURVE",
"411 441 OFFCURVE",
"411 343 CURVE SMOOTH",
"411 248 OFFCURVE",
"363 202 OFFCURVE",
"275 202 CURVE SMOOTH",
"232 202 OFFCURVE",
"207 208 OFFCURVE",
"177 218 CURVE",
"177 168 LINE",
"206 161 OFFCURVE",
"245 155 OFFCURVE",
"271 155 CURVE SMOOTH",
"412 155 OFFCURVE",
"505 231 OFFCURVE",
"505 351 CURVE SMOOTH",
"505 470 OFFCURVE",
"415 539 OFFCURVE",
"266 539 CURVE SMOOTH",
"236 539 OFFCURVE",
"211 537 OFFCURVE",
"185 532 CURVE"
);
}
);
};
color = -1;
layerId = "D75C065C-4EF6-4055-9CF2-70010DBCD897";
paths = (
{
closed = 1;
nodes = (
"75 0 OFFCURVE",
"125 2 OFFCURVE",
"158 2 CURVE SMOOTH",
"191 2 OFFCURVE",
"243 0 OFFCURVE",
"289 -3 CURVE",
"291 41 LINE",
"254 42 OFFCURVE",
"217 50 OFFCURVE",
"210 54 CURVE",
"206 61 OFFCURVE",
"202 87 OFFCURVE",
"202 127 CURVE SMOOTH",
"202 487 LINE",
"219 492 OFFCURVE",
"233 493 OFFCURVE",
"255 493 CURVE SMOOTH",
"350 493 OFFCURVE",
"411 434 OFFCURVE",
"411 340 CURVE SMOOTH",
"411 247 OFFCURVE",
"366 199 OFFCURVE",
"282 199 CURVE SMOOTH",
"266 199 OFFCURVE",
"252 200 OFFCURVE",
"237 203 CURVE",
"237 159 LINE",
"254 155 OFFCURVE",
"273 153 OFFCURVE",
"292 153 CURVE SMOOTH",
"413 153 OFFCURVE",
"505 238 OFFCURVE",
"505 350 CURVE SMOOTH",
"505 466 OFFCURVE",
"412 538 OFFCURVE",
"262 538 CURVE SMOOTH",
"231 538 OFFCURVE",
"211 536 OFFCURVE",
"185 532 CURVE",
"202 492 LINE",
"202 552 LINE SMOOTH",
"202 582 OFFCURVE",
"206 598 OFFCURVE",
"210 605 CURVE",
"217 609 OFFCURVE",
"252 619 OFFCURVE",
"275 619 CURVE",
"273 661 LINE",
"241 659 OFFCURVE",
"191 657 OFFCURVE",
"158 657 CURVE SMOOTH",
"125 657 OFFCURVE",
"75 659 OFFCURVE",
"43 661 CURVE",
"41 619 LINE",
"64 619 OFFCURVE",
"99 609 OFFCURVE",
"106 605 CURVE",
"110 598 OFFCURVE",
"114 572 OFFCURVE",
"114 442 CURVE SMOOTH",
"114 217 LINE SMOOTH",
"114 87 OFFCURVE",
"110 61 OFFCURVE",
"106 54 CURVE",
"99 50 OFFCURVE",
"64 40 OFFCURVE",
"38 39 CURVE",
"40 -3 LINE"
);
}
);
width = 521;
},
{
background = {
paths = (
{
closed = 1;
nodes = (
"246 421 LINE SMOOTH",
"246 527 OFFCURVE",
"250 583 OFFCURVE",
"254 591 CURVE",
"265 599 OFFCURVE",
"297 606 OFFCURVE",
"325 607 CURVE",
"322 663 LINE",
"288 661 OFFCURVE",
"231 658 OFFCURVE",
"177 658 CURVE SMOOTH",
"123 658 OFFCURVE",
"66 661 OFFCURVE",
"32 663 CURVE",
"29 607 LINE",
"57 606 OFFCURVE",
"89 599 OFFCURVE",
"100 591 CURVE",
"104 583 OFFCURVE",
"108 527 OFFCURVE",
"108 421 CURVE SMOOTH",
"108 239 LINE SMOOTH",
"108 133 OFFCURVE",
"104 77 OFFCURVE",
"100 69 CURVE",
"89 61 OFFCURVE",
"57 54 OFFCURVE",
"29 51 CURVE",
"32 -5 LINE",
"66 -1 OFFCURVE",
"123 2 OFFCURVE",
"177 2 CURVE SMOOTH",
"231 2 OFFCURVE",
"288 -1 OFFCURVE",
"322 -5 CURVE",
"325 51 LINE",
"297 54 OFFCURVE",
"265 61 OFFCURVE",
"254 69 CURVE",
"250 77 OFFCURVE",
"246 133 OFFCURVE",
"246 239 CURVE SMOOTH"
);
},
{
closed = 1;
nodes = (
"244 460 LINE",
"244 473 OFFCURVE",
"245 481 OFFCURVE",
"245 485 CURVE",
"259 490 OFFCURVE",
"273 492 OFFCURVE",
"289 492 CURVE SMOOTH",
"373 492 OFFCURVE",
"424 434 OFFCURVE",
"424 341 CURVE SMOOTH",
"424 262 OFFCURVE",
"382 210 OFFCURVE",
"318 210 CURVE SMOOTH",
"306 210 OFFCURVE",
"295 211 OFFCURVE",
"282 212 CURVE",
"282 156 LINE",
"295 153 OFFCURVE",
"309 151 OFFCURVE",
"324 151 CURVE SMOOTH",
"466 151 OFFCURVE",
"570 238 OFFCURVE",
"570 357 CURVE SMOOTH",
"570 478 OFFCURVE",
"473 551 OFFCURVE",
"303 551 CURVE SMOOTH",
"268 551 OFFCURVE",
"235 549 OFFCURVE",
"203 549 CURVE"
);
}
);
};
color = -1;
layerId = "6D340022-02C4-426D-A0D8-A7BFACBEB22E";
paths = (
{
closed = 1;
nodes = (
"66 -1 OFFCURVE",
"123 2 OFFCURVE",
"177 2 CURVE SMOOTH",
"231 2 OFFCURVE",
"288 -1 OFFCURVE",
"334 -5 CURVE",
"337 52 LINE",
"297 55 OFFCURVE",
"265 61 OFFCURVE",
"254 69 CURVE",
"250 77 OFFCURVE",
"246 133 OFFCURVE",
"246 239 CURVE SMOOTH",
"246 487 LINE",
"259 490 OFFCURVE",
"274 492 OFFCURVE",
"289 492 CURVE SMOOTH",
"373 492 OFFCURVE",
"424 434 OFFCURVE",
"424 341 CURVE SMOOTH",
"424 262 OFFCURVE",
"382 210 OFFCURVE",
"318 210 CURVE SMOOTH",
"306 210 OFFCURVE",
"295 211 OFFCURVE",
"282 212 CURVE",
"282 156 LINE",
"295 153 OFFCURVE",
"309 151 OFFCURVE",
"324 151 CURVE SMOOTH",
"466 151 OFFCURVE",
"570 238 OFFCURVE",
"570 357 CURVE SMOOTH",
"570 478 OFFCURVE",
"473 551 OFFCURVE",
"303 551 CURVE SMOOTH",
"268 551 OFFCURVE",
"235 549 OFFCURVE",
"203 549 CURVE",
"246 501 LINE",
"246 553 LINE SMOOTH",
"246 573 OFFCURVE",
"250 584 OFFCURVE",
"254 591 CURVE",
"265 599 OFFCURVE",
"297 606 OFFCURVE",
"325 607 CURVE",
"322 663 LINE",
"288 661 OFFCURVE",
"231 658 OFFCURVE",
"177 658 CURVE SMOOTH",
"123 658 OFFCURVE",
"66 661 OFFCURVE",
"32 663 CURVE",
"29 607 LINE",
"57 606 OFFCURVE",
"89 599 OFFCURVE",
"100 591 CURVE",
"104 583 OFFCURVE",
"108 527 OFFCURVE",
"108 421 CURVE SMOOTH",
"108 239 LINE SMOOTH",
"108 133 OFFCURVE",
"104 77 OFFCURVE",
"100 69 CURVE",
"89 61 OFFCURVE",
"57 54 OFFCURVE",
"29 51 CURVE",
"32 -5 LINE"
);
}
);
width = 594;
}
);
leftKerningGroup = B;
note = Thorn;
rightKerningGroup = Thorn;
unicode = 00DE;
},
{
color = 3;
glyphname = Q;
lastChange = "2018-04-23 14:49:54 +0000";
layers = (
{
background = {
paths = (
{
closed = 1;
nodes = (
"396 -7 LINE",
"570 -7 OFFCURVE",
"708 143 OFFCURVE",
"708 333 CURVE SMOOTH",
"708 532 OFFCURVE",
"579 670 OFFCURVE",
"393 670 CURVE SMOOTH",
"202 670 OFFCURVE",
"58 525 OFFCURVE",
"58 328 CURVE SMOOTH",
"58 128 OFFCURVE",
"194 -10 OFFCURVE",
"389 -10 CURVE"
);
},
{
closed = 1;
nodes = (
"712 -148 OFFCURVE",
"762 -136 OFFCURVE",
"802 -113 CURVE",
"793 -73 LINE",
"768 -80 OFFCURVE",
"744 -84 OFFCURVE",
"722 -84 CURVE SMOOTH",
"682 -84 OFFCURVE",
"642 -71 OFFCURVE",
"590 -41 CURVE SMOOTH",
"546 -16 OFFCURVE",
"508 -1 OFFCURVE",
"432 5 CURVE",
"315 5 LINE",
"348 -5 OFFCURVE",
"379 -27 OFFCURVE",
"413 -51 CURVE SMOOTH",
"446 -73 OFFCURVE",
"473 -90 OFFCURVE",
"501 -106 CURVE SMOOTH",
"551 -134 OFFCURVE",
"603 -148 OFFCURVE",
"662 -148 CURVE SMOOTH"
);
},
{
closed = 1;
nodes = (
"264 44 OFFCURVE",
"166 170 OFFCURVE",
"166 346 CURVE SMOOTH",
"166 514 OFFCURVE",
"247 618 OFFCURVE",
"380 618 CURVE SMOOTH",
"513 618 OFFCURVE",
"604 491 OFFCURVE",
"604 308 CURVE SMOOTH",
"604 148 OFFCURVE",
"524 44 OFFCURVE",
"401 44 CURVE SMOOTH"
);
}
);
};
color = -1;
layerId = "D75C065C-4EF6-4055-9CF2-70010DBCD897";
paths = (
{
closed = 1;
nodes = (
"396 -7 LINE",
"573 -7 OFFCURVE",
"708 143 OFFCURVE",
"708 333 CURVE SMOOTH",
"708 532 OFFCURVE",
"579 670 OFFCURVE",
"393 670 CURVE SMOOTH",
"202 670 OFFCURVE",
"58 525 OFFCURVE",
"58 328 CURVE SMOOTH",
"58 128 OFFCURVE",
"194 -9 OFFCURVE",
"389 -9 CURVE"
);
},
{
closed = 1;
nodes = (
"724 -148 OFFCURVE",
"776 -136 OFFCURVE",
"817 -113 CURVE",
"807 -73 LINE",
"782 -80 OFFCURVE",
"757 -84 OFFCURVE",
"734 -84 CURVE SMOOTH",
"693 -84 OFFCURVE",
"648 -71 OFFCURVE",
"594 -41 CURVE SMOOTH",
"549 -16 OFFCURVE",
"514 -1 OFFCURVE",
"456 5 CURVE",
"315 5 LINE",
"349 -5 OFFCURVE",
"381 -27 OFFCURVE",
"416 -51 CURVE SMOOTH",
"450 -73 OFFCURVE",
"478 -90 OFFCURVE",
"507 -106 CURVE SMOOTH",
"558 -134 OFFCURVE",
"612 -148 OFFCURVE",
"672 -148 CURVE SMOOTH"
);
},
{
closed = 1;
nodes = (
"264 44 OFFCURVE",
"166 170 OFFCURVE",
"166 346 CURVE SMOOTH",
"166 514 OFFCURVE",
"247 618 OFFCURVE",
"380 618 CURVE SMOOTH",
"513 618 OFFCURVE",
"604 491 OFFCURVE",
"604 308 CURVE SMOOTH",
"604 148 OFFCURVE",
"524 44 OFFCURVE",
"401 44 CURVE SMOOTH"
);
}
);
width = 765;
},
{
background = {
paths = (
{
closed = 1;
nodes = (
"409 -5 LINE",
"567 -5 OFFCURVE",
"740 118 OFFCURVE",
"740 337 CURVE SMOOTH",
"740 534 OFFCURVE",
"602 670 OFFCURVE",
"405 670 CURVE SMOOTH",
"203 670 OFFCURVE",
"53 524 OFFCURVE",
"53 323 CURVE SMOOTH",
"53 127 OFFCURVE",
"200 -10 OFFCURVE",
"404 -10 CURVE"
);
},
{
closed = 1;
nodes = (
"737 -161 OFFCURVE",
"791 -144 OFFCURVE",
"830 -119 CURVE",
"815 -65 LINE",
"789 -72 OFFCURVE",
"765 -75 OFFCURVE",
"745 -75 CURVE SMOOTH",
"708 -75 OFFCURVE",
"678 -70 OFFCURVE",
"615 -31 CURVE SMOOTH",
"572 -5 OFFCURVE",
"525 10 OFFCURVE",
"472 14 CURVE",
"297 14 LINE",
"331 -2 OFFCURVE",
"359 -21 OFFCURVE",
"382 -38 CURVE SMOOTH",
"402 -53 OFFCURVE",
"422 -69 OFFCURVE",
"443 -84 CURVE SMOOTH",
"502 -126 OFFCURVE",
"569 -161 OFFCURVE",
"677 -161 CURVE SMOOTH"
);
},
{
closed = 1;
nodes = (
"298 65 OFFCURVE",
"216 183 OFFCURVE",
"216 352 CURVE SMOOTH",
"216 505 OFFCURVE",
"281 602 OFFCURVE",
"392 602 CURVE SMOOTH",
"506 602 OFFCURVE",
"580 484 OFFCURVE",
"580 310 CURVE SMOOTH",
"580 154 OFFCURVE",
"520 65 OFFCURVE",
"413 65 CURVE SMOOTH"
);
}
);
};
color = -1;
layerId = "6D340022-02C4-426D-A0D8-A7BFACBEB22E";
paths = (
{
closed = 1;
nodes = (
"409 -5 LINE",
"571 -5 OFFCURVE",
"740 118 OFFCURVE",
"740 337 CURVE SMOOTH",
"740 534 OFFCURVE",
"602 670 OFFCURVE",
"405 670 CURVE SMOOTH",
"203 670 OFFCURVE",
"53 524 OFFCURVE",
"53 323 CURVE SMOOTH",
"53 127 OFFCURVE",
"200 -8 OFFCURVE",
"404 -8 CURVE"
);
},
{
closed = 1;
nodes = (
"747 -161 OFFCURVE",
"802 -144 OFFCURVE",
"842 -119 CURVE",
"827 -65 LINE",
"800 -72 OFFCURVE",
"775 -75 OFFCURVE",
"755 -75 CURVE SMOOTH",
"709 -75 OFFCURVE",
"677 -64 OFFCURVE",
"622 -31 CURVE SMOOTH",
"578 -5 OFFCURVE",
"530 9 OFFCURVE",
"476 12 CURVE",
"297 12 LINE",
"332 -3 OFFCURVE",
"360 -21 OFFCURVE",
"384 -38 CURVE SMOOTH",
"404 -53 OFFCURVE",
"425 -69 OFFCURVE",
"446 -84 CURVE SMOOTH",
"507 -126 OFFCURVE",
"575 -161 OFFCURVE",
"685 -161 CURVE SMOOTH"
);
},
{
closed = 1;
nodes = (
"298 65 OFFCURVE",
"216 183 OFFCURVE",
"216 352 CURVE SMOOTH",
"216 505 OFFCURVE",
"281 602 OFFCURVE",
"392 602 CURVE SMOOTH",
"506 602 OFFCURVE",
"580 484 OFFCURVE",
"580 310 CURVE SMOOTH",
"580 154 OFFCURVE",
"520 65 OFFCURVE",
"413 65 CURVE SMOOTH"
);
}
);
width = 792;
}
);
leftKerningGroup = C;
note = Q;
rightKerningGroup = D;
unicode = 0051;
},
{
color = 3;
glyphname = R;
lastChange = "2018-04-23 14:49:54 +0000";
layers = (
{
background = {
paths = (
{
closed = 1;
nodes = (
"77 0 OFFCURVE",
"126 2 OFFCURVE",
"159 2 CURVE SMOOTH",
"192 2 OFFCURVE",
"242 0 OFFCURVE",
"277 -3 CURVE",
"279 39 LINE",
"253 41 OFFCURVE",
"220 51 OFFCURVE",
"209 54 CURVE",
"206 61 OFFCURVE",
"203 87 OFFCURVE",
"203 217 CURVE SMOOTH",
"203 461 LINE SMOOTH",
"203 557 OFFCURVE",
"203 602 OFFCURVE",
"205 610 CURVE",
"218 614 OFFCURVE",
"243 617 OFFCURVE",
"271 617 CURVE SMOOTH",
"356 617 OFFCURVE",
"408 576 OFFCURVE",
"408 489 CURVE SMOOTH",
"408 406 OFFCURVE",
"360 354 OFFCURVE",
"251 354 CURVE SMOOTH",
"229 354 OFFCURVE",
"212 354 OFFCURVE",
"186 356 CURVE",
"186 308 LINE",
"247 308 LINE SMOOTH",
"397 308 OFFCURVE",
"500 389 OFFCURVE",
"500 502 CURVE SMOOTH",
"500 604 OFFCURVE",
"429 662 OFFCURVE",
"290 662 CURVE SMOOTH",
"230 662 OFFCURVE",
"179 659 OFFCURVE",
"143 659 CURVE SMOOTH",
"108 659 OFFCURVE",
"76 659 OFFCURVE",
"41 660 CURVE",
"39 618 LINE",
"65 619 OFFCURVE",
"100 612 OFFCURVE",
"107 608 CURVE",
"111 601 OFFCURVE",
"115 572 OFFCURVE",
"115 442 CURVE SMOOTH",
"115 217 LINE SMOOTH",
"115 87 OFFCURVE",
"111 61 OFFCURVE",
"107 54 CURVE",
"100 50 OFFCURVE",
"67 40 OFFCURVE",
"41 39 CURVE",
"43 -3 LINE"
);
},
{
closed = 1;
nodes = (
"574 -11 OFFCURVE",
"591 -9 OFFCURVE",
"604 -7 CURVE",
"605 30 LINE",
"555 37 OFFCURVE",
"525 54 OFFCURVE",
"449 169 CURVE SMOOTH",
"332 345 LINE",
"258 329 LINE",
"334 189 LINE SMOOTH",
"418 34 OFFCURVE",
"467 -11 OFFCURVE",
"561 -11 CURVE SMOOTH"
);
}
);
};
color = -1;
layerId = "D75C065C-4EF6-4055-9CF2-70010DBCD897";
paths = (
{
closed = 1;
nodes = (
"77 0 OFFCURVE",
"126 2 OFFCURVE",
"159 2 CURVE SMOOTH",
"192 2 OFFCURVE",
"242 0 OFFCURVE",
"277 -3 CURVE",
"279 39 LINE",
"253 41 OFFCURVE",
"220 51 OFFCURVE",
"209 54 CURVE",
"206 61 OFFCURVE",
"203 87 OFFCURVE",
"203 217 CURVE SMOOTH",
"203 461 LINE SMOOTH",
"203 557 OFFCURVE",
"203 602 OFFCURVE",
"205 610 CURVE",
"218 614 OFFCURVE",
"243 617 OFFCURVE",
"271 617 CURVE SMOOTH",
"354 617 OFFCURVE",
"404 576 OFFCURVE",
"404 489 CURVE SMOOTH",
"404 406 OFFCURVE",
"348 354 OFFCURVE",
"251 354 CURVE SMOOTH",
"229 354 OFFCURVE",
"212 354 OFFCURVE",
"186 356 CURVE",
"186 308 LINE",
"257 308 LINE SMOOTH",
"395 308 OFFCURVE",
"496 389 OFFCURVE",
"496 502 CURVE SMOOTH",
"496 604 OFFCURVE",
"426 662 OFFCURVE",
"288 662 CURVE SMOOTH",
"229 662 OFFCURVE",
"179 659 OFFCURVE",
"143 659 CURVE SMOOTH",
"108 659 OFFCURVE",
"76 659 OFFCURVE",
"41 660 CURVE",
"39 618 LINE",
"65 619 OFFCURVE",
"100 612 OFFCURVE",
"107 608 CURVE",
"111 601 OFFCURVE",
"115 572 OFFCURVE",
"115 442 CURVE SMOOTH",
"115 217 LINE SMOOTH",
"115 87 OFFCURVE",
"111 61 OFFCURVE",
"107 54 CURVE",
"100 50 OFFCURVE",
"67 40 OFFCURVE",
"41 39 CURVE",
"43 -3 LINE"
);
},
{
closed = 1;
nodes = (
"587 -11 OFFCURVE",
"604 -9 OFFCURVE",
"617 -7 CURVE",
"619 30 LINE",
"566 37 OFFCURVE",
"536 54 OFFCURVE",
"456 169 CURVE SMOOTH",
"333 345 LINE",
"260 329 LINE",
"340 189 LINE SMOOTH",
"428 33 OFFCURVE",
"480 -11 OFFCURVE",
"574 -11 CURVE SMOOTH"
);
}
);
width = 630;
},
{
background = {
paths = (
{
closed = 1;
nodes = (
"68 -1 OFFCURVE",
"123 2 OFFCURVE",
"177 2 CURVE SMOOTH",
"231 2 OFFCURVE",
"284 -1 OFFCURVE",
"312 -5 CURVE",
"315 51 LINE",
"292 54 OFFCURVE",
"262 61 OFFCURVE",
"250 69 CURVE",
"249 79 OFFCURVE",
"246 133 OFFCURVE",
"246 239 CURVE SMOOTH",
"246 432 LINE SMOOTH",
"246 532 OFFCURVE",
"248 594 OFFCURVE",
"250 601 CURVE",
"261 604 OFFCURVE",
"277 607 OFFCURVE",
"296 607 CURVE SMOOTH",
"361 607 OFFCURVE",
"410 571 OFFCURVE",
"410 490 CURVE SMOOTH",
"410 405 OFFCURVE",
"361 363 OFFCURVE",
"281 363 CURVE SMOOTH",
"268 363 OFFCURVE",
"253 363 OFFCURVE",
"235 364 CURVE",
"235 304 LINE",
"301 304 LINE SMOOTH",
"447 303 OFFCURVE",
"555 384 OFFCURVE",
"555 494 CURVE SMOOTH",
"555 611 OFFCURVE",
"466 663 OFFCURVE",
"314 663 CURVE SMOOTH",
"265 663 OFFCURVE",
"213 659 OFFCURVE",
"177 659 CURVE SMOOTH",
"132 659 OFFCURVE",
"85 659 OFFCURVE",
"32 661 CURVE",
"29 605 LINE",
"57 605 OFFCURVE",
"89 599 OFFCURVE",
"100 591 CURVE",
"104 583 OFFCURVE",
"108 527 OFFCURVE",
"108 421 CURVE SMOOTH",
"108 239 LINE SMOOTH",
"108 133 OFFCURVE",
"105 77 OFFCURVE",
"102 69 CURVE",
"90 61 OFFCURVE",
"59 54 OFFCURVE",
"32 51 CURVE",
"35 -5 LINE"
);
},
{
closed = 1;
nodes = (
"626 -13 OFFCURVE",
"648 -11 OFFCURVE",
"670 -7 CURVE",
"672 41 LINE",
"620 52 OFFCURVE",
"575 91 OFFCURVE",
"526 162 CURVE SMOOTH",
"401 345 LINE",
"291 320 LINE",
"355 181 LINE SMOOTH",
"420 40 OFFCURVE",
"488 -13 OFFCURVE",
"605 -13 CURVE SMOOTH"
);
}
);
};
color = -1;
layerId = "6D340022-02C4-426D-A0D8-A7BFACBEB22E";
paths = (
{
closed = 1;
nodes = (
"68 -1 OFFCURVE",
"123 2 OFFCURVE",
"177 2 CURVE SMOOTH",
"231 2 OFFCURVE",
"284 -1 OFFCURVE",
"312 -5 CURVE",
"315 51 LINE",
"292 54 OFFCURVE",
"262 61 OFFCURVE",
"250 69 CURVE",
"249 79 OFFCURVE",
"246 133 OFFCURVE",
"246 239 CURVE SMOOTH",
"246 432 LINE SMOOTH",
"246 532 OFFCURVE",
"248 594 OFFCURVE",
"250 601 CURVE",
"261 604 OFFCURVE",
"277 607 OFFCURVE",
"296 607 CURVE SMOOTH",
"361 607 OFFCURVE",
"410 571 OFFCURVE",
"410 490 CURVE SMOOTH",
"410 405 OFFCURVE",
"351 363 OFFCURVE",
"281 363 CURVE SMOOTH",
"268 363 OFFCURVE",
"253 363 OFFCURVE",
"235 364 CURVE",
"235 304 LINE",
"301 304 LINE SMOOTH",
"447 303 OFFCURVE",
"555 384 OFFCURVE",
"555 494 CURVE SMOOTH",
"555 611 OFFCURVE",
"466 663 OFFCURVE",
"314 663 CURVE SMOOTH",
"265 663 OFFCURVE",
"213 659 OFFCURVE",
"177 659 CURVE SMOOTH",
"132 659 OFFCURVE",
"85 659 OFFCURVE",
"32 661 CURVE",
"29 605 LINE",
"57 605 OFFCURVE",
"89 599 OFFCURVE",
"100 591 CURVE",
"104 583 OFFCURVE",
"108 527 OFFCURVE",
"108 421 CURVE SMOOTH",
"108 239 LINE SMOOTH",
"108 133 OFFCURVE",
"105 77 OFFCURVE",
"102 69 CURVE",
"90 61 OFFCURVE",
"59 54 OFFCURVE",
"32 51 CURVE",
"35 -5 LINE"
);
},
{
closed = 1;
nodes = (
"632 -13 OFFCURVE",
"654 -11 OFFCURVE",
"676 -7 CURVE",
"677 41 LINE",
"624 52 OFFCURVE",
"577 91 OFFCURVE",
"527 162 CURVE SMOOTH",
"397 345 LINE",
"283 320 LINE",
"350 181 LINE SMOOTH",
"416 43 OFFCURVE",
"490 -13 OFFCURVE",
"611 -13 CURVE SMOOTH"
);
}
);
width = 675;
}
);
leftKerningGroup = B;
note = R;
rightKerningGroup = R;
unicode = 0052;
},
{
color = 4;
glyphname = S;
lastChange = "2018-04-23 14:49:54 +0000";
layers = (
{
background = {
paths = (
{
closed = 1;
nodes = (
"983 -10 OFFCURVE",
"1081 71 OFFCURVE",
"1081 175 CURVE SMOOTH",
"1081 251 OFFCURVE",
"1042 302 OFFCURVE",
"902 369 CURVE SMOOTH",
"796 420 OFFCURVE",
"761 456 OFFCURVE",
"761 515 CURVE SMOOTH",
"761 577 OFFCURVE",
"806 624 OFFCURVE",
"884 624 CURVE SMOOTH",
"957 624 OFFCURVE",
"990 594 OFFCURVE",
"1005 513 CURVE",
"1048 513 LINE",
"1046 565 OFFCURVE",
"1043 606 OFFCURVE",
"1040 647 CURVE",
"995 663 OFFCURVE",
"945 670 OFFCURVE",
"894 670 CURVE SMOOTH",
"779 670 OFFCURVE",
"669 608 OFFCURVE",
"669 490 CURVE SMOOTH",
"669 414 OFFCURVE",
"706 363 OFFCURVE",
"847 295 CURVE SMOOTH",
"957 242 OFFCURVE",
"988 210 OFFCURVE",
"988 149 CURVE SMOOTH",
"988 81 OFFCURVE",
"939 38 OFFCURVE",
"863 38 CURVE SMOOTH",
"773 38 OFFCURVE",
"721 84 OFFCURVE",
"710 174 CURVE",
"665 174 LINE",
"665 121 OFFCURVE",
"666 80 OFFCURVE",
"669 37 CURVE",
"713 9 OFFCURVE",
"788 -10 OFFCURVE",
"855 -10 CURVE SMOOTH"
);
},
{
closed = 1;
nodes = (
"402 -10 OFFCURVE",
"481 81 OFFCURVE",
"481 173 CURVE SMOOTH",
"481 251 OFFCURVE",
"442 301 OFFCURVE",
"302 369 CURVE SMOOTH",
"196 420 OFFCURVE",
"161 456 OFFCURVE",
"161 516 CURVE SMOOTH",
"161 578 OFFCURVE",
"205 620 OFFCURVE",
"284 620 CURVE SMOOTH",
"319 620 OFFCURVE",
"347 614 OFFCURVE",
"372 599 CURVE",
"385 570 OFFCURVE",
"394 546 OFFCURVE",
"403 509 CURVE",
"447 513 LINE",
"439 647 LINE",
"394 663 OFFCURVE",
"342 670 OFFCURVE",
"295 670 CURVE SMOOTH",
"176 670 OFFCURVE",
"69 608 OFFCURVE",
"69 492 CURVE SMOOTH",
"69 414 OFFCURVE",
"106 363 OFFCURVE",
"247 295 CURVE SMOOTH",
"357 242 OFFCURVE",
"388 210 OFFCURVE",
"388 148 CURVE SMOOTH",
"388 88 OFFCURVE",
"345 40 OFFCURVE",
"262 40 CURVE SMOOTH",
"213 40 OFFCURVE",
"172 54 OFFCURVE",
"139 77 CURVE",
"127 110 OFFCURVE",
"117 144 OFFCURVE",
"108 177 CURVE",
"63 171 LINE",
"63 125 OFFCURVE",
"65 79 OFFCURVE",
"69 33 CURVE",
"114 6 OFFCURVE",
"191 -10 OFFCURVE",
"252 -10 CURVE SMOOTH"
);
}
);
};
color = -1;
layerId = "D75C065C-4EF6-4055-9CF2-70010DBCD897";
paths = (
{
closed = 1;
nodes = (
"385 -10 OFFCURVE",
"481 67 OFFCURVE",
"481 173 CURVE SMOOTH",
"481 255 OFFCURVE",
"436 304 OFFCURVE",
"302 369 CURVE SMOOTH",
"196 420 OFFCURVE",
"161 456 OFFCURVE",
"161 516 CURVE SMOOTH",
"161 579 OFFCURVE",
"208 621 OFFCURVE",
"286 621 CURVE SMOOTH",
"319 621 OFFCURVE",
"348 613 OFFCURVE",
"372 599 CURVE",
"386 567 OFFCURVE",
"395 543 OFFCURVE",
"403 509 CURVE",
"447 513 LINE",
"439 645 LINE",
"397 661 OFFCURVE",
"346 670 OFFCURVE",
"295 670 CURVE SMOOTH",
"162 670 OFFCURVE",
"69 597 OFFCURVE",
"69 492 CURVE SMOOTH",
"69 409 OFFCURVE",
"114 359 OFFCURVE",
"247 295 CURVE SMOOTH",
"357 242 OFFCURVE",
"388 210 OFFCURVE",
"388 148 CURVE SMOOTH",
"388 82 OFFCURVE",
"339 40 OFFCURVE",
"262 40 CURVE SMOOTH",
"217 40 OFFCURVE",
"174 53 OFFCURVE",
"139 77 CURVE",
"129 106 OFFCURVE",
"119 138 OFFCURVE",
"108 177 CURVE",
"63 171 LINE",
"63 125 OFFCURVE",
"65 79 OFFCURVE",
"69 33 CURVE",
"111 8 OFFCURVE",
"187 -10 OFFCURVE",
"252 -10 CURVE SMOOTH"
);
}
);
width = 513;
},
{
background = {
paths = (
{
closed = 1;
nodes = (
"909 -10 OFFCURVE",
"1026 73 OFFCURVE",
"1026 194 CURVE SMOOTH",
"1026 273 OFFCURVE",
"979 326 OFFCURVE",
"851 376 CURVE SMOOTH",
"733 422 OFFCURVE",
"698 454 OFFCURVE",
"698 517 CURVE SMOOTH",
"698 575 OFFCURVE",
"743 609 OFFCURVE",
"801 609 CURVE SMOOTH",
"870 609 OFFCURVE",
"910 572 OFFCURVE",
"925 486 CURVE",
"985 486 LINE",
"980 549 OFFCURVE",
"977 598 OFFCURVE",
"972 645 CURVE",
"932 661 OFFCURVE",
"869 671 OFFCURVE",
"812 671 CURVE SMOOTH",
"667 671 OFFCURVE",
"553 594 OFFCURVE",
"553 471 CURVE SMOOTH",
"553 388 OFFCURVE",
"600 333 OFFCURVE",
"734 276 CURVE SMOOTH",
"845 229 OFFCURVE",
"878 200 OFFCURVE",
"878 143 CURVE SMOOTH",
"878 87 OFFCURVE",
"829 56 OFFCURVE",
"771 56 CURVE SMOOTH",
"670 56 OFFCURVE",
"617 109 OFFCURVE",
"612 201 CURVE",
"548 201 LINE",
"548 142 OFFCURVE",
"550 83 OFFCURVE",
"553 38 CURVE",
"603 8 OFFCURVE",
"681 -10 OFFCURVE",
"761 -10 CURVE SMOOTH"
);
},
{
closed = 1;
nodes = (
"429 -10 OFFCURVE",
"526 84 OFFCURVE",
"526 189 CURVE SMOOTH",
"526 271 OFFCURVE",
"479 326 OFFCURVE",
"351 376 CURVE SMOOTH",
"233 422 OFFCURVE",
"198 457 OFFCURVE",
"198 513 CURVE SMOOTH",
"198 573 OFFCURVE",
"248 607 OFFCURVE",
"307 607 CURVE SMOOTH",
"339 607 OFFCURVE",
"362 601 OFFCURVE",
"390 588 CURVE",
"406 554 OFFCURVE",
"417 516 OFFCURVE",
"425 482 CURVE",
"484 488 LINE",
"472 645 LINE",
"432 661 OFFCURVE",
"368 671 OFFCURVE",
"317 671 CURVE SMOOTH",
"165 671 OFFCURVE",
"53 596 OFFCURVE",
"53 474 CURVE SMOOTH",
"53 390 OFFCURVE",
"100 333 OFFCURVE",
"234 276 CURVE SMOOTH",
"345 229 OFFCURVE",
"378 200 OFFCURVE",
"378 143 CURVE SMOOTH",
"378 95 OFFCURVE",
"340 58 OFFCURVE",
"267 58 CURVE SMOOTH",
"229 58 OFFCURVE",
"183 69 OFFCURVE",
"149 89 CURVE",
"134 127 OFFCURVE",
"122 164 OFFCURVE",
"112 202 CURVE",
"48 196 LINE",
"46 143 OFFCURVE",
"48 91 OFFCURVE",
"53 38 CURVE",
"104 9 OFFCURVE",
"186 -10 OFFCURVE",
"253 -10 CURVE SMOOTH"
);
}
);
};
color = -1;
layerId = "6D340022-02C4-426D-A0D8-A7BFACBEB22E";
paths = (
{
closed = 1;
nodes = (
"413 -10 OFFCURVE",
"526 72 OFFCURVE",
"526 189 CURVE SMOOTH",
"526 273 OFFCURVE",
"475 327 OFFCURVE",
"351 376 CURVE SMOOTH",
"236 421 OFFCURVE",
"198 455 OFFCURVE",
"198 512 CURVE SMOOTH",
"198 572 OFFCURVE",
"243 607 OFFCURVE",
"307 607 CURVE SMOOTH",
"338 607 OFFCURVE",
"361 602 OFFCURVE",
"390 588 CURVE",
"403 560 OFFCURVE",
"415 523 OFFCURVE",
"425 482 CURVE",
"484 488 LINE",
"472 643 LINE",
"433 659 OFFCURVE",
"369 671 OFFCURVE",
"317 671 CURVE SMOOTH",
"159 671 OFFCURVE",
"53 592 OFFCURVE",
"53 474 CURVE SMOOTH",
"53 387 OFFCURVE",
"104 331 OFFCURVE",
"234 276 CURVE SMOOTH",
"347 228 OFFCURVE",
"378 199 OFFCURVE",
"378 143 CURVE SMOOTH",
"378 89 OFFCURVE",
"335 57 OFFCURVE",
"267 57 CURVE SMOOTH",
"227 57 OFFCURVE",
"181 70 OFFCURVE",
"149 89 CURVE",
"134 125 OFFCURVE",
"122 162 OFFCURVE",
"112 202 CURVE",
"48 196 LINE",
"47 148 OFFCURVE",
"49 97 OFFCURVE",
"53 38 CURVE",
"104 10 OFFCURVE",
"186 -10 OFFCURVE",
"253 -10 CURVE SMOOTH"
);
}
);
width = 549;
}
);
leftKerningGroup = S;
note = S;
rightKerningGroup = S;
unicode = 0053;
},
{
color = 4;
glyphname = T;
lastChange = "2018-04-23 14:49:54 +0000";
layers = (
{
background = {
paths = (
{
closed = 1;
nodes = (
"533 661 OFFCURVE",
"501 660 OFFCURVE",
"467 660 CURVE SMOOTH",
"146 660 LINE SMOOTH",
"112 660 OFFCURVE",
"80 661 OFFCURVE",
"44 664 CURVE",
"19 487 LINE",
"63 482 LINE",
"75 542 OFFCURVE",
"94 591 OFFCURVE",
"113 607 CURVE",
"124 609 OFFCURVE",
"140 610 OFFCURVE",
"153 610 CURVE SMOOTH",
"212 610 LINE SMOOTH",
"221 610 OFFCURVE",
"239 609 OFFCURVE",
"258 608 CURVE",
"259 598 OFFCURVE",
"262 516 OFFCURVE",
"262 412 CURVE SMOOTH",
"262 247 LINE SMOOTH",
"262 137 OFFCURVE",
"258 61 OFFCURVE",
"254 54 CURVE",
"245 53 OFFCURVE",
"195 44 OFFCURVE",
"167 41 CURVE",
"169 -3 LINE",
"204 0 OFFCURVE",
"273 2 OFFCURVE",
"306 2 CURVE SMOOTH",
"339 2 OFFCURVE",
"409 0 OFFCURVE",
"444 -3 CURVE",
"446 41 LINE",
"418 44 OFFCURVE",
"368 53 OFFCURVE",
"359 54 CURVE",
"355 61 OFFCURVE",
"351 137 OFFCURVE",
"351 247 CURVE SMOOTH",
"351 412 LINE SMOOTH",
"351 516 OFFCURVE",
"354 598 OFFCURVE",
"355 608 CURVE",
"374 609 OFFCURVE",
"393 610 OFFCURVE",
"401 610 CURVE SMOOTH",
"460 610 LINE SMOOTH",
"473 610 OFFCURVE",
"489 609 OFFCURVE",
"500 607 CURVE",
"519 591 OFFCURVE",
"538 542 OFFCURVE",
"550 482 CURVE",
"594 487 LINE",
"569 664 LINE"
);
}
);
};
color = -1;
layerId = "D75C065C-4EF6-4055-9CF2-70010DBCD897";
paths = (
{
closed = 1;
nodes = (
"533 661 OFFCURVE",
"501 660 OFFCURVE",
"467 660 CURVE SMOOTH",
"146 660 LINE SMOOTH",
"112 660 OFFCURVE",
"80 661 OFFCURVE",
"44 664 CURVE",
"37 605 OFFCURVE",
"28 546 OFFCURVE",
"19 487 CURVE",
"66 481 LINE",
"83 541 OFFCURVE",
"101 590 OFFCURVE",
"113 607 CURVE",
"124 609 OFFCURVE",
"140 610 OFFCURVE",
"153 610 CURVE SMOOTH",
"192 610 LINE SMOOTH",
"221 610 OFFCURVE",
"240 609 OFFCURVE",
"260 608 CURVE",
"261 591 OFFCURVE",
"262 488 OFFCURVE",
"262 412 CURVE SMOOTH",
"262 247 LINE SMOOTH",
"262 147 OFFCURVE",
"258 71 OFFCURVE",
"257 54 CURVE",
"235 50 OFFCURVE",
"184 43 OFFCURVE",
"167 41 CURVE",
"169 -3 LINE",
"204 0 OFFCURVE",
"273 2 OFFCURVE",
"306 2 CURVE SMOOTH",
"339 2 OFFCURVE",
"409 0 OFFCURVE",
"444 -3 CURVE",
"446 41 LINE",
"429 43 OFFCURVE",
"378 50 OFFCURVE",
"356 54 CURVE",
"355 71 OFFCURVE",
"351 147 OFFCURVE",
"351 247 CURVE SMOOTH",
"351 412 LINE SMOOTH",
"351 488 OFFCURVE",
"352 591 OFFCURVE",
"353 608 CURVE",
"373 609 OFFCURVE",
"393 610 OFFCURVE",
"421 610 CURVE SMOOTH",
"460 610 LINE SMOOTH",
"473 610 OFFCURVE",
"489 609 OFFCURVE",
"500 607 CURVE",
"512 590 OFFCURVE",
"530 541 OFFCURVE",
"547 481 CURVE",
"594 487 LINE",
"585 546 OFFCURVE",
"576 605 OFFCURVE",
"569 664 CURVE"
);
}
);
width = 612;
},
{
background = {
paths = (
{
closed = 1;
nodes = (
"1277 663 OFFCURVE",
"1208 660 OFFCURVE",
"1169 660 CURVE SMOOTH",
"879 660 LINE SMOOTH",
"840 660 OFFCURVE",
"771 663 OFFCURVE",
"738 665 CURVE",
"712 475 LINE",
"772 469 LINE",
"791 577 OFFCURVE",
"827 598 OFFCURVE",
"892 598 CURVE SMOOTH",
"905 598 LINE SMOOTH",
"922 598 OFFCURVE",
"941 597 OFFCURVE",
"952 595 CURVE",
"953 588 OFFCURVE",
"956 517 OFFCURVE",
"956 381 CURVE SMOOTH",
"956 259 LINE SMOOTH",
"956 163 OFFCURVE",
"952 77 OFFCURVE",
"948 69 CURVE",
"921 62 OFFCURVE",
"875 56 OFFCURVE",
"847 53 CURVE",
"850 -5 LINE",
"894 -1 OFFCURVE",
"979 0 OFFCURVE",
"1024 0 CURVE SMOOTH",
"1069 0 OFFCURVE",
"1154 -1 OFFCURVE",
"1198 -5 CURVE",
"1201 53 LINE",
"1173 56 OFFCURVE",
"1127 62 OFFCURVE",
"1100 69 CURVE",
"1096 77 OFFCURVE",
"1092 163 OFFCURVE",
"1092 259 CURVE SMOOTH",
"1092 381 LINE SMOOTH",
"1092 517 OFFCURVE",
"1095 588 OFFCURVE",
"1096 595 CURVE",
"1107 597 OFFCURVE",
"1126 598 OFFCURVE",
"1143 598 CURVE SMOOTH",
"1157 598 LINE SMOOTH",
"1221 598 OFFCURVE",
"1257 577 OFFCURVE",
"1276 469 CURVE",
"1336 475 LINE",
"1310 665 LINE"
);
},
{
closed = 1;
nodes = (
"12 475 LINE",
"72 469 LINE",
"91 577 OFFCURVE",
"127 598 OFFCURVE",
"191 598 CURVE SMOOTH",
"205 598 LINE SMOOTH",
"222 598 OFFCURVE",
"241 597 OFFCURVE",
"252 595 CURVE",
"253 588 OFFCURVE",
"256 517 OFFCURVE",
"256 381 CURVE SMOOTH",
"256 259 LINE SMOOTH",
"256 163 OFFCURVE",
"252 77 OFFCURVE",
"248 69 CURVE",
"221 62 OFFCURVE",
"175 56 OFFCURVE",
"147 53 CURVE",
"150 -5 LINE",
"194 -1 OFFCURVE",
"279 0 OFFCURVE",
"324 0 CURVE SMOOTH",
"369 0 OFFCURVE",
"454 -1 OFFCURVE",
"498 -5 CURVE",
"501 53 LINE",
"473 56 OFFCURVE",
"427 62 OFFCURVE",
"400 69 CURVE",
"396 77 OFFCURVE",
"392 163 OFFCURVE",
"392 259 CURVE SMOOTH",
"392 381 LINE SMOOTH",
"392 517 OFFCURVE",
"395 588 OFFCURVE",
"396 595 CURVE",
"407 597 OFFCURVE",
"426 598 OFFCURVE",
"443 598 CURVE SMOOTH",
"481 598 LINE SMOOTH",
"502 598 OFFCURVE",
"514 596 OFFCURVE",
"526 594 CURVE",
"548 566 OFFCURVE",
"564 520 OFFCURVE",
"576 469 CURVE",
"636 475 LINE",
"610 665 LINE",
"577 663 OFFCURVE",
"508 660 OFFCURVE",
"469 660 CURVE SMOOTH",
"179 660 LINE SMOOTH",
"140 660 OFFCURVE",
"71 663 OFFCURVE",
"38 665 CURVE"
);
}
);
};
color = -1;
layerId = "6D340022-02C4-426D-A0D8-A7BFACBEB22E";
paths = (
{
closed = 1;
nodes = (
"577 663 OFFCURVE",
"508 660 OFFCURVE",
"469 660 CURVE SMOOTH",
"179 660 LINE SMOOTH",
"140 660 OFFCURVE",
"71 663 OFFCURVE",
"38 665 CURVE",
"31 601 OFFCURVE",
"23 536 OFFCURVE",
"13 472 CURVE",
"73 466 LINE",
"89 518 OFFCURVE",
"104 565 OFFCURVE",
"118 594 CURVE",
"136 597 OFFCURVE",
"149 598 OFFCURVE",
"167 598 CURVE SMOOTH",
"205 598 LINE SMOOTH",
"222 598 OFFCURVE",
"241 597 OFFCURVE",
"253 595 CURVE",
"254 581 OFFCURVE",
"256 473 OFFCURVE",
"256 381 CURVE SMOOTH",
"256 259 LINE SMOOTH",
"256 170 OFFCURVE",
"252 97 OFFCURVE",
"248 69 CURVE",
"221 62 OFFCURVE",
"175 56 OFFCURVE",
"147 53 CURVE",
"150 -5 LINE",
"194 -1 OFFCURVE",
"279 0 OFFCURVE",
"324 0 CURVE SMOOTH",
"369 0 OFFCURVE",
"454 -1 OFFCURVE",
"498 -5 CURVE",
"501 53 LINE",
"473 56 OFFCURVE",
"427 62 OFFCURVE",
"400 69 CURVE",
"396 97 OFFCURVE",
"392 170 OFFCURVE",
"392 259 CURVE SMOOTH",
"392 381 LINE SMOOTH",
"392 473 OFFCURVE",
"394 581 OFFCURVE",
"395 595 CURVE",
"407 597 OFFCURVE",
"426 598 OFFCURVE",
"443 598 CURVE SMOOTH",
"481 598 LINE SMOOTH",
"499 598 OFFCURVE",
"512 597 OFFCURVE",
"530 594 CURVE",
"544 565 OFFCURVE",
"559 518 OFFCURVE",
"575 466 CURVE",
"635 472 LINE",
"625 536 OFFCURVE",
"617 601 OFFCURVE",
"610 665 CURVE"
);
}
);
width = 648;
}
);
leftKerningGroup = T;
note = T;
rightKerningGroup = T;
unicode = 0054;
},
{
color = 3;
glyphname = U;
lastChange = "2018-04-23 14:49:54 +0000";
layers = (
{
background = {
paths = (
{
closed = 1;
nodes = (
"114 381 LINE",
"114 240 LINE SMOOTH",
"114 79 OFFCURVE",
"218 -10 OFFCURVE",
"370 -10 CURVE SMOOTH",
"505 -10 OFFCURVE",
"604 72 OFFCURVE",
"604 247 CURVE SMOOTH",
"604 363 LINE",
"542 362 LINE",
"542 236 LINE SMOOTH",
"542 106 OFFCURVE",
"477 50 OFFCURVE",
"381 50 CURVE SMOOTH",
"267 50 OFFCURVE",
"202 113 OFFCURVE",
"203 246 CURVE SMOOTH",
"204 381 LINE"
);
}
);
};
color = -1;
layerId = "D75C065C-4EF6-4055-9CF2-70010DBCD897";
paths = (
{
closed = 1;
nodes = (
"37 619 LINE",
"63 619 OFFCURVE",
"98 609 OFFCURVE",
"105 605 CURVE",
"109 598 OFFCURVE",
"113 572 OFFCURVE",
"113 442 CURVE SMOOTH",
"113 240 LINE SMOOTH",
"113 81 OFFCURVE",
"211 -10 OFFCURVE",
"370 -10 CURVE SMOOTH",
"505 -10 OFFCURVE",
"605 72 OFFCURVE",
"605 247 CURVE SMOOTH",
"605 422 LINE SMOOTH",
"605 572 OFFCURVE",
"609 598 OFFCURVE",
"613 605 CURVE",
"620 609 OFFCURVE",
"668 619 OFFCURVE",
"681 619 CURVE",
"679 661 LINE",
"644 659 OFFCURVE",
"604 658 OFFCURVE",
"571 658 CURVE SMOOTH",
"535 658 OFFCURVE",
"504 659 OFFCURVE",
"469 661 CURVE",
"467 619 LINE",
"493 619 OFFCURVE",
"528 609 OFFCURVE",
"535 605 CURVE",
"539 598 OFFCURVE",
"543 572 OFFCURVE",
"543 422 CURVE SMOOTH",
"543 259 LINE SMOOTH",
"543 116 OFFCURVE",
"477 64 OFFCURVE",
"381 64 CURVE SMOOTH",
"267 64 OFFCURVE",
"203 123 OFFCURVE",
"202 252 CURVE SMOOTH",
"201 442 LINE SMOOTH",
"200 572 OFFCURVE",
"205 598 OFFCURVE",
"209 605 CURVE",
"216 609 OFFCURVE",
"251 619 OFFCURVE",
"277 619 CURVE",
"275 661 LINE",
"240 659 OFFCURVE",
"190 658 OFFCURVE",
"157 658 CURVE SMOOTH",
"124 658 OFFCURVE",
"74 659 OFFCURVE",
"39 661 CURVE"
);
}
);
width = 720;
},
{
background = {
paths = (
{
closed = 1;
nodes = (
"26 607 LINE",
"54 606 OFFCURVE",
"86 599 OFFCURVE",
"97 591 CURVE",
"101 583 OFFCURVE",
"105 527 OFFCURVE",
"105 421 CURVE SMOOTH",
"105 266 LINE SMOOTH",
"105 89 OFFCURVE",
"204 -10 OFFCURVE",
"381 -10 CURVE SMOOTH",
"532 -10 OFFCURVE",
"637 89 OFFCURVE",
"637 280 CURVE SMOOTH",
"637 421 LINE SMOOTH",
"637 527 OFFCURVE",
"641 583 OFFCURVE",
"645 591 CURVE",
"656 599 OFFCURVE",
"688 606 OFFCURVE",
"716 607 CURVE",
"713 663 LINE",
"679 661 OFFCURVE",
"628 659 OFFCURVE",
"598 659 CURVE SMOOTH",
"568 659 OFFCURVE",
"517 661 OFFCURVE",
"483 663 CURVE",
"480 607 LINE",
"508 606 OFFCURVE",
"540 599 OFFCURVE",
"551 591 CURVE",
"555 583 OFFCURVE",
"559 527 OFFCURVE",
"559 421 CURVE SMOOTH",
"559 287 LINE SMOOTH",
"559 152 OFFCURVE",
"501 87 OFFCURVE",
"407 87 CURVE SMOOTH",
"303 87 OFFCURVE",
"243 149 OFFCURVE",
"244 271 CURVE SMOOTH",
"245 421 LINE SMOOTH",
"246 527 OFFCURVE",
"248 573 OFFCURVE",
"253 591 CURVE",
"264 599 OFFCURVE",
"296 606 OFFCURVE",
"324 607 CURVE",
"321 663 LINE",
"287 661 OFFCURVE",
"230 658 OFFCURVE",
"175 658 CURVE SMOOTH",
"120 658 OFFCURVE",
"63 661 OFFCURVE",
"29 663 CURVE"
);
}
);
};
color = -1;
layerId = "6D340022-02C4-426D-A0D8-A7BFACBEB22E";
paths = (
{
closed = 1;
nodes = (
"22 606 LINE",
"50 606 OFFCURVE",
"82 599 OFFCURVE",
"93 591 CURVE",
"97 583 OFFCURVE",
"101 527 OFFCURVE",
"101 421 CURVE SMOOTH",
"101 266 LINE SMOOTH",
"101 88 OFFCURVE",
"216 -10 OFFCURVE",
"385 -10 CURVE SMOOTH",
"533 -10 OFFCURVE",
"646 80 OFFCURVE",
"646 273 CURVE SMOOTH",
"646 401 LINE SMOOTH",
"646 507 OFFCURVE",
"650 583 OFFCURVE",
"654 591 CURVE",
"665 599 OFFCURVE",
"697 606 OFFCURVE",
"728 606 CURVE",
"725 662 LINE",
"688 661 OFFCURVE",
"634 660 OFFCURVE",
"603 660 CURVE SMOOTH",
"572 660 OFFCURVE",
"518 661 OFFCURVE",
"481 662 CURVE",
"478 606 LINE",
"509 606 OFFCURVE",
"541 599 OFFCURVE",
"552 591 CURVE",
"556 583 OFFCURVE",
"560 507 OFFCURVE",
"560 401 CURVE SMOOTH",
"560 286 LINE SMOOTH",
"560 139 OFFCURVE",
"499 84 OFFCURVE",
"409 84 CURVE SMOOTH",
"300 84 OFFCURVE",
"239 149 OFFCURVE",
"240 283 CURVE SMOOTH",
"241 421 LINE SMOOTH",
"242 527 OFFCURVE",
"244 573 OFFCURVE",
"249 591 CURVE",
"260 599 OFFCURVE",
"292 606 OFFCURVE",
"323 606 CURVE",
"320 662 LINE",
"283 661 OFFCURVE",
"226 659 OFFCURVE",
"171 659 CURVE SMOOTH",
"116 659 OFFCURVE",
"59 661 OFFCURVE",
"25 662 CURVE"
);
}
);
width = 747;
}
);
leftKerningGroup = U;
note = U;
rightKerningGroup = U;
unicode = 0055;
},
{
color = 3;
glyphname = V;
lastChange = "2018-04-23 14:49:54 +0000";
layers = (
{
background = {
paths = (
{
closed = 1;
nodes = (
"591 607 LINE",
"597 609 OFFCURVE",
"625 617 OFFCURVE",
"646 619 CURVE",
"644 661 LINE",
"616 659 OFFCURVE",
"560 658 OFFCURVE",
"524 658 CURVE SMOOTH",
"490 658 OFFCURVE",
"456 659 OFFCURVE",
"421 661 CURVE",
"419 619 LINE",
"445 619 OFFCURVE",
"480 609 OFFCURVE",
"487 607 CURVE",
"292 100 LINE",
"324 100 LINE",
"135 607 LINE",
"143 609 OFFCURVE",
"178 619 OFFCURVE",
"204 619 CURVE",
"202 661 LINE",
"172 660 OFFCURVE",
"132 659 OFFCURVE",
"85 659 CURVE SMOOTH",
"56 659 OFFCURVE",
"34 660 OFFCURVE",
"11 661 CURVE",
"9 619 LINE",
"30 617 OFFCURVE",
"58 609 OFFCURVE",
"64 607 CURVE",
"305 -4 LINE",
"349 -4 LINE"
);
}
);
};
color = -1;
layerId = "D75C065C-4EF6-4055-9CF2-70010DBCD897";
paths = (
{
closed = 1;
nodes = (
"350 -4 LINE",
"591 607 LINE",
"597 609 OFFCURVE",
"625 617 OFFCURVE",
"646 619 CURVE",
"644 661 LINE",
"621 660 OFFCURVE",
"596 659 OFFCURVE",
"566 659 CURVE SMOOTH",
"536 659 OFFCURVE",
"486 660 OFFCURVE",
"456 661 CURVE",
"454 619 LINE",
"480 619 OFFCURVE",
"515 609 OFFCURVE",
"523 607 CURVE",
"332 100 LINE",
"363 100 LINE",
"168 607 LINE",
"175 609 OFFCURVE",
"210 619 OFFCURVE",
"236 619 CURVE",
"234 661 LINE",
"199 659 OFFCURVE",
"155 658 OFFCURVE",
"121 658 CURVE SMOOTH",
"85 658 OFFCURVE",
"39 659 OFFCURVE",
"11 661 CURVE",
"9 619 LINE",
"30 617 OFFCURVE",
"58 609 OFFCURVE",
"64 607 CURVE",
"306 -4 LINE"
);
}
);
width = 657;
},
{
background = {
paths = (
{
closed = 1;
nodes = (
"629 595 LINE",
"639 599 OFFCURVE",
"665 604 OFFCURVE",
"684 606 CURVE",
"681 662 LINE",
"645 661 OFFCURVE",
"604 659 OFFCURVE",
"549 659 CURVE SMOOTH",
"495 659 OFFCURVE",
"433 661 OFFCURVE",
"390 662 CURVE",
"387 605 LINE",
"421 603 OFFCURVE",
"453 599 OFFCURVE",
"469 595 CURVE",
"280 135 LINE",
"330 135 LINE",
"144 595 LINE",
"161 599 OFFCURVE",
"192 603 OFFCURVE",
"226 605 CURVE",
"223 662 LINE",
"180 661 OFFCURVE",
"130 660 OFFCURVE",
"99 660 CURVE SMOOTH",
"68 660 OFFCURVE",
"39 661 OFFCURVE",
"3 662 CURVE",
"0 606 LINE",
"20 605 OFFCURVE",
"43 599 OFFCURVE",
"55 593 CURVE",
"314 -4 LINE",
"371 -4 LINE"
);
}
);
};
color = -1;
layerId = "6D340022-02C4-426D-A0D8-A7BFACBEB22E";
paths = (
{
closed = 1;
nodes = (
"370 -4 LINE",
"629 593 LINE",
"641 599 OFFCURVE",
"664 605 OFFCURVE",
"684 606 CURVE",
"681 662 LINE",
"645 661 OFFCURVE",
"616 660 OFFCURVE",
"585 660 CURVE SMOOTH",
"554 660 OFFCURVE",
"504 661 OFFCURVE",
"461 662 CURVE",
"458 605 LINE",
"492 603 OFFCURVE",
"523 599 OFFCURVE",
"540 595 CURVE",
"354 135 LINE",
"404 135 LINE",
"214 595 LINE",
"230 599 OFFCURVE",
"262 603 OFFCURVE",
"296 605 CURVE",
"293 662 LINE",
"250 661 OFFCURVE",
"175 659 OFFCURVE",
"135 659 CURVE SMOOTH",
"95 659 OFFCURVE",
"39 661 OFFCURVE",
"3 662 CURVE",
"0 606 LINE",
"20 605 OFFCURVE",
"43 599 OFFCURVE",
"55 593 CURVE",
"313 -4 LINE"
);
}
);
width = 684;
}
);
leftKerningGroup = V;
note = V;
rightKerningGroup = V;
unicode = 0056;
},
{
color = 3;
glyphname = W;
lastChange = "2018-04-23 14:49:54 +0000";
layers = (
{
background = {
paths = (
{
closed = 1;
nodes = (
"506 571 LINE",
"328 100 LINE",
"359 100 LINE",
"174 607 LINE",
"181 609 OFFCURVE",
"216 619 OFFCURVE",
"242 619 CURVE",
"240 661 LINE",
"205 659 OFFCURVE",
"161 658 OFFCURVE",
"127 658 CURVE SMOOTH",
"91 658 OFFCURVE",
"45 659 OFFCURVE",
"17 661 CURVE",
"15 619 LINE",
"36 617 OFFCURVE",
"64 609 OFFCURVE",
"70 607 CURVE",
"302 -4 LINE",
"346 -4 LINE",
"537 480 LINE"
);
},
{
closed = 1;
nodes = (
"750 -4 LINE",
"981 607 LINE",
"987 609 OFFCURVE",
"1015 617 OFFCURVE",
"1036 619 CURVE",
"1034 661 LINE",
"1011 660 OFFCURVE",
"986 659 OFFCURVE",
"956 659 CURVE SMOOTH",
"926 659 OFFCURVE",
"876 660 OFFCURVE",
"846 661 CURVE",
"844 619 LINE",
"870 619 OFFCURVE",
"905 609 OFFCURVE",
"913 607 CURVE",
"732 100 LINE",
"763 100 LINE",
"568 607 LINE",
"575 609 OFFCURVE",
"610 619 OFFCURVE",
"636 619 CURVE",
"634 661 LINE",
"599 659 OFFCURVE",
"555 658 OFFCURVE",
"521 658 CURVE SMOOTH",
"485 658 OFFCURVE",
"439 659 OFFCURVE",
"411 661 CURVE",
"409 619 LINE",
"430 617 OFFCURVE",
"458 609 OFFCURVE",
"464 607 CURVE",
"706 -4 LINE"
);
}
);
};
color = -1;
layerId = "D75C065C-4EF6-4055-9CF2-70010DBCD897";
paths = (
{
closed = 1;
nodes = (
"513 577 LINE",
"327 100 LINE",
"359 100 LINE",
"174 607 LINE",
"180 609 OFFCURVE",
"207 619 OFFCURVE",
"228 619 CURVE",
"226 661 LINE",
"198 659 OFFCURVE",
"161 658 OFFCURVE",
"127 658 CURVE SMOOTH",
"91 658 OFFCURVE",
"45 659 OFFCURVE",
"17 661 CURVE",
"15 619 LINE",
"36 617 OFFCURVE",
"64 609 OFFCURVE",
"70 607 CURVE",
"302 -4 LINE",
"346 -4 LINE",
"538 486 LINE"
);
},
{
closed = 1;
nodes = (
"750 -4 LINE",
"981 607 LINE",
"987 609 OFFCURVE",
"1015 617 OFFCURVE",
"1036 619 CURVE",
"1034 661 LINE",
"1011 660 OFFCURVE",
"986 659 OFFCURVE",
"956 659 CURVE SMOOTH",
"926 659 OFFCURVE",
"874 660 OFFCURVE",
"842 661 CURVE",
"840 619 LINE",
"868 619 OFFCURVE",
"905 609 OFFCURVE",
"913 607 CURVE",
"732 100 LINE",
"763 100 LINE",
"576 607 LINE",
"584 609 OFFCURVE",
"621 619 OFFCURVE",
"649 619 CURVE",
"647 661 LINE",
"609 659 OFFCURVE",
"563 658 OFFCURVE",
"529 658 CURVE SMOOTH",
"493 658 OFFCURVE",
"448 659 OFFCURVE",
"420 661 CURVE",
"418 619 LINE",
"439 617 OFFCURVE",
"466 609 OFFCURVE",
"472 607 CURVE",
"706 -4 LINE"
);
}
);
width = 1053;
},
{
background = {
paths = (
{
closed = 1;
nodes = (
"369 -4 LINE",
"628 593 LINE",
"640 599 OFFCURVE",
"663 605 OFFCURVE",
"683 606 CURVE",
"680 662 LINE",
"644 661 OFFCURVE",
"615 660 OFFCURVE",
"584 660 CURVE SMOOTH",
"553 660 OFFCURVE",
"503 661 OFFCURVE",
"460 662 CURVE",
"457 605 LINE",
"491 603 OFFCURVE",
"522 599 OFFCURVE",
"539 595 CURVE",
"353 135 LINE",
"403 135 LINE",
"223 595 LINE",
"239 599 OFFCURVE",
"271 603 OFFCURVE",
"305 605 CURVE",
"302 662 LINE",
"259 661 OFFCURVE",
"184 659 OFFCURVE",
"144 659 CURVE SMOOTH",
"104 659 OFFCURVE",
"48 661 OFFCURVE",
"12 662 CURVE",
"9 606 LINE",
"29 605 OFFCURVE",
"52 599 OFFCURVE",
"64 593 CURVE",
"312 -4 LINE"
);
},
{
closed = 1;
nodes = (
"781 -4 LINE",
"1030 593 LINE",
"1042 599 OFFCURVE",
"1065 605 OFFCURVE",
"1085 606 CURVE",
"1082 662 LINE",
"1046 661 OFFCURVE",
"1017 660 OFFCURVE",
"986 660 CURVE SMOOTH",
"955 660 OFFCURVE",
"905 661 OFFCURVE",
"862 662 CURVE",
"859 605 LINE",
"893 603 OFFCURVE",
"924 599 OFFCURVE",
"941 595 CURVE",
"765 135 LINE",
"815 135 LINE",
"625 595 LINE",
"641 599 OFFCURVE",
"673 603 OFFCURVE",
"707 605 CURVE",
"704 662 LINE",
"661 661 OFFCURVE",
"586 659 OFFCURVE",
"546 659 CURVE SMOOTH",
"506 659 OFFCURVE",
"450 661 OFFCURVE",
"414 662 CURVE",
"411 606 LINE",
"431 605 OFFCURVE",
"454 599 OFFCURVE",
"466 593 CURVE",
"724 -4 LINE"
);
}
);
};
color = -1;
layerId = "6D340022-02C4-426D-A0D8-A7BFACBEB22E";
paths = (
{
closed = 1;
nodes = (
"522 549 LINE",
"351 135 LINE",
"403 135 LINE",
"221 595 LINE",
"231 599 OFFCURVE",
"252 603 OFFCURVE",
"273 605 CURVE",
"271 662 LINE",
"245 661 OFFCURVE",
"182 659 OFFCURVE",
"142 659 CURVE SMOOTH",
"102 659 OFFCURVE",
"46 661 OFFCURVE",
"10 662 CURVE",
"7 606 LINE",
"27 605 OFFCURVE",
"50 599 OFFCURVE",
"62 593 CURVE",
"312 -4 LINE",
"369 -4 LINE",
"559 452 LINE"
);
},
{
closed = 1;
nodes = (
"781 -4 LINE",
"1030 593 LINE",
"1042 599 OFFCURVE",
"1065 605 OFFCURVE",
"1085 606 CURVE",
"1082 662 LINE",
"1046 661 OFFCURVE",
"1017 660 OFFCURVE",
"986 660 CURVE SMOOTH",
"955 660 OFFCURVE",
"905 661 OFFCURVE",
"862 662 CURVE",
"859 605 LINE",
"893 603 OFFCURVE",
"924 599 OFFCURVE",
"941 595 CURVE",
"765 135 LINE",
"812 135 LINE",
"629 595 LINE",
"645 599 OFFCURVE",
"677 603 OFFCURVE",
"711 605 CURVE",
"708 662 LINE",
"665 661 OFFCURVE",
"590 659 OFFCURVE",
"550 659 CURVE SMOOTH",
"510 659 OFFCURVE",
"456 661 OFFCURVE",
"424 662 CURVE",
"421 606 LINE",
"439 605 OFFCURVE",
"462 599 OFFCURVE",
"473 593 CURVE",
"724 -4 LINE"
);
}
);
width = 1094;
}
);
leftKerningGroup = W;
note = W;
rightKerningGroup = W;
unicode = 0057;
},
{
color = 3;
glyphname = X;
lastChange = "2018-04-23 14:49:54 +0000";
layers = (
{
background = {
paths = (
{
closed = 1;
nodes = (
"645 39 LINE",
"624 42 OFFCURVE",
"596 50 OFFCURVE",
"590 54 CURVE",
"189 605 LINE",
"196 609 OFFCURVE",
"231 618 OFFCURVE",
"257 619 CURVE",
"255 661 LINE",
"220 659 OFFCURVE",
"172 658 OFFCURVE",
"131 658 CURVE SMOOTH",
"88 658 OFFCURVE",
"50 659 OFFCURVE",
"22 661 CURVE",
"20 619 LINE",
"41 617 OFFCURVE",
"69 609 OFFCURVE",
"75 605 CURVE",
"476 54 LINE",
"469 50 OFFCURVE",
"434 40 OFFCURVE",
"408 39 CURVE",
"410 -3 LINE",
"445 0 OFFCURVE",
"505 2 OFFCURVE",
"535 2 CURVE SMOOTH",
"565 2 OFFCURVE",
"615 0 OFFCURVE",
"643 -3 CURVE"
);
},
{
closed = 1;
nodes = (
"68 54 LINE",
"62 50 OFFCURVE",
"34 42 OFFCURVE",
"13 39 CURVE",
"15 -3 LINE",
"43 0 OFFCURVE",
"87 2 OFFCURVE",
"107 2 CURVE SMOOTH",
"127 2 OFFCURVE",
"168 0 OFFCURVE",
"203 -3 CURVE",
"205 39 LINE",
"179 40 OFFCURVE",
"144 50 OFFCURVE",
"137 54 CURVE",
"541 605 LINE",
"547 609 OFFCURVE",
"575 617 OFFCURVE",
"596 619 CURVE",
"594 661 LINE",
"566 659 OFFCURVE",
"533 659 OFFCURVE",
"513 659 CURVE SMOOTH",
"485 659 OFFCURVE",
"428 660 OFFCURVE",
"408 661 CURVE",
"406 619 LINE",
"432 619 OFFCURVE",
"467 609 OFFCURVE",
"470 605 CURVE"
);
}
);
};
color = -1;
layerId = "D75C065C-4EF6-4055-9CF2-70010DBCD897";
paths = (
{
closed = 1;
nodes = (
"640 39 LINE",
"619 42 OFFCURVE",
"591 50 OFFCURVE",
"585 54 CURVE",
"366 361 LINE",
"332 405 LINE",
"192 605 LINE",
"199 609 OFFCURVE",
"234 618 OFFCURVE",
"260 619 CURVE",
"258 661 LINE",
"223 659 OFFCURVE",
"174 658 OFFCURVE",
"133 658 CURVE SMOOTH",
"91 658 OFFCURVE",
"53 659 OFFCURVE",
"25 661 CURVE",
"23 619 LINE",
"44 617 OFFCURVE",
"72 609 OFFCURVE",
"78 605 CURVE",
"269 337 LINE",
"303 292 LINE",
"469 54 LINE",
"462 50 OFFCURVE",
"427 40 OFFCURVE",
"401 39 CURVE",
"403 -3 LINE",
"438 0 OFFCURVE",
"500 2 OFFCURVE",
"530 2 CURVE SMOOTH",
"560 2 OFFCURVE",
"610 0 OFFCURVE",
"638 -3 CURVE"
);
},
{
closed = 1;
nodes = (
"332 405 LINE",
"269 337 LINE",
"69 54 LINE",
"63 50 OFFCURVE",
"35 42 OFFCURVE",
"14 39 CURVE",
"16 -3 LINE",
"44 0 OFFCURVE",
"87 2 OFFCURVE",
"107 2 CURVE SMOOTH",
"127 2 OFFCURVE",
"171 0 OFFCURVE",
"206 -3 CURVE",
"208 39 LINE",
"182 40 OFFCURVE",
"147 50 OFFCURVE",
"140 54 CURVE",
"303 292 LINE",
"366 361 LINE",
"541 605 LINE",
"547 609 OFFCURVE",
"575 617 OFFCURVE",
"596 619 CURVE",
"594 661 LINE",
"566 659 OFFCURVE",
"534 659 OFFCURVE",
"514 659 CURVE SMOOTH",
"485 659 OFFCURVE",
"428 660 OFFCURVE",
"408 661 CURVE",
"406 619 LINE",
"432 619 OFFCURVE",
"467 609 OFFCURVE",
"470 605 CURVE"
);
}
);
width = 648;
},
{
background = {
paths = (
{
closed = 1;
nodes = (
"664 51 LINE",
"642 54 OFFCURVE",
"618 61 OFFCURVE",
"609 68 CURVE",
"240 591 LINE",
"251 599 OFFCURVE",
"283 606 OFFCURVE",
"311 606 CURVE",
"308 662 LINE",
"274 661 OFFCURVE",
"199 659 OFFCURVE",
"149 659 CURVE SMOOTH",
"99 659 OFFCURVE",
"48 661 OFFCURVE",
"22 662 CURVE",
"20 606 LINE",
"41 606 OFFCURVE",
"66 599 OFFCURVE",
"75 590 CURVE",
"440 69 LINE",
"429 61 OFFCURVE",
"397 54 OFFCURVE",
"369 51 CURVE",
"372 -5 LINE",
"406 -1 OFFCURVE",
"484 2 OFFCURVE",
"534 2 CURVE SMOOTH",
"594 2 OFFCURVE",
"635 -1 OFFCURVE",
"662 -5 CURVE"
);
},
{
closed = 1;
nodes = (
"64 69 LINE",
"55 61 OFFCURVE",
"31 54 OFFCURVE",
"9 51 CURVE",
"11 -3 LINE",
"41 -1 OFFCURVE",
"81 2 OFFCURVE",
"111 2 CURVE SMOOTH",
"141 2 OFFCURVE",
"198 -1 OFFCURVE",
"228 -3 CURVE",
"231 51 LINE",
"205 52 OFFCURVE",
"167 65 OFFCURVE",
"160 69 CURVE",
"557 591 LINE",
"566 599 OFFCURVE",
"590 606 OFFCURVE",
"612 606 CURVE",
"610 662 LINE",
"583 661 OFFCURVE",
"560 659 OFFCURVE",
"520 659 CURVE SMOOTH",
"480 659 OFFCURVE",
"426 661 OFFCURVE",
"392 662 CURVE",
"389 606 LINE",
"417 606 OFFCURVE",
"449 599 OFFCURVE",
"460 591 CURVE"
);
}
);
};
color = -1;
layerId = "6D340022-02C4-426D-A0D8-A7BFACBEB22E";
paths = (
{
closed = 1;
nodes = (
"662 51 LINE",
"640 54 OFFCURVE",
"616 61 OFFCURVE",
"607 68 CURVE",
"396 370 LINE",
"347 433 LINE",
"237 593 LINE",
"247 599 OFFCURVE",
"271 606 OFFCURVE",
"293 606 CURVE",
"291 662 LINE",
"264 661 OFFCURVE",
"197 659 OFFCURVE",
"147 659 CURVE SMOOTH",
"97 659 OFFCURVE",
"46 661 OFFCURVE",
"20 662 CURVE",
"18 606 LINE",
"39 606 OFFCURVE",
"63 599 OFFCURVE",
"72 592 CURVE",
"255 332 LINE",
"302 268 LINE",
"438 69 LINE",
"427 61 OFFCURVE",
"395 54 OFFCURVE",
"367 51 CURVE",
"370 -5 LINE",
"404 -1 OFFCURVE",
"482 2 OFFCURVE",
"532 2 CURVE SMOOTH",
"592 2 OFFCURVE",
"633 -1 OFFCURVE",
"660 -5 CURVE"
);
},
{
closed = 1;
nodes = (
"347 433 LINE",
"255 332 LINE",
"66 69 LINE",
"57 61 OFFCURVE",
"33 54 OFFCURVE",
"11 51 CURVE",
"13 -3 LINE",
"43 -1 OFFCURVE",
"83 2 OFFCURVE",
"113 2 CURVE SMOOTH",
"143 2 OFFCURVE",
"200 -1 OFFCURVE",
"230 -3 CURVE",
"233 51 LINE",
"207 52 OFFCURVE",
"169 65 OFFCURVE",
"162 69 CURVE",
"302 268 LINE",
"396 370 LINE",
"561 593 LINE",
"570 599 OFFCURVE",
"593 606 OFFCURVE",
"615 606 CURVE",
"613 662 LINE",
"586 661 OFFCURVE",
"563 659 OFFCURVE",
"523 659 CURVE SMOOTH",
"483 659 OFFCURVE",
"437 661 OFFCURVE",
"410 662 CURVE",
"408 606 LINE",
"430 606 OFFCURVE",
"454 599 OFFCURVE",
"464 593 CURVE"
);
}
);
width = 666;
}
);
leftKerningGroup = X;
note = X;
rightKerningGroup = X;
unicode = 0058;
},
{
color = 3;
glyphname = Y;
lastChange = "2018-04-23 14:49:54 +0000";
layers = (
{
background = {
paths = (
{
closed = 1;
nodes = (
"354 322 LINE",
"266 322 LINE",
"266 217 LINE SMOOTH",
"266 87 OFFCURVE",
"262 61 OFFCURVE",
"258 54 CURVE",
"251 50 OFFCURVE",
"216 40 OFFCURVE",
"190 39 CURVE",
"192 -3 LINE",
"227 0 OFFCURVE",
"277 2 OFFCURVE",
"310 2 CURVE SMOOTH",
"343 2 OFFCURVE",
"393 0 OFFCURVE",
"428 -3 CURVE",
"430 39 LINE",
"404 40 OFFCURVE",
"369 50 OFFCURVE",
"362 54 CURVE",
"358 61 OFFCURVE",
"354 87 OFFCURVE",
"354 217 CURVE SMOOTH"
);
},
{
closed = 1;
nodes = (
"332 257 LINE",
"563 607 LINE",
"569 609 OFFCURVE",
"597 617 OFFCURVE",
"618 619 CURVE",
"616 661 LINE",
"593 660 OFFCURVE",
"568 659 OFFCURVE",
"538 659 CURVE SMOOTH",
"508 659 OFFCURVE",
"458 660 OFFCURVE",
"428 661 CURVE",
"426 619 LINE",
"452 619 OFFCURVE",
"487 609 OFFCURVE",
"495 607 CURVE",
"314 330 LINE",
"295 330 LINE",
"160 607 LINE",
"167 609 OFFCURVE",
"202 619 OFFCURVE",
"228 619 CURVE",
"226 661 LINE",
"191 659 OFFCURVE",
"147 658 OFFCURVE",
"113 658 CURVE SMOOTH",
"77 658 OFFCURVE",
"31 659 OFFCURVE",
"3 661 CURVE",
"1 619 LINE",
"22 617 OFFCURVE",
"50 609 OFFCURVE",
"56 607 CURVE",
"288 257 LINE"
);
}
);
};
color = -1;
layerId = "D75C065C-4EF6-4055-9CF2-70010DBCD897";
paths = (
{
closed = 1;
nodes = (
"567 612 OFFCURVE",
"595 618 OFFCURVE",
"608 619 CURVE",
"606 661 LINE",
"583 660 OFFCURVE",
"558 659 OFFCURVE",
"528 659 CURVE SMOOTH",
"500 659 OFFCURVE",
"450 660 OFFCURVE",
"418 661 CURVE",
"416 619 LINE",
"434 618 OFFCURVE",
"470 611 OFFCURVE",
"487 607 CURVE",
"318 335 LINE",
"340 335 LINE",
"168 607 LINE",
"183 611 OFFCURVE",
"220 618 OFFCURVE",
"240 619 CURVE",
"238 661 LINE",
"201 659 OFFCURVE",
"156 658 OFFCURVE",
"123 658 CURVE SMOOTH",
"87 658 OFFCURVE",
"41 659 OFFCURVE",
"13 661 CURVE",
"11 619 LINE",
"24 618 OFFCURVE",
"52 612 OFFCURVE",
"66 607 CURVE",
"288 257 LINE",
"267 322 LINE",
"267 217 LINE SMOOTH",
"267 87 OFFCURVE",
"263 61 OFFCURVE",
"259 54 CURVE",
"252 50 OFFCURVE",
"217 41 OFFCURVE",
"181 40 CURVE",
"183 -3 LINE",
"228 0 OFFCURVE",
"278 2 OFFCURVE",
"310 2 CURVE SMOOTH",
"343 2 OFFCURVE",
"392 0 OFFCURVE",
"437 -3 CURVE",
"439 40 LINE",
"403 41 OFFCURVE",
"368 50 OFFCURVE",
"361 54 CURVE",
"357 61 OFFCURVE",
"353 87 OFFCURVE",
"353 217 CURVE SMOOTH",
"353 322 LINE",
"332 257 LINE",
"553 607 LINE"
);
}
);
width = 621;
},
{
background = {
paths = (
{
closed = 1;
nodes = (
"255 319 LINE",
"255 219 LINE SMOOTH",
"255 133 OFFCURVE",
"251 77 OFFCURVE",
"247 69 CURVE",
"236 61 OFFCURVE",
"204 55 OFFCURVE",
"166 52 CURVE",
"169 -5 LINE",
"213 -1 OFFCURVE",
"270 2 OFFCURVE",
"324 2 CURVE SMOOTH",
"378 2 OFFCURVE",
"435 -1 OFFCURVE",
"479 -5 CURVE",
"482 52 LINE",
"444 55 OFFCURVE",
"412 61 OFFCURVE",
"401 69 CURVE",
"397 77 OFFCURVE",
"393 133 OFFCURVE",
"393 219 CURVE SMOOTH",
"393 319 LINE"
);
},
{
closed = 1;
nodes = (
"352 220 LINE",
"585 593 LINE",
"597 599 OFFCURVE",
"620 605 OFFCURVE",
"640 606 CURVE",
"637 662 LINE",
"601 661 OFFCURVE",
"572 660 OFFCURVE",
"541 660 CURVE SMOOTH",
"510 660 OFFCURVE",
"466 661 OFFCURVE",
"423 662 CURVE",
"420 605 LINE",
"454 603 OFFCURVE",
"485 599 OFFCURVE",
"502 595 CURVE",
"347 339 LINE",
"374 339 LINE",
"221 595 LINE",
"237 599 OFFCURVE",
"269 603 OFFCURVE",
"303 605 CURVE",
"300 662 LINE",
"257 661 OFFCURVE",
"183 659 OFFCURVE",
"143 659 CURVE SMOOTH",
"103 659 OFFCURVE",
"48 661 OFFCURVE",
"12 662 CURVE",
"9 606 LINE",
"29 605 OFFCURVE",
"52 599 OFFCURVE",
"64 593 CURVE",
"293 220 LINE"
);
}
);
};
color = -1;
layerId = "6D340022-02C4-426D-A0D8-A7BFACBEB22E";
paths = (
{
closed = 1;
nodes = (
"598 600 OFFCURVE",
"622 605 OFFCURVE",
"640 606 CURVE",
"637 662 LINE",
"601 661 OFFCURVE",
"572 660 OFFCURVE",
"541 660 CURVE SMOOTH",
"509 660 OFFCURVE",
"465 661 OFFCURVE",
"422 662 CURVE",
"419 605 LINE",
"450 603 OFFCURVE",
"483 599 OFFCURVE",
"501 595 CURVE",
"346 339 LINE",
"372 339 LINE",
"219 595 LINE",
"235 599 OFFCURVE",
"268 603 OFFCURVE",
"301 605 CURVE",
"298 662 LINE",
"258 661 OFFCURVE",
"183 659 OFFCURVE",
"143 659 CURVE SMOOTH",
"103 659 OFFCURVE",
"52 661 OFFCURVE",
"12 662 CURVE",
"9 606 LINE",
"29 604 OFFCURVE",
"52 599 OFFCURVE",
"64 594 CURVE",
"293 220 LINE",
"256 319 LINE",
"256 219 LINE SMOOTH",
"256 133 OFFCURVE",
"252 77 OFFCURVE",
"248 69 CURVE",
"237 61 OFFCURVE",
"205 55 OFFCURVE",
"167 52 CURVE",
"170 -5 LINE",
"214 -1 OFFCURVE",
"271 2 OFFCURVE",
"324 2 CURVE SMOOTH",
"378 2 OFFCURVE",
"434 -1 OFFCURVE",
"478 -5 CURVE",
"481 52 LINE",
"443 55 OFFCURVE",
"411 61 OFFCURVE",
"400 69 CURVE",
"396 77 OFFCURVE",
"392 133 OFFCURVE",
"392 219 CURVE SMOOTH",
"392 319 LINE",
"352 220 LINE",
"585 594 LINE"
);
}
);
width = 648;
}
);
leftKerningGroup = Y;
note = Y;
rightKerningGroup = Y;
unicode = 0059;
},
{
color = 4;
glyphname = Z;
lastChange = "2018-04-23 14:49:54 +0000";
layers = (
{
background = {
paths = (
{
closed = 1;
nodes = (
"1156 175 LINE",
"1112 180 LINE",
"1100 120 OFFCURVE",
"1081 72 OFFCURVE",
"1062 56 CURVE",
"1051 54 OFFCURVE",
"1035 53 OFFCURVE",
"1022 53 CURVE SMOOTH",
"764 53 LINE",
"764 17 LINE",
"1127 627 LINE",
"1127 662 LINE",
"1099 661 OFFCURVE",
"1070 660 OFFCURVE",
"1042 660 CURVE SMOOTH",
"738 660 LINE SMOOTH",
"711 660 OFFCURVE",
"681 660 OFFCURVE",
"648 661 CURVE",
"649 492 LINE",
"693 492 LINE",
"697 542 OFFCURVE",
"701 580 OFFCURVE",
"707 604 CURVE",
"726 607 OFFCURVE",
"748 608 OFFCURVE",
"768 608 CURVE SMOOTH",
"1031 608 LINE",
"1031 643 LINE",
"667 33 LINE",
"667 -2 LINE",
"695 -1 OFFCURVE",
"723 0 OFFCURVE",
"751 0 CURVE SMOOTH",
"1029 0 LINE SMOOTH",
"1063 0 OFFCURVE",
"1095 -1 OFFCURVE",
"1131 -4 CURVE"
);
},
{
closed = 1;
nodes = (
"514 666 OFFCURVE",
"486 665 OFFCURVE",
"451 665 CURVE SMOOTH",
"179 665 LINE SMOOTH",
"146 665 OFFCURVE",
"96 665 OFFCURVE",
"61 668 CURVE",
"59 626 LINE",
"85 625 OFFCURVE",
"120 615 OFFCURVE",
"127 611 CURVE",
"131 604 OFFCURVE",
"135 578 OFFCURVE",
"135 448 CURVE SMOOTH",
"135 223 LINE SMOOTH",
"135 93 OFFCURVE",
"131 67 OFFCURVE",
"127 60 CURVE",
"120 56 OFFCURVE",
"85 48 OFFCURVE",
"59 46 CURVE",
"61 4 LINE",
"96 6 OFFCURVE",
"146 5 OFFCURVE",
"179 5 CURVE SMOOTH",
"429 5 LINE SMOOTH",
"463 5 OFFCURVE",
"495 4 OFFCURVE",
"531 1 CURVE",
"552 144 LINE",
"504 151 LINE",
"493 115 OFFCURVE",
"480 81 OFFCURVE",
"466 56 CURVE",
"455 54 OFFCURVE",
"439 53 OFFCURVE",
"426 53 CURVE SMOOTH",
"293 53 LINE SMOOTH",
"262 53 OFFCURVE",
"243 55 OFFCURVE",
"226 57 CURVE",
"225 66 OFFCURVE",
"223 139 OFFCURVE",
"223 183 CURVE SMOOTH",
"223 507 LINE SMOOTH",
"223 550 OFFCURVE",
"225 602 OFFCURVE",
"226 611 CURVE",
"243 613 OFFCURVE",
"262 615 OFFCURVE",
"293 615 CURVE SMOOTH",
"405 615 LINE SMOOTH",
"456 615 OFFCURVE",
"475 613 OFFCURVE",
"486 611 CURVE",
"498 594 OFFCURVE",
"518 556 OFFCURVE",
"543 502 CURVE",
"591 512 LINE",
"548 670 LINE"
);
}
);
};
color = -1;
layerId = "D75C065C-4EF6-4055-9CF2-70010DBCD897";
paths = (
{
closed = 1;
nodes = (
"556 175 LINE",
"513 180 LINE",
"494 124 OFFCURVE",
"480 83 OFFCURVE",
"466 56 CURVE",
"455 54 OFFCURVE",
"439 53 OFFCURVE",
"426 53 CURVE SMOOTH",
"164 53 LINE",
"164 17 LINE",
"527 627 LINE",
"527 662 LINE",
"499 661 OFFCURVE",
"470 660 OFFCURVE",
"442 660 CURVE SMOOTH",
"138 660 LINE SMOOTH",
"111 660 OFFCURVE",
"81 660 OFFCURVE",
"48 661 CURVE",
"49 492 LINE",
"93 492 LINE",
"97 539 OFFCURVE",
"102 577 OFFCURVE",
"107 604 CURVE",
"126 607 OFFCURVE",
"148 608 OFFCURVE",
"178 608 CURVE SMOOTH",
"431 608 LINE",
"431 643 LINE",
"67 33 LINE",
"67 -2 LINE",
"95 -1 OFFCURVE",
"123 0 OFFCURVE",
"151 0 CURVE SMOOTH",
"429 0 LINE SMOOTH",
"463 0 OFFCURVE",
"494 -1 OFFCURVE",
"530 -4 CURVE"
);
}
);
width = 594;
},
{
background = {
paths = (
{
closed = 1;
nodes = (
"1375 190 LINE",
"1316 196 LINE",
"1306 145 OFFCURVE",
"1290 98 OFFCURVE",
"1267 69 CURVE",
"1255 67 OFFCURVE",
"1244 65 OFFCURVE",
"1223 65 CURVE SMOOTH",
"998 65 LINE",
"998 23 LINE",
"1347 610 LINE",
"1347 662 LINE",
"1318 661 OFFCURVE",
"1288 660 OFFCURVE",
"1259 660 CURVE SMOOTH",
"943 660 LINE SMOOTH",
"915 660 OFFCURVE",
"874 660 OFFCURVE",
"839 662 CURVE",
"841 478 LINE",
"900 478 LINE",
"905 531 OFFCURVE",
"911 566 OFFCURVE",
"920 591 CURVE",
"942 594 OFFCURVE",
"965 596 OFFCURVE",
"1007 596 CURVE SMOOTH",
"1210 596 LINE",
"1210 642 LINE",
"856 49 LINE",
"856 -3 LINE",
"885 -1 OFFCURVE",
"915 0 OFFCURVE",
"944 0 CURVE SMOOTH",
"1210 0 LINE SMOOTH",
"1249 0 OFFCURVE",
"1318 -3 OFFCURVE",
"1351 -5 CURVE"
);
},
{
closed = 1;
nodes = (
"538 670 OFFCURVE",
"477 667 OFFCURVE",
"433 667 CURVE SMOOTH",
"192 667 LINE SMOOTH",
"147 667 OFFCURVE",
"81 668 OFFCURVE",
"47 672 CURVE",
"44 616 LINE",
"72 613 OFFCURVE",
"104 606 OFFCURVE",
"115 598 CURVE",
"119 590 OFFCURVE",
"123 534 OFFCURVE",
"123 428 CURVE SMOOTH",
"123 246 LINE SMOOTH",
"123 140 OFFCURVE",
"119 84 OFFCURVE",
"115 76 CURVE",
"104 68 OFFCURVE",
"72 61 OFFCURVE",
"44 60 CURVE",
"47 4 LINE",
"81 6 OFFCURVE",
"147 7 OFFCURVE",
"192 7 CURVE SMOOTH",
"395 7 LINE SMOOTH",
"439 7 OFFCURVE",
"513 4 OFFCURVE",
"551 2 CURVE",
"580 162 LINE",
"518 170 LINE",
"502 129 OFFCURVE",
"492 98 OFFCURVE",
"477 69 CURVE",
"459 66 OFFCURVE",
"445 65 OFFCURVE",
"428 65 CURVE SMOOTH",
"335 65 LINE SMOOTH",
"310 65 OFFCURVE",
"282 66 OFFCURVE",
"263 69 CURVE",
"261 84 OFFCURVE",
"260 140 OFFCURVE",
"260 206 CURVE SMOOTH",
"260 468 LINE SMOOTH",
"260 534 OFFCURVE",
"261 584 OFFCURVE",
"263 600 CURVE",
"288 603 OFFCURVE",
"312 605 OFFCURVE",
"354 605 CURVE SMOOTH",
"424 605 LINE SMOOTH",
"472 605 OFFCURVE",
"485 604 OFFCURVE",
"504 601 CURVE",
"523 572 OFFCURVE",
"542 533 OFFCURVE",
"565 486 CURVE",
"625 498 LINE",
"576 673 LINE"
);
},
{
closed = 1;
nodes = (
"435 418 OFFCURVE",
"429 377 OFFCURVE",
"425 364 CURVE",
"416 363 OFFCURVE",
"393 361 OFFCURVE",
"365 361 CURVE SMOOTH",
"301 361 LINE SMOOTH",
"276 361 OFFCURVE",
"253 363 OFFCURVE",
"237 364 CURVE",
"237 293 LINE",
"253 294 OFFCURVE",
"276 296 OFFCURVE",
"301 296 CURVE SMOOTH",
"365 296 LINE SMOOTH",
"393 296 OFFCURVE",
"416 294 OFFCURVE",
"425 293 CURVE",
"429 280 OFFCURVE",
"435 241 OFFCURVE",
"438 218 CURVE",
"497 218 LINE",
"496 255 OFFCURVE",
"494 293 OFFCURVE",
"494 328 CURVE SMOOTH",
"494 363 OFFCURVE",
"496 404 OFFCURVE",
"497 441 CURVE",
"438 441 LINE"
);
}
);
};
color = -1;
layerId = "6D340022-02C4-426D-A0D8-A7BFACBEB22E";
paths = (
{
closed = 1;
nodes = (
"590 189 LINE",
"531 197 LINE",
"511 138 OFFCURVE",
"496 96 OFFCURVE",
"482 66 CURVE",
"464 63 OFFCURVE",
"450 62 OFFCURVE",
"433 62 CURVE SMOOTH",
"198 62 LINE",
"198 23 LINE",
"547 610 LINE",
"547 662 LINE",
"518 661 OFFCURVE",
"488 660 OFFCURVE",
"459 660 CURVE SMOOTH",
"143 660 LINE SMOOTH",
"115 660 OFFCURVE",
"74 660 OFFCURVE",
"39 662 CURVE",
"41 478 LINE",
"100 478 LINE",
"107 531 OFFCURVE",
"113 566 OFFCURVE",
"120 596 CURVE",
"142 599 OFFCURVE",
"165 601 OFFCURVE",
"207 601 CURVE SMOOTH",
"410 601 LINE",
"410 642 LINE",
"56 49 LINE",
"56 -3 LINE",
"85 -1 OFFCURVE",
"115 0 OFFCURVE",
"144 0 CURVE SMOOTH",
"415 0 LINE SMOOTH",
"454 0 OFFCURVE",
"523 -3 OFFCURVE",
"556 -5 CURVE"
);
}
);
width = 603;
}
);
leftKerningGroup = Z;
note = Z;
rightKerningGroup = Z;
unicode = 005A;
},
{
color = 4;
glyphname = a;
lastChange = "2018-04-23 21:06:19 +0000";
layers = (
{
background = {
paths = (
{
closed = 1;
nodes = (
"822 -8 OFFCURVE",
"863 4 OFFCURVE",
"916 66 CURVE",
"901 66 LINE",
"912 27 LINE SMOOTH",
"918 6 OFFCURVE",
"930 -8 OFFCURVE",
"952 -8 CURVE SMOOTH",
"970 -8 OFFCURVE",
"1001 7 OFFCURVE",
"1046 22 CURVE",
"1046 52 LINE",
"1028 54 OFFCURVE",
"991 60 OFFCURVE",
"982 64 CURVE",
"980 70 OFFCURVE",
"975 93 OFFCURVE",
"975 128 CURVE",
"978 297 LINE",
"978 385 OFFCURVE",
"908 438 OFFCURVE",
"815 438 CURVE",
"762 430 OFFCURVE",
"660 381 OFFCURVE",
"660 330 CURVE SMOOTH",
"660 311 OFFCURVE",
"675 297 OFFCURVE",
"695 297 CURVE SMOOTH",
"712 297 OFFCURVE",
"725 305 OFFCURVE",
"745 334 CURVE SMOOTH",
"783 391 LINE",
"849 391 OFFCURVE",
"899 349 OFFCURVE",
"899 297 CURVE SMOOTH",
"899 246 LINE",
"747 195 LINE SMOOTH",
"678 172 OFFCURVE",
"653 144 OFFCURVE",
"653 101 CURVE SMOOTH",
"653 51 OFFCURVE",
"707 -8 OFFCURVE",
"790 -8 CURVE SMOOTH"
);
},
{
closed = 1;
nodes = (
"780 51 OFFCURVE",
"742 81 OFFCURVE",
"742 117 CURVE SMOOTH",
"742 144 OFFCURVE",
"755 160 OFFCURVE",
"787 169 CURVE SMOOTH",
"899 199 LINE",
"899 94 LINE",
"872 62 OFFCURVE",
"845 51 OFFCURVE",
"817 51 CURVE SMOOTH"
);
},
{
closed = 1;
nodes = (
"222 -8 OFFCURVE",
"263 4 OFFCURVE",
"316 66 CURVE",
"301 66 LINE",
"312 27 LINE SMOOTH",
"318 6 OFFCURVE",
"330 -8 OFFCURVE",
"352 -8 CURVE SMOOTH",
"370 -8 OFFCURVE",
"401 7 OFFCURVE",
"446 22 CURVE",
"446 52 LINE",
"428 54 OFFCURVE",
"391 60 OFFCURVE",
"382 64 CURVE",
"380 70 OFFCURVE",
"375 93 OFFCURVE",
"375 128 CURVE",
"378 297 LINE",
"378 385 OFFCURVE",
"308 438 OFFCURVE",
"212 438 CURVE",
"151 422 OFFCURVE",
"52 377 OFFCURVE",
"52 329 CURVE SMOOTH",
"52 309 OFFCURVE",
"68 297 OFFCURVE",
"88 297 CURVE SMOOTH",
"106 297 OFFCURVE",
"118 304 OFFCURVE",
"139 331 CURVE SMOOTH",
"199 409 LINE",
"174 409 LINE",
"174 394 LINE",
"246 394 OFFCURVE",
"299 349 OFFCURVE",
"299 292 CURVE SMOOTH",
"299 246 LINE",
"147 195 LINE SMOOTH",
"78 172 OFFCURVE",
"53 144 OFFCURVE",
"53 101 CURVE SMOOTH",
"53 51 OFFCURVE",
"107 -8 OFFCURVE",
"190 -8 CURVE SMOOTH"
);
},
{
closed = 1;
nodes = (
"180 51 OFFCURVE",
"142 81 OFFCURVE",
"142 117 CURVE SMOOTH",
"142 144 OFFCURVE",
"155 160 OFFCURVE",
"187 169 CURVE SMOOTH",
"299 199 LINE",
"299 94 LINE",
"272 62 OFFCURVE",
"245 51 OFFCURVE",
"217 51 CURVE SMOOTH"
);
}
);
};
color = -1;
layerId = "D75C065C-4EF6-4055-9CF2-70010DBCD897";
paths = (
{
closed = 1;
nodes = (
"222 -8 OFFCURVE",
"263 4 OFFCURVE",
"316 66 CURVE",
"301 66 LINE",
"312 27 LINE SMOOTH",
"318 6 OFFCURVE",
"330 -8 OFFCURVE",
"352 -8 CURVE SMOOTH",
"370 -8 OFFCURVE",
"401 7 OFFCURVE",
"446 22 CURVE",
"446 52 LINE",
"428 54 OFFCURVE",
"391 60 OFFCURVE",
"382 64 CURVE",
"380 70 OFFCURVE",
"375 93 OFFCURVE",
"375 128 CURVE",
"378 297 LINE",
"378 385 OFFCURVE",
"308 438 OFFCURVE",
"215 438 CURVE",
"154 422 OFFCURVE",
"55 378 OFFCURVE",
"55 331 CURVE SMOOTH",
"55 309 OFFCURVE",
"73 297 OFFCURVE",
"94 297 CURVE SMOOTH",
"112 297 OFFCURVE",
"128 306 OFFCURVE",
"141 327 CURVE SMOOTH",
"192 409 LINE",
"177 409 LINE",
"177 394 LINE",
"246 394 OFFCURVE",
"299 349 OFFCURVE",
"299 292 CURVE SMOOTH",
"299 246 LINE",
"147 195 LINE SMOOTH",
"78 172 OFFCURVE",
"53 144 OFFCURVE",
"53 101 CURVE SMOOTH",
"53 51 OFFCURVE",
"107 -8 OFFCURVE",
"190 -8 CURVE SMOOTH"
);
},
{
closed = 1;
nodes = (
"180 51 OFFCURVE",
"142 81 OFFCURVE",
"142 117 CURVE SMOOTH",
"142 144 OFFCURVE",
"155 160 OFFCURVE",
"187 169 CURVE SMOOTH",
"299 199 LINE",
"299 94 LINE",
"272 62 OFFCURVE",
"245 51 OFFCURVE",
"217 51 CURVE SMOOTH"
);
}
);
width = 477;
},
{
background = {
paths = (
{
closed = 1;
nodes = (
"819 -8 OFFCURVE",
"870 14 OFFCURVE",
"910 73 CURVE",
"890 79 LINE",
"908 33 LINE SMOOTH",
"918 8 OFFCURVE",
"933 -8 OFFCURVE",
"963 -8 CURVE SMOOTH",
"997 -8 OFFCURVE",
"1029 11 OFFCURVE",
"1092 34 CURVE",
"1092 75 LINE",
"1069 78 OFFCURVE",
"1044 82 OFFCURVE",
"1027 89 CURVE",
"1020 103 OFFCURVE",
"1017 121 OFFCURVE",
"1017 158 CURVE",
"1021 296 LINE",
"1021 391 OFFCURVE",
"947 448 OFFCURVE",
"822 448 CURVE",
"750 437 OFFCURVE",
"648 384 OFFCURVE",
"648 329 CURVE SMOOTH",
"648 302 OFFCURVE",
"669 284 OFFCURVE",
"700 284 CURVE SMOOTH",
"724 284 OFFCURVE",
"742 294 OFFCURVE",
"760 329 CURVE SMOOTH",
"786 380 LINE",
"829 377 OFFCURVE",
"886 341 OFFCURVE",
"886 291 CURVE SMOOTH",
"886 259 LINE",
"729 213 LINE SMOOTH",
"661 193 OFFCURVE",
"637 160 OFFCURVE",
"637 114 CURVE SMOOTH",
"637 63 OFFCURVE",
"692 -8 OFFCURVE",
"786 -8 CURVE SMOOTH"
);
},
{
closed = 1;
nodes = (
"807 83 OFFCURVE",
"775 111 OFFCURVE",
"775 144 CURVE SMOOTH",
"775 169 OFFCURVE",
"788 184 OFFCURVE",
"821 190 CURVE SMOOTH",
"887 202 LINE",
"887 108 LINE",
"872 89 OFFCURVE",
"853 83 OFFCURVE",
"837 83 CURVE SMOOTH"
);
},
{
closed = 1;
nodes = (
"219 -8 OFFCURVE",
"270 14 OFFCURVE",
"310 73 CURVE",
"290 79 LINE",
"308 33 LINE SMOOTH",
"318 8 OFFCURVE",
"333 -8 OFFCURVE",
"363 -8 CURVE SMOOTH",
"397 -8 OFFCURVE",
"429 11 OFFCURVE",
"492 34 CURVE",
"492 75 LINE",
"469 78 OFFCURVE",
"444 82 OFFCURVE",
"427 89 CURVE",
"420 103 OFFCURVE",
"417 121 OFFCURVE",
"417 158 CURVE",
"421 296 LINE",
"421 391 OFFCURVE",
"347 448 OFFCURVE",
"215 448 CURVE",
"150 434 OFFCURVE",
"40 381 OFFCURVE",
"40 329 CURVE SMOOTH",
"40 302 OFFCURVE",
"62 284 OFFCURVE",
"95 284 CURVE SMOOTH",
"122 284 OFFCURVE",
"139 294 OFFCURVE",
"158 329 CURVE SMOOTH",
"186 380 LINE",
"229 377 OFFCURVE",
"286 341 OFFCURVE",
"286 291 CURVE SMOOTH",
"286 259 LINE",
"129 213 LINE SMOOTH",
"61 193 OFFCURVE",
"37 160 OFFCURVE",
"37 114 CURVE SMOOTH",
"37 63 OFFCURVE",
"92 -8 OFFCURVE",
"186 -8 CURVE SMOOTH"
);
},
{
closed = 1;
nodes = (
"207 83 OFFCURVE",
"175 111 OFFCURVE",
"175 144 CURVE SMOOTH",
"175 169 OFFCURVE",
"188 184 OFFCURVE",
"221 190 CURVE SMOOTH",
"287 202 LINE",
"287 108 LINE",
"272 89 OFFCURVE",
"253 83 OFFCURVE",
"237 83 CURVE SMOOTH"
);
}
);
};
color = -1;
layerId = "6D340022-02C4-426D-A0D8-A7BFACBEB22E";
paths = (
{
closed = 1;
nodes = (
"219 -8 OFFCURVE",
"270 14 OFFCURVE",
"310 73 CURVE",
"290 79 LINE",
"308 33 LINE SMOOTH",
"318 8 OFFCURVE",
"333 -8 OFFCURVE",
"363 -8 CURVE SMOOTH",
"397 -8 OFFCURVE",
"429 11 OFFCURVE",
"492 34 CURVE",
"492 75 LINE",
"469 78 OFFCURVE",
"444 82 OFFCURVE",
"427 89 CURVE",
"420 103 OFFCURVE",
"417 121 OFFCURVE",
"417 158 CURVE",
"421 289 LINE",
"421 391 OFFCURVE",
"347 448 OFFCURVE",
"215 448 CURVE",
"150 434 OFFCURVE",
"40 381 OFFCURVE",
"40 327 CURVE SMOOTH",
"40 300 OFFCURVE",
"64 283 OFFCURVE",
"94 283 CURVE SMOOTH",
"120 283 OFFCURVE",
"144 296 OFFCURVE",
"158 329 CURVE SMOOTH",
"186 397 LINE",
"176 397 LINE",
"176 379 LINE",
"227 379 OFFCURVE",
"287 343 OFFCURVE",
"287 288 CURVE SMOOTH",
"287 259 LINE",
"129 213 LINE SMOOTH",
"61 193 OFFCURVE",
"37 160 OFFCURVE",
"37 114 CURVE SMOOTH",
"37 63 OFFCURVE",
"92 -8 OFFCURVE",
"186 -8 CURVE SMOOTH"
);
},
{
closed = 1;
nodes = (
"207 83 OFFCURVE",
"175 111 OFFCURVE",
"175 144 CURVE SMOOTH",
"175 169 OFFCURVE",
"188 184 OFFCURVE",
"221 190 CURVE SMOOTH",
"287 202 LINE",
"287 108 LINE",
"272 89 OFFCURVE",
"253 83 OFFCURVE",
"237 83 CURVE SMOOTH"
);
}
);
width = 504;
}
);
leftKerningGroup = a;
note = a;
rightKerningGroup = a;
unicode = 0061;
},
{
color = 3;
glyphname = ae;
lastChange = "2018-04-23 21:27:21 +0000";
layers = (
{
background = {
paths = (
{
closed = 1;
nodes = (
"1025 -7 OFFCURVE",
"1090 39 OFFCURVE",
"1122 78 CURVE",
"1160 22 OFFCURVE",
"1214 -6 OFFCURVE",
"1284 -6 CURVE SMOOTH",
"1339 -6 OFFCURVE",
"1386 18 OFFCURVE",
"1426 65 CURVE",
"1431 70 OFFCURVE",
"1433 76 OFFCURVE",
"1433 85 CURVE SMOOTH",
"1433 94 OFFCURVE",
"1431 98 OFFCURVE",
"1427 98 CURVE SMOOTH",
"1422 98 OFFCURVE",
"1338 58 OFFCURVE",
"1308 58 CURVE SMOOTH",
"1225 58 OFFCURVE",
"1159 129 OFFCURVE",
"1159 214 CURVE SMOOTH",
"1159 219 OFFCURVE",
"1162 222 OFFCURVE",
"1167 222 CURVE",
"1259 227 OFFCURVE",
"1339 232 OFFCURVE",
"1406 237 CURVE",
"1410 237 OFFCURVE",
"1424 238 OFFCURVE",
"1426 240 CURVE SMOOTH",
"1434 248 OFFCURVE",
"1434 249 OFFCURVE",
"1435 265 CURVE",
"1435 353 OFFCURVE",
"1388 436 OFFCURVE",
"1272 436 CURVE SMOOTH",
"1223 436 OFFCURVE",
"1181 418 OFFCURVE",
"1145 382 CURVE",
"1133 415 OFFCURVE",
"1093 436 OFFCURVE",
"1049 436 CURVE SMOOTH",
"962 436 OFFCURVE",
"858 365 OFFCURVE",
"858 308 CURVE",
"865 295 OFFCURVE",
"878 289 OFFCURVE",
"897 289 CURVE SMOOTH",
"924 289 OFFCURVE",
"938 301 OFFCURVE",
"938 324 CURVE SMOOTH",
"938 368 OFFCURVE",
"968 398 OFFCURVE",
"1008 398 CURVE SMOOTH",
"1044 398 OFFCURVE",
"1076 373 OFFCURVE",
"1076 340 CURVE SMOOTH",
"1076 256 LINE SMOOTH",
"1076 247 OFFCURVE",
"1073 242 OFFCURVE",
"1067 241 CURVE",
"979 225 OFFCURVE",
"854 181 OFFCURVE",
"854 91 CURVE SMOOTH",
"854 26 OFFCURVE",
"899 -7 OFFCURVE",
"960 -7 CURVE SMOOTH"
);
},
{
closed = 1;
nodes = (
"1076 36 OFFCURVE",
"938 31 OFFCURVE",
"938 106 CURVE SMOOTH",
"938 153 OFFCURVE",
"984 186 OFFCURVE",
"1076 203 CURVE",
"1076 100 LINE SMOOTH"
);
},
{
closed = 1;
nodes = (
"1162 261 OFFCURVE",
"1160 263 OFFCURVE",
"1160 267 CURVE SMOOTH",
"1160 323 OFFCURVE",
"1203 399 OFFCURVE",
"1268 399 CURVE SMOOTH",
"1316 399 OFFCURVE",
"1358 323 OFFCURVE",
"1358 287 CURVE SMOOTH",
"1358 282 OFFCURVE",
"1356 279 OFFCURVE",
"1353 278 CURVE",
"1345 275 OFFCURVE",
"1221 264 OFFCURVE",
"1166 261 CURVE"
);
},
{
closed = 1;
nodes = (
"570 -8 OFFCURVE",
"628 26 OFFCURVE",
"666 95 CURVE",
"642 119 LINE",
"604 73 OFFCURVE",
"569 59 OFFCURVE",
"524 59 CURVE SMOOTH",
"441 59 OFFCURVE",
"381 123 OFFCURVE",
"381 233 CURVE SMOOTH",
"381 241 LINE SMOOTH",
"381 340 OFFCURVE",
"433 397 OFFCURVE",
"495 397 CURVE SMOOTH",
"543 397 OFFCURVE",
"586 364 OFFCURVE",
"586 279 CURVE SMOOTH",
"586 255 LINE",
"598 268 LINE",
"358 268 LINE",
"358 219 LINE",
"665 233 LINE",
"665 252 LINE SMOOTH",
"665 371 OFFCURVE",
"601 437 OFFCURVE",
"503 438 CURVE SMOOTH",
"502 438 OFFCURVE",
"502 438 OFFCURVE",
"501 438 CURVE SMOOTH",
"378 438 OFFCURVE",
"293 333 OFFCURVE",
"293 206 CURVE SMOOTH",
"293 162 OFFCURVE",
"303 124 OFFCURVE",
"320 92 CURVE SMOOTH",
"356 29 OFFCURVE",
"421 -8 OFFCURVE",
"499 -8 CURVE SMOOTH"
);
},
{
closed = 1;
nodes = (
"226 -8 OFFCURVE",
"267 4 OFFCURVE",
"320 66 CURVE",
"305 66 LINE",
"316 27 LINE SMOOTH",
"322 6 OFFCURVE",
"334 -8 OFFCURVE",
"356 -8 CURVE SMOOTH",
"374 -8 OFFCURVE",
"405 7 OFFCURVE",
"450 22 CURVE",
"450 52 LINE",
"432 54 OFFCURVE",
"395 60 OFFCURVE",
"386 64 CURVE",
"384 70 OFFCURVE",
"379 93 OFFCURVE",
"379 128 CURVE",
"382 297 LINE",
"382 385 OFFCURVE",
"312 438 OFFCURVE",
"219 438 CURVE",
"158 422 OFFCURVE",
"59 378 OFFCURVE",
"59 331 CURVE SMOOTH",
"59 309 OFFCURVE",
"77 297 OFFCURVE",
"98 297 CURVE SMOOTH",
"116 297 OFFCURVE",
"132 306 OFFCURVE",
"145 327 CURVE SMOOTH",
"196 409 LINE",
"181 409 LINE",
"181 394 LINE",
"250 394 OFFCURVE",
"303 349 OFFCURVE",
"303 292 CURVE SMOOTH",
"303 246 LINE",
"151 195 LINE SMOOTH",
"82 172 OFFCURVE",
"57 144 OFFCURVE",
"57 101 CURVE SMOOTH",
"57 51 OFFCURVE",
"111 -8 OFFCURVE",
"194 -8 CURVE SMOOTH"
);
},
{
closed = 1;
nodes = (
"184 51 OFFCURVE",
"146 81 OFFCURVE",
"146 117 CURVE SMOOTH",
"146 144 OFFCURVE",
"159 160 OFFCURVE",
"191 169 CURVE SMOOTH",
"303 199 LINE",
"303 94 LINE",
"276 62 OFFCURVE",
"249 51 OFFCURVE",
"221 51 CURVE SMOOTH"
);
}
);
};
color = -1;
layerId = "D75C065C-4EF6-4055-9CF2-70010DBCD897";
paths = (
{
closed = 1;
nodes = (
"255 -8 OFFCURVE",
"290 13 OFFCURVE",
"357 88 CURVE",
"328 117 LINE",
"290 70 OFFCURVE",
"261 51 OFFCURVE",
"225 51 CURVE SMOOTH",
"183 51 OFFCURVE",
"144 82 OFFCURVE",
"144 117 CURVE SMOOTH",
"144 146 OFFCURVE",
"161 161 OFFCURVE",
"191 167 CURVE SMOOTH",
"656 255 LINE",
"656 366 OFFCURVE",
"594 438 OFFCURVE",
"499 438 CURVE SMOOTH",
"435 438 OFFCURVE",
"381 406 OFFCURVE",
"351 349 CURVE",
"371 349 LINE",
"353 404 OFFCURVE",
"294 438 OFFCURVE",
"219 438 CURVE",
"131 415 OFFCURVE",
"59 367 OFFCURVE",
"59 331 CURVE SMOOTH",
"59 311 OFFCURVE",
"75 297 OFFCURVE",
"98 297 CURVE SMOOTH",
"117 297 OFFCURVE",
"133 307 OFFCURVE",
"145 327 CURVE SMOOTH",
"196 409 LINE",
"181 409 LINE",
"181 394 LINE",
"252 394 OFFCURVE",
"303 347 OFFCURVE",
"303 282 CURVE SMOOTH",
"303 196 LINE SMOOTH",
"303 76 OFFCURVE",
"381 -8 OFFCURVE",
"494 -8 CURVE SMOOTH",
"563 -8 OFFCURVE",
"620 28 OFFCURVE",
"657 95 CURVE",
"633 119 LINE",
"598 77 OFFCURVE",
"564 59 OFFCURVE",
"519 59 CURVE SMOOTH",
"437 59 OFFCURVE",
"383 128 OFFCURVE",
"383 233 CURVE SMOOTH",
"383 261 LINE SMOOTH",
"383 338 OFFCURVE",
"429 397 OFFCURVE",
"490 397 CURVE SMOOTH",
"543 397 OFFCURVE",
"577 351 OFFCURVE",
"577 279 CURVE SMOOTH",
"577 255 LINE",
"589 283 LINE",
"181 205 LINE SMOOTH",
"94 188 OFFCURVE",
"55 155 OFFCURVE",
"55 101 CURVE SMOOTH",
"55 41 OFFCURVE",
"125 -8 OFFCURVE",
"198 -8 CURVE SMOOTH"
);
}
);
width = 693;
},
{
background = {
paths = (
{
closed = 1;
nodes = (
"925 -8 OFFCURVE",
"976 14 OFFCURVE",
"1016 73 CURVE",
"996 79 LINE",
"1014 33 LINE SMOOTH",
"1024 8 OFFCURVE",
"1039 -8 OFFCURVE",
"1069 -8 CURVE SMOOTH",
"1103 -8 OFFCURVE",
"1135 11 OFFCURVE",
"1198 34 CURVE",
"1198 75 LINE",
"1175 78 OFFCURVE",
"1150 82 OFFCURVE",
"1133 89 CURVE",
"1126 103 OFFCURVE",
"1123 121 OFFCURVE",
"1123 158 CURVE",
"1127 289 LINE",
"1127 391 OFFCURVE",
"1053 448 OFFCURVE",
"921 448 CURVE",
"856 434 OFFCURVE",
"746 381 OFFCURVE",
"746 327 CURVE SMOOTH",
"746 300 OFFCURVE",
"770 283 OFFCURVE",
"800 283 CURVE SMOOTH",
"826 283 OFFCURVE",
"850 296 OFFCURVE",
"864 329 CURVE SMOOTH",
"892 397 LINE",
"882 397 LINE",
"882 379 LINE",
"933 379 OFFCURVE",
"993 343 OFFCURVE",
"993 288 CURVE SMOOTH",
"993 259 LINE",
"835 213 LINE SMOOTH",
"767 193 OFFCURVE",
"743 160 OFFCURVE",
"743 114 CURVE SMOOTH",
"743 63 OFFCURVE",
"798 -8 OFFCURVE",
"892 -8 CURVE SMOOTH"
);
},
{
closed = 1;
nodes = (
"913 83 OFFCURVE",
"881 111 OFFCURVE",
"881 144 CURVE SMOOTH",
"881 169 OFFCURVE",
"894 184 OFFCURVE",
"927 190 CURVE SMOOTH",
"993 202 LINE",
"993 108 LINE",
"978 89 OFFCURVE",
"959 83 OFFCURVE",
"943 83 CURVE SMOOTH"
);
},
{
closed = 1;
nodes = (
"1301 -8 OFFCURVE",
"1373 34 OFFCURVE",
"1410 115 CURVE",
"1379 144 LINE",
"1344 104 OFFCURVE",
"1308 89 OFFCURVE",
"1263 89 CURVE SMOOTH",
"1185 89 OFFCURVE",
"1126 146 OFFCURVE",
"1126 244 CURVE SMOOTH",
"1126 263 LINE SMOOTH",
"1126 344 OFFCURVE",
"1166 392 OFFCURVE",
"1215 392 CURVE SMOOTH",
"1253 392 OFFCURVE",
"1286 365 OFFCURVE",
"1286 296 CURVE SMOOTH",
"1286 255 LINE",
"1306 280 LINE",
"1115 280 LINE",
"1114 220 LINE",
"1404 237 LINE",
"1404 251 LINE SMOOTH",
"1404 382 OFFCURVE",
"1326 448 OFFCURVE",
"1223 448 CURVE SMOOTH",
"1103 448 OFFCURVE",
"993 353 OFFCURVE",
"993 212 CURVE SMOOTH",
"993 82 OFFCURVE",
"1093 -8 OFFCURVE",
"1216 -8 CURVE SMOOTH"
);
},
{
closed = 1;
nodes = (
"321 259 LINE",
"142 213 LINE SMOOTH",
"66 193 OFFCURVE",
"38 160 OFFCURVE",
"38 114 CURVE SMOOTH",
"38 63 OFFCURVE",
"100 -8 OFFCURVE",
"206 -8 CURVE SMOOTH",
"243 -8 OFFCURVE",
"301 14 OFFCURVE",
"346 73 CURVE"
);
},
{
closed = 1;
nodes = (
"212 81 OFFCURVE",
"176 107 OFFCURVE",
"176 138 CURVE SMOOTH",
"176 162 OFFCURVE",
"191 176 OFFCURVE",
"228 182 CURVE SMOOTH",
"304 193 LINE",
"304 105 LINE",
"286 87 OFFCURVE",
"265 81 OFFCURVE",
"247 81 CURVE SMOOTH"
);
}
);
};
color = -1;
layerId = "6D340022-02C4-426D-A0D8-A7BFACBEB22E";
paths = (
{
closed = 1;
nodes = (
"243 -8 OFFCURVE",
"301 14 OFFCURVE",
"362 86 CURVE",
"329 132 LINE",
"301 98 OFFCURVE",
"280 81 OFFCURVE",
"247 81 CURVE SMOOTH",
"212 81 OFFCURVE",
"176 107 OFFCURVE",
"176 138 CURVE SMOOTH",
"176 162 OFFCURVE",
"191 176 OFFCURVE",
"228 182 CURVE SMOOTH",
"692 251 LINE",
"692 370 OFFCURVE",
"629 448 OFFCURVE",
"521 448 CURVE SMOOTH",
"455 448 OFFCURVE",
"395 414 OFFCURVE",
"365 360 CURVE",
"408 360 LINE",
"378 419 OFFCURVE",
"316 448 OFFCURVE",
"221 448 CURVE",
"133 429 OFFCURVE",
"46 369 OFFCURVE",
"46 327 CURVE SMOOTH",
"46 301 OFFCURVE",
"68 283 OFFCURVE",
"100 283 CURVE SMOOTH",
"129 283 OFFCURVE",
"151 299 OFFCURVE",
"164 329 CURVE SMOOTH",
"192 397 LINE",
"182 397 LINE",
"182 379 LINE",
"243 379 OFFCURVE",
"293 337 OFFCURVE",
"293 268 CURVE SMOOTH",
"293 212 LINE SMOOTH",
"293 88 OFFCURVE",
"387 -8 OFFCURVE",
"510 -8 CURVE SMOOTH",
"593 -8 OFFCURVE",
"663 38 OFFCURVE",
"698 115 CURVE",
"667 144 LINE",
"634 107 OFFCURVE",
"599 89 OFFCURVE",
"557 89 CURVE SMOOTH",
"480 89 OFFCURVE",
"426 152 OFFCURVE",
"426 244 CURVE SMOOTH",
"426 263 LINE SMOOTH",
"426 337 OFFCURVE",
"461 392 OFFCURVE",
"509 392 CURVE SMOOTH",
"548 392 OFFCURVE",
"574 354 OFFCURVE",
"574 296 CURVE SMOOTH",
"574 255 LINE",
"594 289 LINE",
"183 228 LINE SMOOTH",
"79 212 OFFCURVE",
"38 174 OFFCURVE",
"38 114 CURVE SMOOTH",
"38 63 OFFCURVE",
"100 -8 OFFCURVE",
"206 -8 CURVE SMOOTH"
);
}
);
width = 729;
}
);
note = ae;
unicode = 00E6;
},
